{
DisplayStrings = (
"/f_f_b.liga bh"
);
classes = (
{
automatic = 1;
code = "A A.001 A.002 Aacute Abreve Acircumflex Adieresis Agrave Amacron Aogonek Aring Atilde AE B B.001 C C.001 Cacute Ccaron Ccedilla Ccircumflex D D.001 Eth Dcaron Dcroat E E.001 Eacute Ecaron Ecircumflex Edieresis Edotaccent Egrave Emacron Eogonek F F.001 G G.001 Gcircumflex Gcommaaccent H H.001 Hcircumflex I I.001 Iacute Icircumflex Idieresis Igrave Imacron Iogonek J J.001 Jcircumflex K K.001 Kcommaaccent L L.001 Lacute Lcaron Lcommaaccent Lslash M M.001 N N.001 Nacute Ncaron Ncommaaccent Eng Ntilde O O.001 Oacute Ocircumflex Odieresis Ograve Ohungarumlaut Omacron Oslash Otilde OE P P.001 Thorn Q Q.001 R R.001 Racute Rcaron Rcommaaccent S S.001 Sacute Scaron Scedilla Scircumflex Germandbls T T.001 Tbar Tcaron Tcedilla U U.001 Uacute Ubreve Ucircumflex Udieresis Ugrave Uhungarumlaut Umacron Uogonek Uring V V.001 V.002 W W.001 W.002 Wacute Wcircumflex Wdieresis Wgrave X X.001 Y Y.001 Yacute Ycircumflex Ydieresis Ygrave Z Z.001 Z.ss01 Zacute Zcaron Zdotaccent";
name = Uppercase;
}
);
date = "2015-12-01 10:15:36 +0000";
designer = "Mirco Monsees";
designerURL = mircomonsees.com;
familyName = "Project Gin";
featurePrefixes = (
{
automatic = 1;
code = "languagesystem DFLT dflt;\012languagesystem latn dflt;\012";
name = Languagesystems;
}
);
features = (
{
automatic = 1;
code = "feature ccmp;\012feature lnum;\012feature onum;\012feature case;\012feature salt;\012feature ss01;\012feature calt;\012";
name = aalt;
},
{
automatic = 1;

glyphs = (
{
glyphname = A;
lastChange = "2016-02-17 19:11:32 +0000";
layers = (
{
anchors = (
{
name = bottom;
position = "{329, 0}";
},
{
name = ogonek;
position = "{613, 10}";
},
{
name = top;
position = "{388, 647}";
}
);
background = {
paths = (
{
closed = 1;
nodes = (
"280 337 LINE",
"317 243 OFFCURVE",
"366 130 OFFCURVE",
"388 82 CURVE SMOOTH",
"393 71 OFFCURVE",
"405 59 OFFCURVE",
"428 49 CURVE",
"348 49 LINE",
"343 0 LINE",
"610 0 LINE",
"615 47 LINE",
"567 55 LINE",
"499 158 OFFCURVE",
"421 314 OFFCURVE",
"379 399 CURVE"
);
},
{
closed = 1;
nodes = (
"458 562 OFFCURVE",
"375 442 OFFCURVE",
"333 392 CURVE",
"368 316 LINE",
"436 409 OFFCURVE",
"562 586 OFFCURVE",
"591 615 CURVE SMOOTH",
"615 639 OFFCURVE",
"639 650 OFFCURVE",
"666 650 CURVE",
"671 700 LINE",
"437 700 LINE",
"432 653 LINE",
"486 645 LINE"
);
},
{
closed = 1;
nodes = (
"215 113 OFFCURVE",
"304 253 OFFCURVE",
"335 303 CURVE",
"286 368 LINE",
"226 275 OFFCURVE",
"115 112 OFFCURVE",
"84 85 CURVE SMOOTH",
"56 61 OFFCURVE",
"32 50 OFFCURVE",
"5 50 CURVE",
"0 0 LINE",
"223 0 LINE",
"228 47 LINE",
"181 55 LINE"
);
},
{
closed = 1;
nodes = (
"378 390 LINE",
"337 474 OFFCURVE",
"311 522 OFFCURVE",
"291 574 CURVE SMOOTH",
"277 610 OFFCURVE",
"263 651 OFFCURVE",
"322 651 CURVE",
"327 700 LINE",
"70 700 LINE",
"65 653 LINE",
"112 643 LINE",
"185 505 OFFCURVE",
"244 390 OFFCURVE",
"275 323 CURVE"
);
}
);
};
layerId = "71FD7A9F-05F5-4D76-8D4F-547475A05E4C";
name = "Bold Italic";
paths = (
{
closed = 1;
nodes = (
"329 696 LINE",
"333 684 OFFCURVE",
"330 649 OFFCURVE",
"336 620 CURVE",
"371 458 OFFCURVE",
"451 104 OFFCURVE",
"455 95 CURVE SMOOTH",
"461 80 OFFCURVE",
"481 66 OFFCURVE",
"500 65 CURVE",
"403 55 LINE",
"396 0 LINE",
"667 0 LINE",
"676 54 LINE",
"619 66 LINE",
"589 128 OFFCURVE",
"468 620 OFFCURVE",
"450 706 CURVE"
);
},
{
closed = 1;
nodes = (
"157 206 LINE",
"472 205 LINE",
"475 278 LINE",
"170 280 LINE"
);
},
{
closed = 1;
nodes = (
"223 228 OFFCURVE",
"298 409 OFFCURVE",
"364 558 CURVE SMOOTH",
"404 651 OFFCURVE",
"403 638 OFFCURVE",
"445 706 CURVE",
"329 696 LINE",
"259 526 OFFCURVE",
"116 206 OFFCURVE",
"76 126 CURVE SMOOTH",
"45 63 OFFCURVE",
"18 57 OFFCURVE",
"-17 57 CURVE",
"-26 0 LINE",
"216 1 LINE",
"228 54 LINE",
"171 66 LINE"
);
}
);
width = 706;
},
{
background = {
components = (
{
name = V;
transform = "{-1, 0, 0, -1, 725, 700}";
}
);
};
layerId = "11343128-4963-4E5D-BE9C-B74F53B36FA5";
name = Bold;
paths = (
{
closed = 1;
nodes = (
"295 700 LINE",
"299 688 OFFCURVE",
"302 649 OFFCURVE",
"310 620 CURVE",
"359 458 OFFCURVE",
"468 104 OFFCURVE",
"473 95 CURVE SMOOTH",
"481 80 OFFCURVE",
"502 66 OFFCURVE",
"521 65 CURVE",
"425 55 LINE",
"422 0 LINE",
"685 0 LINE",
"690 54 LINE",
"636 66 LINE",
"601 128 OFFCURVE",
"441 614 OFFCURVE",
"416 700 CURVE"
);
},
{
closed = 1;
nodes = (
"166 206 LINE",
"481 205 LINE",
"477 278 LINE",
"172 280 LINE"
);
},
{
closed = 1;
nodes = (
"230 228 OFFCURVE",
"289 409 OFFCURVE",
"341 558 CURVE SMOOTH",
"374 651 OFFCURVE",
"374 632 OFFCURVE",
"411 700 CURVE",
"295 700 LINE",
"239 530 OFFCURVE",
"125 206 OFFCURVE",
"92 126 CURVE SMOOTH",
"66 63 OFFCURVE",
"39 57 OFFCURVE",
"4 57 CURVE",
"0 0 LINE",
"242 1 LINE",
"250 54 LINE",
"192 66 LINE"
);
}
);
width = 705;
}
);
leftKerningGroup = A;
rightKerningGroup = A;
unicode = 0041;
},
{
glyphname = A.001;
lastChange = "2015-12-01 10:14:33 +0000";
layers = (
{
anchors = (
{
name = bottom;
position = "{330, 0}";
},
{
name = ogonek;
position = "{614, 10}";
},
{
name = top;
position = "{378, 647}";
}
);
background = {
paths = (
{
closed = 1;
nodes = (
"275 337 LINE",
"312 243 OFFCURVE",
"361 130 OFFCURVE",
"383 82 CURVE SMOOTH",
"388 71 OFFCURVE",
"400 59 OFFCURVE",
"423 49 CURVE",
"343 49 LINE",
"338 0 LINE",
"605 0 LINE",
"610 47 LINE",
"562 55 LINE",
"494 158 OFFCURVE",
"416 314 OFFCURVE",
"374 399 CURVE"
);
},
{
closed = 1;
nodes = (
"453 562 OFFCURVE",
"370 442 OFFCURVE",
"328 392 CURVE",
"363 316 LINE",
"431 409 OFFCURVE",
"557 586 OFFCURVE",
"586 615 CURVE SMOOTH",
"610 639 OFFCURVE",
"634 650 OFFCURVE",
"661 650 CURVE",
"666 700 LINE",
"432 700 LINE",
"427 653 LINE",
"481 645 LINE"
);
},
{
closed = 1;
nodes = (
"210 113 OFFCURVE",
"299 253 OFFCURVE",
"330 303 CURVE",
"281 368 LINE",
"221 275 OFFCURVE",
"110 112 OFFCURVE",
"79 85 CURVE SMOOTH",
"51 61 OFFCURVE",
"27 50 OFFCURVE",
"0 50 CURVE",
"-5 0 LINE",
"218 0 LINE",
"223 47 LINE",
"176 55 LINE"
);
},
{
closed = 1;
nodes = (
"373 390 LINE",
"332 474 OFFCURVE",
"306 522 OFFCURVE",
"286 574 CURVE SMOOTH",
"272 610 OFFCURVE",
"258 651 OFFCURVE",
"317 651 CURVE",
"322 700 LINE",
"65 700 LINE",
"60 653 LINE",
"107 643 LINE",
"180 505 OFFCURVE",
"239 390 OFFCURVE",
"270 323 CURVE"
);
}
);
};
layerId = "71FD7A9F-05F5-4D76-8D4F-547475A05E4C";
name = "Bold Italic";
paths = (
{
closed = 1;
nodes = (
"327 695 LINE",
"330 683 OFFCURVE",
"346 649 OFFCURVE",
"352 620 CURVE",
"387 458 OFFCURVE",
"462 104 OFFCURVE",
"465 95 CURVE SMOOTH",
"470 78 OFFCURVE",
"490 64 OFFCURVE",
"513 57 CURVE",
"422 57 LINE",
"418 0 LINE",
"671 0 LINE",
"680 54 LINE",
"628 66 LINE",
"592 128 OFFCURVE",
"475 620 OFFCURVE",
"456 710 CURVE"
);
},
{
closed = 1;
nodes = (
"164 206 LINE",
"479 205 LINE",
"480 278 LINE",
"175 280 LINE"
);
},
{
closed = 1;
nodes = (
"191 129 OFFCURVE",
"319 398 OFFCURVE",
"374 558 CURVE SMOOTH",
"406 651 OFFCURVE",
"410 639 OFFCURVE",
"452 707 CURVE",
"327 695 LINE",
"274 525 OFFCURVE",
"141 206 OFFCURVE",
"96 126 CURVE SMOOTH",
"61 64 OFFCURVE",
"34 57 OFFCURVE",
"5 57 CURVE",
"0 0 LINE",
"227 1 LINE",
"235 54 LINE",
"185 66 LINE"
);
}
);
width = 710;
},
{
layerId = "11343128-4963-4E5D-BE9C-B74F53B36FA5";
name = Bold;
width = 600;
}
);
leftKerningGroup = A;
rightKerningGroup = A;
},
{
glyphname = A.002;
lastChange = "2015-12-01 10:54:56 +0000";
layers = (
{
anchors = (
{
name = bottom;
position = "{330, 0}";
},
{
name = ogonek;
position = "{614, 10}";
},
{
name = top;
position = "{378, 647}";
}
);
background = {
paths = (
{
closed = 1;
nodes = (
"275 337 LINE",
"312 243 OFFCURVE",
"361 130 OFFCURVE",
"383 82 CURVE SMOOTH",
"388 71 OFFCURVE",
"400 59 OFFCURVE",
"423 49 CURVE",
"343 49 LINE",
"338 0 LINE",
"605 0 LINE",
"610 47 LINE",
"562 55 LINE",
"494 158 OFFCURVE",
"416 314 OFFCURVE",
"374 399 CURVE"
);
},
{
closed = 1;
nodes = (
"453 562 OFFCURVE",
"370 442 OFFCURVE",
"328 392 CURVE",
"363 316 LINE",
"431 409 OFFCURVE",
"557 586 OFFCURVE",
"586 615 CURVE SMOOTH",
"610 639 OFFCURVE",
"634 650 OFFCURVE",
"661 650 CURVE",
"666 700 LINE",
"432 700 LINE",
"427 653 LINE",
"481 645 LINE"
);
},
{
closed = 1;
nodes = (
"210 113 OFFCURVE",
"299 253 OFFCURVE",
"330 303 CURVE",
"281 368 LINE",
"221 275 OFFCURVE",
"110 112 OFFCURVE",
"79 85 CURVE SMOOTH",
"51 61 OFFCURVE",
"27 50 OFFCURVE",
"0 50 CURVE",
"-5 0 LINE",
"218 0 LINE",
"223 47 LINE",
"176 55 LINE"
);
},
{
closed = 1;
nodes = (
"373 390 LINE",
"332 474 OFFCURVE",
"306 522 OFFCURVE",
"286 574 CURVE SMOOTH",
"272 610 OFFCURVE",
"258 651 OFFCURVE",
"317 651 CURVE",
"322 700 LINE",
"65 700 LINE",
"60 653 LINE",
"107 643 LINE",
"180 505 OFFCURVE",
"239 390 OFFCURVE",
"270 323 CURVE"
);
}
);
};
layerId = "71FD7A9F-05F5-4D76-8D4F-547475A05E4C";
name = "Bold Italic";
paths = (
{
closed = 1;
nodes = (
"327 695 LINE",
"330 683 OFFCURVE",
"346 649 OFFCURVE",
"352 620 CURVE",
"387 458 OFFCURVE",
"462 104 OFFCURVE",
"465 95 CURVE SMOOTH",
"470 78 OFFCURVE",
"490 64 OFFCURVE",
"513 57 CURVE",
"422 57 LINE",
"418 0 LINE",
"671 0 LINE",
"680 54 LINE",
"628 66 LINE",
"592 128 OFFCURVE",
"475 620 OFFCURVE",
"456 710 CURVE"
);
},
{
closed = 1;
nodes = (
"164 206 LINE",
"479 205 LINE",
"480 278 LINE",
"175 280 LINE"
);
},
{
closed = 1;
nodes = (
"191 129 OFFCURVE",
"319 398 OFFCURVE",
"374 558 CURVE SMOOTH",
"406 651 OFFCURVE",
"410 639 OFFCURVE",
"452 707 CURVE",
"327 695 LINE",
"274 525 OFFCURVE",
"141 206 OFFCURVE",
"96 126 CURVE SMOOTH",
"61 64 OFFCURVE",
"34 57 OFFCURVE",
"5 57 CURVE",
"0 0 LINE",
"227 1 LINE",
"235 54 LINE",
"185 66 LINE"
);
}
);
width = 710;
},
{
layerId = "11343128-4963-4E5D-BE9C-B74F53B36FA5";
name = Bold;
width = 600;
}
);
leftKerningGroup = A;
rightKerningGroup = A;
},
{
glyphname = AE;
lastChange = "2016-02-17 19:32:51 +0000";
layers = (
{
anchors = (
{
name = bottom;
position = "{173, 0}";
},
{
name = ogonek;
position = "{457, 10}";
},
{
name = top;
position = "{510, 700}";
}
);
background = {
paths = (
{
closed = 1;
nodes = (
"333 696 LINE",
"337 684 OFFCURVE",
"334 649 OFFCURVE",
"340 620 CURVE",
"378 458 OFFCURVE",
"465 104 OFFCURVE",
"469 95 CURVE SMOOTH",
"476 80 OFFCURVE",
"496 66 OFFCURVE",
"515 65 CURVE",
"418 55 LINE",
"412 0 LINE",
"683 0 LINE",
"691 54 LINE",
"638 66 LINE",
"607 128 OFFCURVE",
"473 620 OFFCURVE",
"454 706 CURVE"
);
},
{
closed = 1;
nodes = (
"170 206 LINE",
"485 205 LINE",
"486 278 LINE",
"181 280 LINE"
);
},
{
closed = 1;
nodes = (
"235 228 OFFCURVE",
"307 409 OFFCURVE",
"370 558 CURVE SMOOTH",
"409 651 OFFCURVE",
"408 638 OFFCURVE",
"449 706 CURVE",
"333 696 LINE",
"266 526 OFFCURVE",
"129 206 OFFCURVE",
"90 126 CURVE SMOOTH",
"60 63 OFFCURVE",
"33 57 OFFCURVE",
"-2 57 CURVE",
"-10 0 LINE",
"232 1 LINE",
"243 54 LINE",
"186 66 LINE"
);
},
{
closed = 1;
nodes = (
"540 329 LINE",
"660 322 LINE",
"670 276 LINE",
"728 279 LINE",
"734 322 OFFCURVE",
"742 410 OFFCURVE",
"727 410 CURVE SMOOTH",
"718 410 OFFCURVE",
"503 403 OFFCURVE",
"549 404 CURVE"
);
},
{
closed = 1;
nodes = (
"649 603 OFFCURVE",
"749 602 OFFCURVE",
"799 592 CURVE",
"828 530 LINE",
"884 540 LINE",
"867 700 LINE",
"520 700 LINE",
"529 604 LINE"
);
},
{
closed = 1;
nodes = (
"474 63 LINE",
"468 0 LINE",
"833 -1 LINE",
"861 168 LINE",
"811 176 LINE",
"776 106 LINE",
"733 92 OFFCURVE",
"622 88 OFFCURVE",
"546 90 CURVE"
);
},
{
closed = 1;
nodes = (
"391 700 LINE",
"383 645 LINE",
"437 634 LINE",
"447 609 OFFCURVE",
"442 534 OFFCURVE",
"433 407 CURVE SMOOTH",
"418 197 OFFCURVE",
"398 114 OFFCURVE",
"401 98 CURVE SMOOTH",
"405 86 OFFCURVE",
"420 71 OFFCURVE",
"448 65 CURVE",
"340 55 LINE",
"335 0 LINE",
"616 1 LINE",
"624 54 LINE",
"567 70 LINE",
"533 129 OFFCURVE",
"554 307 OFFCURVE",
"557 353 CURVE SMOOTH",
"568 510 OFFCURVE",
"581 589 OFFCURVE",
"595 610 CURVE SMOOTH",
"607 630 OFFCURVE",
"630 643 OFFCURVE",
"654 645 CURVE",
"658 700 LINE"
);
}
);
};
layerId = "71FD7A9F-05F5-4D76-8D4F-547475A05E4C";
name = "Bold Italic";
paths = (
{
closed = 1;
nodes = (
"189 128 OFFCURVE",
"324 394 OFFCURVE",
"395 558 CURVE",
"431 652 OFFCURVE",
"396 596 OFFCURVE",
"438 664 CURVE",
"347 695 LINE",
"283 524 OFFCURVE",
"125 210 OFFCURVE",
"86 127 CURVE SMOOTH",
"57 65 OFFCURVE",
"22 57 OFFCURVE",
"-17 57 CURVE",
"-26 0 LINE",
"237 1 LINE",
"248 54 LINE",
"183 66 LINE"
);
},
{
closed = 1;
nodes = (
"503 607 OFFCURVE",
"674 604 OFFCURVE",
"724 594 CURVE",
"754 530 LINE",
"809 540 LINE",
"790 702 LINE",
"277 701 LINE",
"268 646 LINE",
"385 608 LINE"
);
},
{
closed = 1;
nodes = (
"555 354 OFFCURVE",
"321 314 OFFCURVE",
"200 306 CURVE",
"170 224 LINE",
"352 250 OFFCURVE",
"537 274 OFFCURVE",
"707 285 CURVE",
"711 329 OFFCURVE",
"711 377 OFFCURVE",
"703 396 CURVE"
);
},
{
closed = 1;
nodes = (
"760 103 LINE",
"720 90 OFFCURVE",
"626 85 OFFCURVE",
"552 86 CURVE",
"533 179 OFFCURVE",
"534 571 OFFCURVE",
"531 701 CURVE",
"400 695 LINE",
"412 694 OFFCURVE",
"408 96 OFFCURVE",
"408 97 CURVE",
"411 81 OFFCURVE",
"432 72 OFFCURVE",
"452 66 CURVE",
"344 60 LINE",
"338 0 LINE",
"817 -1 LINE",
"847 166 LINE",
"797 175 LINE"
);
}
);
width = 886;
},
{
layerId = "11343128-4963-4E5D-BE9C-B74F53B36FA5";
name = Bold;
width = 30;
}
);
leftKerningGroup = A;
leftMetricsKey = A;
rightKerningGroup = E;
rightMetricsKey = E;
unicode = 00C6;
},
{
glyphname = B;
lastChange = "2016-02-17 19:32:22 +0000";
layers = (
{
anchors = (
{
name = bottom;
position = "{293, 0}";
},
{
name = top;
position = "{378, 700}";
}
);
background = {
components = (
{
name = R;
}
);
};
layerId = "71FD7A9F-05F5-4D76-8D4F-547475A05E4C";
name = "Bold Italic";
paths = (
{
closed = 1;
nodes = (
"235 300 LINE",
"403 355 LINE",
"507 346 OFFCURVE",
"594 474 OFFCURVE",
"573 578 CURVE SMOOTH",
"547 699 OFFCURVE",
"404 711 OFFCURVE",
"240 708 CURVE SMOOTH",
"188 707 OFFCURVE",
"98 703 OFFCURVE",
"90 700 CURVE",
"270 617 LINE",
"447 653 OFFCURVE",
"485 442 OFFCURVE",
"383 386 CURVE",
"357 379 OFFCURVE",
"283 376 OFFCURVE",
"243 391 CURVE"
);
},
{
closed = 1;
nodes = (
"146 0 LINE",
"318 -1 LINE SMOOTH",
"445 -2 OFFCURVE",
"616 82 OFFCURVE",
"578 266 CURVE SMOOTH",
"544 423 OFFCURVE",
"320 385 OFFCURVE",
"255 347 CURVE",
"238 301 LINE",
"469 359 OFFCURVE",
"511 124 OFFCURVE",
"341 79 CURVE SMOOTH",
"306 70 OFFCURVE",
"258 83 OFFCURVE",
"233 91 CURVE"
);
},
{
closed = 1;
nodes = (
"90 700 LINE",
"80 645 LINE",
"135 634 LINE",
"145 609 OFFCURVE",
"138 534 OFFCURVE",
"127 407 CURVE SMOOTH",
"108 197 OFFCURVE",
"86 114 OFFCURVE",
"90 98 CURVE SMOOTH",
"92 86 OFFCURVE",
"107 71 OFFCURVE",
"136 65 CURVE",
"28 55 LINE",
"21 0 LINE",
"149 0 LINE",
"312 54 LINE",
"255 64 LINE",
"222 123 OFFCURVE",
"246 307 OFFCURVE",
"250 353 CURVE SMOOTH",
"264 510 OFFCURVE",
"277 589 OFFCURVE",
"293 610 CURVE SMOOTH",
"304 630 OFFCURVE",
"328 643 OFFCURVE",
"351 645 CURVE",
"357 700 LINE"
);
}
);
width = 620;
},
{
background = {
components = (
{
name = R;
}
);
};
layerId = "11343128-4963-4E5D-BE9C-B74F53B36FA5";
name = Bold;
paths = (
{
closed = 1;
nodes = (
"223 300 LINE",
"369 356 LINE",
"473 347 OFFCURVE",
"567 474 OFFCURVE",
"536 578 CURVE SMOOTH",
"500 699 OFFCURVE",
"356 711 OFFCURVE",
"192 708 CURVE SMOOTH",
"140 707 OFFCURVE",
"51 703 OFFCURVE",
"43 700 CURVE",
"224 621 LINE",
"399 657 OFFCURVE",
"460 442 OFFCURVE",
"363 386 CURVE",
"337 379 OFFCURVE",
"264 376 OFFCURVE",
"222 391 CURVE"
);
},
{
closed = 1;
nodes = (
"160 0 LINE",
"332 -1 LINE SMOOTH",
"459 -2 OFFCURVE",
"623 82 OFFCURVE",
"568 266 CURVE SMOOTH",
"521 423 OFFCURVE",
"300 385 OFFCURVE",
"238 347 CURVE",
"226 301 LINE",
"452 359 OFFCURVE",
"517 124 OFFCURVE",
"352 79 CURVE",
"243 91 LINE"
);
},
{
closed = 1;
nodes = (
"43 700 LINE",
"38 645 LINE",
"93 634 LINE",
"105 609 OFFCURVE",
"105 534 OFFCURVE",
"105 407 CURVE SMOOTH",
"105 197 OFFCURVE",
"90 114 OFFCURVE",
"95 98 CURVE SMOOTH",
"99 86 OFFCURVE",
"115 71 OFFCURVE",
"144 65 CURVE",
"37 55 LINE",
"35 0 LINE",
"316 1 LINE",
"321 54 LINE",
"263 64 LINE",
"225 123 OFFCURVE",
"233 307 OFFCURVE",
"233 353 CURVE SMOOTH",
"233 510 OFFCURVE",
"240 589 OFFCURVE",
"253 610 CURVE SMOOTH",
"263 630 OFFCURVE",
"286 643 OFFCURVE",
"309 645 CURVE",
"310 700 LINE"
);
}
);
width = 614;
}
);
leftKerningGroup = I;
leftMetricsKey = I;
rightKerningGroup = B;
unicode = 0042;
},
{
glyphname = B.001;
lastChange = "2016-02-17 19:32:51 +0000";
layers = (
{
background = {
paths = (
{
closed = 1;
nodes = (
"424 304 LINE",
"511 334 OFFCURVE",
"591 430 OFFCURVE",
"572 545 CURVE SMOOTH",
"537 752 OFFCURVE",
"211 703 OFFCURVE",
"87 699 CURVE",
"80 653 LINE",
"127 644 LINE",
"139 604 OFFCURVE",
"132 466 OFFCURVE",
"117 326 CURVE SMOOTH",
"99 158 OFFCURVE",
"86 96 OFFCURVE",
"91 85 CURVE SMOOTH",
"94 76 OFFCURVE",
"126 50 OFFCURVE",
"150 50 CURVE",
"32 51 LINE",
"27 0 LINE",
"307 0 LINE",
"314 47 LINE",
"260 55 LINE",
"239 108 OFFCURVE",
"233 157 OFFCURVE",
"244 285 CURVE",
"263 283 OFFCURVE",
"321 283 OFFCURVE",
"344 284 CURVE"
);
},
{
closed = 1;
nodes = (
"282 626 CURVE",
"452 635 OFFCURVE",
"476 404 OFFCURVE",
"371 363 CURVE",
"351 363 OFFCURVE",
"299 367 OFFCURVE",
"249 385 CURVE",
"257 480 OFFCURVE",
"265 550 OFFCURVE"
);
},
{
closed = 1;
nodes = (
"350 291 LINE",
"355 273 OFFCURVE",
"368 60 OFFCURVE",
"406 32 CURVE SMOOTH",
"415 25 OFFCURVE",
"487 -1 OFFCURVE",
"540 -1 CURVE",
"573 7 OFFCURVE",
"600 25 OFFCURVE",
"605 28 CURVE",
"600 74 LINE",
"580 66 OFFCURVE",
"566 65 OFFCURVE",
"555 63 CURVE",
"502 119 OFFCURVE",
"471 229 OFFCURVE",
"445 327 CURVE"
);
}
);
};
layerId = "71FD7A9F-05F5-4D76-8D4F-547475A05E4C";
name = "Bold Italic";
paths = (
{
closed = 1;
nodes = (
"282 626 CURVE",
"424 635 OFFCURVE",
"480 438 OFFCURVE",
"379 384 CURVE",
"337 380 OFFCURVE",
"285 374 OFFCURVE",
"250 386 CURVE",
"261 504 OFFCURVE",
"270 569 OFFCURVE"
);
},
{
closed = 1;
nodes = (
"349 318 LINE",
"393 311 OFFCURVE",
"416 283 OFFCURVE",
"427 232 CURVE SMOOTH",
"451 121 OFFCURVE",
"384 70 OFFCURVE",
"310 70 CURVE",
"256 85 LINE",
"238 111 OFFCURVE",
"233 175 OFFCURVE",
"246 303 CURVE",
"286 296 OFFCURVE",
"360 298 OFFCURVE",
"396 310 CURVE",
"534 367 OFFCURVE",
"581 466 OFFCURVE",
"557 570 CURVE SMOOTH",
"530 691 OFFCURVE",
"384 707 OFFCURVE",
"226 704 CURVE SMOOTH",
"179 703 OFFCURVE",
"108 702 OFFCURVE",
"88 700 CURVE",
"79 644 LINE",
"129 633 LINE",
"140 590 OFFCURVE",
"133 494 OFFCURVE",
"116 326 CURVE SMOOTH",
"99 137 OFFCURVE",
"86 106 OFFCURVE",
"91 95 CURVE SMOOTH",
"94 86 OFFCURVE",
"120 69 OFFCURVE",
"149 60 CURVE",
"36 60 LINE",
"32 0 LINE",
"296 -1 LINE SMOOTH",
"423 -1 OFFCURVE",
"587 71 OFFCURVE",
"558 257 CURVE SMOOTH",
"549 310 OFFCURVE",
"507 368 OFFCURVE",
"436 366 CURVE"
);
}
);
width = 591;
},
{
layerId = "11343128-4963-4E5D-BE9C-B74F53B36FA5";
name = Bold;
width = 30;
}
);
leftKerningGroup = I;
leftMetricsKey = I;
rightKerningGroup = B;
rightMetricsKey = O;
},
{
glyphname = C;
lastChange = "2016-02-17 19:11:32 +0000";
layers = (
{
anchors = (
{
name = bottom;
position = "{303, 0}";
},
{
name = top;
position = "{398, 646}";
}
);
background = {
paths = (
{
closed = 1;
nodes = (
"184 724 OFFCURVE",
"31 495 OFFCURVE",
"65 235 CURVE SMOOTH",
"88 64 OFFCURVE",
"204 -5 OFFCURVE",
"318 -14 CURVE SMOOTH",
"447 -24 OFFCURVE",
"559 12 OFFCURVE",
"614 51 CURVE",
"614 129 OFFCURVE",
"620 227 OFFCURVE",
"627 249 CURVE SMOOTH",
"636 276 OFFCURVE",
"658 282 OFFCURVE",
"666 282 CURVE",
"670 343 LINE",
"585 340 OFFCURVE",
"541 341 OFFCURVE",
"461 344 CURVE",
"453 285 LINE",
"506 269 LINE",
"505 213 OFFCURVE",
"505 117 OFFCURVE",
"468 76 CURVE",
"331 62 OFFCURVE",
"250 113 OFFCURVE",
"223 270 CURVE SMOOTH",
"187 489 OFFCURVE",
"291 598 OFFCURVE",
"354 625 CURVE",
"451 619 OFFCURVE",
"513 584 OFFCURVE",
"540 547 CURVE",
"545 492 LINE",
"610 502 LINE",
"635 640 LINE",
"603 673 OFFCURVE",
"535 718 OFFCURVE",
"418 720 CURVE SMOOTH"
);
}
);
};
layerId = "71FD7A9F-05F5-4D76-8D4F-547475A05E4C";
name = "Bold Italic";
paths = (
{
closed = 1;
nodes = (
"566 59 LINE",
"544 41 OFFCURVE",
"460 -4 OFFCURVE",
"347 -9 CURVE SMOOTH",
"204 -15 OFFCURVE",
"79 43 OFFCURVE",
"45 204 CURVE SMOOTH",
"-5 443 OFFCURVE",
"141 720 OFFCURVE",
"406 716 CURVE SMOOTH",
"505 715 OFFCURVE",
"584 673 OFFCURVE",
"616 637 CURVE",
"590 498 LINE",
"526 488 LINE",
"524 539 LINE",
"504 571 OFFCURVE",
"442 628 OFFCURVE",
"349 628 CURVE",
"273 602 OFFCURVE",
"159 441 OFFCURVE",
"192 258 CURVE SMOOTH",
"213 152 OFFCURVE",
"274 80 OFFCURVE",
"385 75 CURVE SMOOTH",
"448 72 OFFCURVE",
"515 93 OFFCURVE",
"552 122 CURVE"
);
}
);
width = 620;
},
{
background = {
components = (
{
name = O;
}
);
};
layerId = "11343128-4963-4E5D-BE9C-B74F53B36FA5";
name = Bold;
paths = (
{
closed = 1;
nodes = (
"584 58 LINE",
"563 40 OFFCURVE",
"483 -4 OFFCURVE",
"370 -9 CURVE SMOOTH",
"228 -15 OFFCURVE",
"98 42 OFFCURVE",
"50 202 CURVE SMOOTH",
"-21 439 OFFCURVE",
"101 713 OFFCURVE",
"367 709 CURVE SMOOTH",
"466 708 OFFCURVE",
"548 666 OFFCURVE",
"583 631 CURVE",
"569 493 LINE",
"507 483 LINE",
"500 534 LINE",
"477 565 OFFCURVE",
"411 623 OFFCURVE",
"318 623 CURVE",
"245 597 OFFCURVE",
"143 437 OFFCURVE",
"193 255 CURVE SMOOTH",
"222 150 OFFCURVE",
"290 79 OFFCURVE",
"401 74 CURVE SMOOTH",
"465 71 OFFCURVE",
"529 92 OFFCURVE",
"564 121 CURVE"
);
}
);
width = 616;
}
);
leftKerningGroup = O;
leftMetricsKey = O;
rightKerningGroup = C;
unicode = 0043;
},
{
glyphname = C.001;
lastChange = "2016-02-17 19:32:51 +0000";
layers = (
{
anchors = (
{
name = bottom;
position = "{287, 0}";
},
{
name = top;
position = "{371, 646}";
}
);
background = {
paths = (
{
closed = 1;
nodes = (
"162 724 OFFCURVE",
"9 495 OFFCURVE",
"43 235 CURVE SMOOTH",
"66 64 OFFCURVE",
"182 -5 OFFCURVE",
"296 -14 CURVE SMOOTH",
"425 -24 OFFCURVE",
"537 12 OFFCURVE",
"592 51 CURVE",
"592 129 OFFCURVE",
"598 227 OFFCURVE",
"605 249 CURVE SMOOTH",
"614 276 OFFCURVE",
"636 282 OFFCURVE",
"644 282 CURVE",
"648 343 LINE",
"563 340 OFFCURVE",
"519 341 OFFCURVE",
"439 344 CURVE",
"431 285 LINE",
"484 269 LINE",
"483 213 OFFCURVE",
"483 117 OFFCURVE",
"446 76 CURVE",
"309 62 OFFCURVE",
"228 113 OFFCURVE",
"201 270 CURVE SMOOTH",
"165 489 OFFCURVE",
"269 598 OFFCURVE",
"332 625 CURVE",
"429 619 OFFCURVE",
"491 584 OFFCURVE",
"518 547 CURVE",
"523 492 LINE",
"588 502 LINE",
"613 640 LINE",
"581 673 OFFCURVE",
"513 718 OFFCURVE",
"396 720 CURVE SMOOTH"
);
}
);
};
layerId = "71FD7A9F-05F5-4D76-8D4F-547475A05E4C";
name = "Bold Italic";
paths = (
{
closed = 1;
nodes = (
"577 44 LINE",
"554 28 OFFCURVE",
"472 -12 OFFCURVE",
"358 -17 CURVE SMOOTH",
"216 -23 OFFCURVE",
"81 36 OFFCURVE",
"47 201 CURVE SMOOTH",
"-6 445 OFFCURVE",
"133 724 OFFCURVE",
"399 720 CURVE SMOOTH",
"498 719 OFFCURVE",
"579 678 OFFCURVE",
"611 641 CURVE",
"588 502 LINE",
"521 492 LINE",
"521 495 OFFCURVE",
"519 519 OFFCURVE",
"517 544 CURVE",
"497 577 OFFCURVE",
"424 625 OFFCURVE",
"331 625 CURVE",
"256 598 OFFCURVE",
"163 470 OFFCURVE",
"202 255 CURVE SMOOTH",
"222 146 OFFCURVE",
"285 74 OFFCURVE",
"395 69 CURVE SMOOTH",
"459 66 OFFCURVE",
"525 95 OFFCURVE",
"562 125 CURVE"
);
}
);
width = 609;
},
{
layerId = "11343128-4963-4E5D-BE9C-B74F53B36FA5";
name = Bold;
width = 15;
}
);
leftKerningGroup = O;
leftMetricsKey = O;
rightKerningGroup = C;
rightMetricsKey = "=O-15";
},
{
glyphname = D;
lastChange = "2016-02-17 19:32:29 +0000";
layers = (
{
anchors = (
{
name = bottom;
position = "{321, 0}";
},
{
name = center;
position = "{217, 350}";
},
{
name = top;
position = "{366, 700}";
}
);
background = {
paths = (
{
closed = 1;
nodes = (
"538 683 OFFCURVE",
"451 727 OFFCURVE",
"317 709 CURVE",
"28 647 OFFCURVE",
"-31 244 OFFCURVE",
"103 81 CURVE SMOOTH",
"174 -7 OFFCURVE",
"283 -28 OFFCURVE",
"400 0 CURVE",
"655 77 OFFCURVE",
"726 439 OFFCURVE",
"589 616 CURVE SMOOTH"
);
},
{
closed = 1;
nodes = (
"314 74 OFFCURVE",
"261 99 OFFCURVE",
"226 176 CURVE SMOOTH",
"152 333 OFFCURVE",
"180 545 OFFCURVE",
"320 626 CURVE",
"379 626 OFFCURVE",
"429 608 OFFCURVE",
"469 519 CURVE SMOOTH",
"537 371 OFFCURVE",
"512 162 OFFCURVE",
"374 75 CURVE"
);
}
);
};
layerId = "71FD7A9F-05F5-4D76-8D4F-547475A05E4C";
name = "Bold Italic";
paths = (
{
closed = 1;
nodes = (
"345 78 LINE",
"422 114 OFFCURVE",
"527 234 OFFCURVE",
"499 438 CURVE SMOOTH",
"479 579 OFFCURVE",
"348 632 OFFCURVE",
"278 622 CURVE",
"92 700 LINE",
"125 701 OFFCURVE",
"219 706 OFFCURVE",
"292 705 CURVE SMOOTH",
"472 703 OFFCURVE",
"605 666 OFFCURVE",
"643 496 CURVE SMOOTH",
"703 224 OFFCURVE",
"511 -5 OFFCURVE",
"298 -3 CURVE SMOOTH",
"20 0 LINE",
"230 92 LINE"
);
},
{
closed = 1;
nodes = (
"351 645 LINE",
"327 643 OFFCURVE",
"303 630 OFFCURVE",
"292 610 CURVE SMOOTH",
"277 589 OFFCURVE",
"263 510 OFFCURVE",
"249 353 CURVE SMOOTH",
"245 307 OFFCURVE",
"221 123 OFFCURVE",
"254 64 CURVE",
"311 54 LINE",
"302 1 LINE",
"20 0 LINE",
"27 55 LINE",
"135 65 LINE",
"106 71 OFFCURVE",
"91 86 OFFCURVE",
"89 98 CURVE SMOOTH",
"85 114 OFFCURVE",
"107 197 OFFCURVE",
"126 407 CURVE SMOOTH",
"137 534 OFFCURVE",
"146 609 OFFCURVE",
"135 634 CURVE",
"80 645 LINE",
"90 700 LINE",
"356 700 LINE"
);
}
);
width = 675;
},
{
background = {
paths = (
{
closed = 1;
nodes = (
"35 0 LINE",
"313 -3 LINE SMOOTH",
"526 -5 OFFCURVE",
"692 198 OFFCURVE",
"624 482 CURVE SMOOTH",
"580 666 OFFCURVE",
"426 703 OFFCURVE",
"245 705 CURVE SMOOTH",
"171 706 OFFCURVE",
"78 701 OFFCURVE",
"45 700 CURVE",
"238 622 LINE",
"307 632 OFFCURVE",
"441 582 OFFCURVE",
"474 441 CURVE SMOOTH",
"522 234 OFFCURVE",
"427 107 OFFCURVE",
"354 71 CURVE",
"238 85 LINE"
);
}
);
};
layerId = "11343128-4963-4E5D-BE9C-B74F53B36FA5";
name = Bold;
paths = (
{
closed = 1;
nodes = (
"35 0 LINE",
"313 -3 LINE SMOOTH",
"526 -5 OFFCURVE",
"698 224 OFFCURVE",
"614 496 CURVE SMOOTH",
"561 666 OFFCURVE",
"426 703 OFFCURVE",
"245 705 CURVE SMOOTH",
"171 706 OFFCURVE",
"78 701 OFFCURVE",
"45 700 CURVE",
"238 622 LINE",
"307 632 OFFCURVE",
"443 579 OFFCURVE",
"475 438 CURVE SMOOTH",
"521 234 OFFCURVE",
"427 107 OFFCURVE",
"354 71 CURVE",
"238 85 LINE"
);
},
{
closed = 1;
nodes = (
"43 700 LINE",
"38 645 LINE",
"93 634 LINE",
"105 609 OFFCURVE",
"105 534 OFFCURVE",
"105 407 CURVE SMOOTH",
"105 197 OFFCURVE",
"90 114 OFFCURVE",
"95 98 CURVE SMOOTH",
"99 86 OFFCURVE",
"115 71 OFFCURVE",
"144 65 CURVE",
"37 55 LINE",
"35 0 LINE",
"316 1 LINE",
"321 54 LINE",
"263 64 LINE",
"225 123 OFFCURVE",
"233 307 OFFCURVE",
"233 353 CURVE SMOOTH",
"233 510 OFFCURVE",
"240 589 OFFCURVE",
"253 610 CURVE SMOOTH",
"263 630 OFFCURVE",
"286 643 OFFCURVE",
"309 645 CURVE",
"310 700 LINE"
);
}
);
width = 666;
}
);
leftKerningGroup = I;
leftMetricsKey = I;
rightKerningGroup = O;
unicode = 0044;
},
{
glyphname = D.001;
lastChange = "2016-02-17 19:32:51 +0000";
layers = (
{
anchors = (
{
name = bottom;
position = "{308, 0}";
},
{
name = center;
position = "{198, 350}";
},
{
name = top;
position = "{341, 700}";
}
);
background = {
paths = (
{
closed = 1;
nodes = (
"519 683 OFFCURVE",
"432 727 OFFCURVE",
"298 709 CURVE",
"9 647 OFFCURVE",
"-50 244 OFFCURVE",
"84 81 CURVE SMOOTH",
"155 -7 OFFCURVE",
"264 -28 OFFCURVE",
"381 0 CURVE",
"636 77 OFFCURVE",
"707 439 OFFCURVE",
"570 616 CURVE SMOOTH"
);
},
{
closed = 1;
nodes = (
"295 74 OFFCURVE",
"242 99 OFFCURVE",
"207 176 CURVE SMOOTH",
"133 333 OFFCURVE",
"161 545 OFFCURVE",
"301 626 CURVE",
"360 626 OFFCURVE",
"410 608 OFFCURVE",
"450 519 CURVE SMOOTH",
"518 371 OFFCURVE",
"493 162 OFFCURVE",
"355 75 CURVE"
);
}
);
};
layerId = "71FD7A9F-05F5-4D76-8D4F-547475A05E4C";
name = "Bold Italic";
paths = (
{
closed = 1;
nodes = (
"683 198 OFFCURVE",
"517 -5 OFFCURVE",
"304 -3 CURVE SMOOTH",
"33 0 LINE",
"37 59 LINE",
"148 59 LINE",
"124 68 OFFCURVE",
"93 85 OFFCURVE",
"90 94 CURVE SMOOTH",
"85 105 OFFCURVE",
"108 254 OFFCURVE",
"119 371 CURVE SMOOTH",
"129 476 OFFCURVE",
"137 600 OFFCURVE",
"126 634 CURVE",
"79 643 LINE",
"87 700 LINE",
"129 702 OFFCURVE",
"232 706 OFFCURVE",
"282 706 CURVE SMOOTH",
"463 704 OFFCURVE",
"604 666 OFFCURVE",
"635 482 CURVE SMOOTH"
);
},
{
closed = 1;
nodes = (
"256 510 OFFCURVE",
"220 129 OFFCURVE",
"246 83 CURVE",
"346 71 LINE",
"422 107 OFFCURVE",
"521 249 OFFCURVE",
"479 456 CURVE SMOOTH",
"452 590 OFFCURVE",
"350 626 OFFCURVE",
"280 622 CURVE"
);
}
);
width = 657;
},
{
layerId = "11343128-4963-4E5D-BE9C-B74F53B36FA5";
name = Bold;
width = 30;
}
);
leftKerningGroup = I;
leftMetricsKey = I;
rightKerningGroup = O;
rightMetricsKey = O;
},
{
glyphname = E;
lastChange = "2016-02-17 19:32:29 +0000";
layers = (
{
anchors = (
{
name = bottom;
position = "{282, 0}";
},
{
name = ogonek;
position = "{505, 10}";
},
{
name = top;
position = "{351, 645}";
},
{
name = topleft;
position = "{108, 700}";
}
);
background = {
paths = (
{
closed = 1;
nodes = (
"103 700 LINE",
"95 653 LINE",
"145 642 LINE",
"156 602 OFFCURVE",
"149 484 OFFCURVE",
"146 427 CURVE SMOOTH",
"137 249 OFFCURVE",
"112 101 OFFCURVE",
"115 88 CURVE SMOOTH",
"119 74 OFFCURVE",
"157 56 OFFCURVE",
"176 50 CURVE",
"56 51 LINE",
"53 0 LINE",
"551 -1 LINE",
"577 164 LINE",
"527 175 LINE",
"522 165 OFFCURVE",
"507 127 OFFCURVE",
"493 98 CURVE",
"454 85 OFFCURVE",
"355 80 OFFCURVE",
"281 81 CURVE",
"251 114 OFFCURVE",
"259 228 OFFCURVE",
"267 331 CURVE",
"389 325 LINE",
"400 279 LINE",
"440 282 LINE",
"445 325 OFFCURVE",
"452 410 OFFCURVE",
"437 410 CURVE SMOOTH",
"429 410 OFFCURVE",
"266 404 OFFCURVE",
"272 404 CURVE",
"273 455 OFFCURVE",
"289 570 OFFCURVE",
"300 614 CURVE",
"371 614 OFFCURVE",
"470 615 OFFCURVE",
"514 601 CURVE",
"521 585 OFFCURVE",
"533 561 OFFCURVE",
"548 524 CURVE",
"598 535 LINE",
"572 700 LINE"
);
}
);
};
guideLines = (
{
angle = 12;
position = "{519, 529}";
},
{
angle = -12;
position = "{500, 175}";
},
{
angle = 84;
position = "{514, 548}";
}
);
layerId = "71FD7A9F-05F5-4D76-8D4F-547475A05E4C";
name = "Bold Italic";
paths = (
{
closed = 1;
nodes = (
"232 329 LINE",
"352 322 LINE",
"361 276 LINE",
"419 279 LINE",
"426 322 OFFCURVE",
"435 410 OFFCURVE",
"420 410 CURVE SMOOTH",
"411 410 OFFCURVE",
"196 403 OFFCURVE",
"242 404 CURVE"
);
},
{
closed = 1;
nodes = (
"345 603 OFFCURVE",
"445 602 OFFCURVE",
"495 592 CURVE",
"523 530 LINE",
"579 540 LINE",
"565 700 LINE",
"218 700 LINE",
"225 604 LINE"
);
},
{
closed = 1;
nodes = (
"161 63 LINE",
"154 0 LINE",
"519 -1 LINE",
"550 168 LINE",
"500 176 LINE",
"464 106 LINE",
"420 92 OFFCURVE",
"309 88 OFFCURVE",
"233 90 CURVE"
);
},
{
closed = 1;
nodes = (
"89 700 LINE",
"80 645 LINE",
"134 634 LINE",
"144 609 OFFCURVE",
"137 534 OFFCURVE",
"126 407 CURVE SMOOTH",
"107 197 OFFCURVE",
"86 114 OFFCURVE",
"89 98 CURVE SMOOTH",
"92 86 OFFCURVE",
"107 71 OFFCURVE",
"135 65 CURVE",
"31 55 LINE",
"25 0 LINE",
"302 1 LINE",
"311 54 LINE",
"254 70 LINE",
"221 129 OFFCURVE",
"245 307 OFFCURVE",
"249 353 CURVE SMOOTH",
"263 510 OFFCURVE",
"277 589 OFFCURVE",
"292 610 CURVE SMOOTH",
"304 630 OFFCURVE",
"327 643 OFFCURVE",
"351 645 CURVE",
"356 700 LINE"
);
}
);
width = 589;
},
{
background = {
components = (
{
name = P;
}
);
};
layerId = "11343128-4963-4E5D-BE9C-B74F53B36FA5";
name = Bold;
paths = (
{
closed = 1;
nodes = (
"217 332 LINE",
"338 325 LINE",
"351 279 LINE",
"409 282 LINE",
"412 325 OFFCURVE",
"414 410 OFFCURVE",
"399 410 CURVE SMOOTH",
"390 410 OFFCURVE",
"175 403 OFFCURVE",
"221 404 CURVE"
);
},
{
closed = 1;
nodes = (
"307 613 OFFCURVE",
"407 612 OFFCURVE",
"457 602 CURVE",
"491 540 LINE",
"546 550 LINE",
"519 700 LINE",
"172 700 LINE",
"187 614 LINE"
);
},
{
closed = 1;
nodes = (
"469 100 LINE",
"429 87 OFFCURVE",
"329 82 OFFCURVE",
"253 84 CURVE",
"226 156 OFFCURVE",
"233 311 OFFCURVE",
"233 353 CURVE SMOOTH",
"233 510 OFFCURVE",
"240 589 OFFCURVE",
"253 610 CURVE",
"263 630 OFFCURVE",
"286 643 OFFCURVE",
"309 645 CURVE",
"310 700 LINE",
"43 700 LINE",
"38 645 LINE",
"93 634 LINE",
"105 609 OFFCURVE",
"105 534 OFFCURVE",
"105 407 CURVE SMOOTH",
"105 197 OFFCURVE",
"90 114 OFFCURVE",
"95 98 CURVE SMOOTH",
"99 86 OFFCURVE",
"115 71 OFFCURVE",
"144 65 CURVE",
"37 55 LINE",
"35 0 LINE",
"533 -1 LINE",
"550 162 LINE",
"500 170 LINE"
);
}
);
width = 580;
}
);
leftKerningGroup = I;
leftMetricsKey = I;
rightKerningGroup = E;
unicode = 0045;
},
{
glyphname = E.001;
lastChange = "2016-02-17 19:32:51 +0000";
layers = (
{
anchors = (
{
name = bottom;
position = "{269, 0}";
},
{
name = ogonek;
position = "{492, 10}";
},
{
name = top;
position = "{327, 645}";
},
{
name = topleft;
position = "{83, 700}";
}
);
background = {
paths = (
{
closed = 1;
nodes = (
"84 700 LINE",
"76 653 LINE",
"126 642 LINE",
"137 602 OFFCURVE",
"130 484 OFFCURVE",
"127 427 CURVE SMOOTH",
"118 249 OFFCURVE",
"93 101 OFFCURVE",
"96 88 CURVE SMOOTH",
"100 74 OFFCURVE",
"138 56 OFFCURVE",
"157 50 CURVE",
"37 51 LINE",
"34 0 LINE",
"532 -1 LINE",
"558 164 LINE",
"508 175 LINE",
"503 165 OFFCURVE",
"488 127 OFFCURVE",
"474 98 CURVE",
"435 85 OFFCURVE",
"336 80 OFFCURVE",
"262 81 CURVE",
"232 114 OFFCURVE",
"240 228 OFFCURVE",
"248 331 CURVE",
"370 325 LINE",
"381 279 LINE",
"421 282 LINE",
"426 325 OFFCURVE",
"433 410 OFFCURVE",
"418 410 CURVE SMOOTH",
"410 410 OFFCURVE",
"247 404 OFFCURVE",
"253 404 CURVE",
"254 455 OFFCURVE",
"270 570 OFFCURVE",
"281 614 CURVE",
"352 614 OFFCURVE",
"451 615 OFFCURVE",
"495 601 CURVE",
"502 585 OFFCURVE",
"514 561 OFFCURVE",
"529 524 CURVE",
"579 535 LINE",
"553 700 LINE"
);
}
);
};
guideLines = (
{
angle = 12;
position = "{500, 529}";
},
{
angle = -12;
position = "{481, 175}";
},
{
angle = 84;
position = "{495, 548}";
}
);
layerId = "71FD7A9F-05F5-4D76-8D4F-547475A05E4C";
name = "Bold Italic";
paths = (
{
closed = 1;
nodes = (
"90 700 LINE",
"80 645 LINE",
"130 634 LINE",
"140 594 OFFCURVE",
"134 484 OFFCURVE",
"130 427 CURVE SMOOTH",
"118 249 OFFCURVE",
"91 110 OFFCURVE",
"93 97 CURVE SMOOTH",
"97 83 OFFCURVE",
"135 65 OFFCURVE",
"154 59 CURVE",
"34 60 LINE",
"28 0 LINE",
"526 -1 LINE",
"555 164 LINE",
"491 173 LINE",
"455 103 LINE",
"415 90 OFFCURVE",
"331 85 OFFCURVE",
"257 86 CURVE",
"228 119 OFFCURVE",
"240 228 OFFCURVE",
"250 331 CURVE",
"348 325 LINE",
"358 279 LINE",
"422 282 LINE",
"428 325 OFFCURVE",
"436 410 OFFCURVE",
"421 410 CURVE SMOOTH",
"413 410 OFFCURVE",
"250 404 OFFCURVE",
"256 404 CURVE",
"258 455 OFFCURVE",
"275 569 OFFCURVE",
"287 613 CURVE",
"378 612 OFFCURVE",
"443 610 OFFCURVE",
"484 602 CURVE",
"513 540 LINE",
"578 550 LINE",
"561 700 LINE"
);
}
);
width = 588;
},
{
layerId = "11343128-4963-4E5D-BE9C-B74F53B36FA5";
name = Bold;
width = 30;
}
);
leftKerningGroup = I;
leftMetricsKey = I;
rightKerningGroup = E;
rightMetricsKey = I;
},
{
glyphname = F;
lastChange = "2016-02-17 19:32:29 +0000";
layers = (
{
background = {
components = (
{
name = E;
}
);
};
guideLines = (
{
position = "{516, 541}";
}
);
layerId = "71FD7A9F-05F5-4D76-8D4F-547475A05E4C";
name = "Bold Italic";
paths = (
{
closed = 1;
nodes = (
"223 324 LINE",
"343 317 LINE",
"353 271 LINE",
"411 274 LINE",
"417 317 OFFCURVE",
"427 405 OFFCURVE",
"412 405 CURVE SMOOTH",
"403 405 OFFCURVE",
"187 398 OFFCURVE",
"233 399 CURVE"
);
},
{
closed = 1;
nodes = (
"330 605 OFFCURVE",
"430 604 OFFCURVE",
"480 594 CURVE",
"508 532 LINE",
"564 542 LINE",
"550 700 LINE",
"203 700 LINE",
"210 606 LINE"
);
},
{
closed = 1;
nodes = (
"125 0 LINE",
"317 0 LINE",
"326 53 LINE",
"195 75 LINE"
);
},
{
closed = 1;
nodes = (
"89 700 LINE",
"80 645 LINE",
"134 634 LINE",
"144 609 OFFCURVE",
"137 534 OFFCURVE",
"126 407 CURVE SMOOTH",
"107 197 OFFCURVE",
"86 114 OFFCURVE",
"89 98 CURVE SMOOTH",
"92 86 OFFCURVE",
"107 71 OFFCURVE",
"135 65 CURVE",
"27 55 LINE",
"21 0 LINE",
"302 1 LINE",
"311 54 LINE",
"254 64 LINE",
"221 123 OFFCURVE",
"245 307 OFFCURVE",
"249 353 CURVE SMOOTH",
"263 510 OFFCURVE",
"277 589 OFFCURVE",
"292 610 CURVE SMOOTH",
"304 630 OFFCURVE",
"327 643 OFFCURVE",
"351 645 CURVE",
"356 700 LINE"
);
}
);
width = 544;
},
{
background = {
components = (
{
name = I;
transform = "{1, 0, 0, 1, -8, 0}";
}
);
paths = (
{
closed = 1;
nodes = (
"209 327 LINE",
"330 320 LINE",
"343 274 LINE",
"401 277 LINE",
"404 320 OFFCURVE",
"406 405 OFFCURVE",
"391 405 CURVE SMOOTH",
"382 405 OFFCURVE",
"167 398 OFFCURVE",
"213 399 CURVE"
);
},
{
closed = 1;
nodes = (
"292 613 OFFCURVE",
"392 612 OFFCURVE",
"442 602 CURVE",
"476 540 LINE",
"531 550 LINE",
"504 700 LINE",
"157 700 LINE",
"172 614 LINE"
);
},
{
closed = 1;
nodes = (
"139 0 LINE",
"331 0 LINE",
"336 53 LINE",
"203 75 LINE"
);
}
);
};
layerId = "11343128-4963-4E5D-BE9C-B74F53B36FA5";
name = Bold;
paths = (
{
closed = 1;
nodes = (
"209 327 LINE",
"330 320 LINE",
"343 274 LINE",
"401 277 LINE",
"404 320 OFFCURVE",
"406 405 OFFCURVE",
"391 405 CURVE SMOOTH",
"382 405 OFFCURVE",
"167 398 OFFCURVE",
"213 399 CURVE"
);
},
{
closed = 1;
nodes = (
"292 613 OFFCURVE",
"392 612 OFFCURVE",
"442 602 CURVE",
"476 540 LINE",
"531 550 LINE",
"504 700 LINE",
"157 700 LINE",
"172 614 LINE"
);
},
{
closed = 1;
nodes = (
"139 0 LINE",
"331 0 LINE",
"336 53 LINE",
"203 75 LINE"
);
},
{
closed = 1;
nodes = (
"43 700 LINE",
"38 645 LINE",
"93 634 LINE",
"105 609 OFFCURVE",
"105 534 OFFCURVE",
"105 407 CURVE SMOOTH",
"105 197 OFFCURVE",
"90 114 OFFCURVE",
"95 98 CURVE SMOOTH",
"99 86 OFFCURVE",
"115 71 OFFCURVE",
"144 65 CURVE",
"37 55 LINE",
"35 0 LINE",
"316 1 LINE",
"321 54 LINE",
"263 64 LINE",
"225 123 OFFCURVE",
"233 307 OFFCURVE",
"233 353 CURVE SMOOTH",
"233 510 OFFCURVE",
"240 589 OFFCURVE",
"253 610 CURVE SMOOTH",
"263 630 OFFCURVE",
"286 643 OFFCURVE",
"309 645 CURVE",
"310 700 LINE"
);
}
);
width = 560;
}
);
leftKerningGroup = I;
leftMetricsKey = I;
rightKerningGroup = F;
unicode = 0046;
},
{
glyphname = F.001;
lastChange = "2016-02-17 19:32:51 +0000";
layers = (
{
background = {
components = (
{
name = E;
}
);
};
guideLines = (
{
position = "{497, 541}";
}
);
layerId = "71FD7A9F-05F5-4D76-8D4F-547475A05E4C";
name = "Bold Italic";
paths = (
{
closed = 1;
nodes = (
"388 697 OFFCURVE",
"238 696 OFFCURVE",
"89 700 CURVE",
"80 645 LINE",
"128 635 LINE",
"141 596 OFFCURVE",
"133 484 OFFCURVE",
"129 426 CURVE SMOOTH",
"117 263 OFFCURVE",
"88 114 OFFCURVE",
"93 99 CURVE SMOOTH",
"96 84 OFFCURVE",
"130 68 OFFCURVE",
"153 60 CURVE",
"35 60 LINE",
"29 0 LINE",
"323 0 LINE",
"331 53 LINE",
"261 63 LINE",
"235 112 OFFCURVE",
"240 196 OFFCURVE",
"246 323 CURVE",
"337 317 LINE",
"349 271 LINE",
"411 275 LINE",
"414 296 OFFCURVE",
"419 403 OFFCURVE",
"410 403 CURVE SMOOTH",
"404 403 OFFCURVE",
"247 397 OFFCURVE",
"251 397 CURVE",
"261 534 OFFCURVE",
"268 560 OFFCURVE",
"279 610 CURVE",
"334 610 OFFCURVE",
"398 608 OFFCURVE",
"462 600 CURVE",
"490 540 LINE",
"556 550 LINE",
"537 701 LINE"
);
}
);
width = 549;
},
{
layerId = "11343128-4963-4E5D-BE9C-B74F53B36FA5";
name = Bold;
width = 25;
}
);
leftKerningGroup = I;
leftMetricsKey = I;
rightKerningGroup = F;
rightMetricsKey = "=E-5";
},
{
glyphname = G;
lastChange = "2016-02-17 19:11:32 +0000";
layers = (
{
anchors = (
{
name = bottom;
position = "{346, 0}";
},
{
name = top;
position = "{409, 646}";
}
);
background = {
components = (
{
name = C;
}
);
};
layerId = "71FD7A9F-05F5-4D76-8D4F-547475A05E4C";
name = "Bold Italic";
paths = (
{
closed = 1;
nodes = (
"164 716 OFFCURVE",
"5 489 OFFCURVE",
"41 235 CURVE SMOOTH",
"64 71 OFFCURVE",
"181 -5 OFFCURVE",
"299 -14 CURVE SMOOTH",
"431 -24 OFFCURVE",
"534 12 OFFCURVE",
"592 51 CURVE",
"593 129 OFFCURVE",
"601 227 OFFCURVE",
"608 249 CURVE SMOOTH",
"618 276 OFFCURVE",
"641 282 OFFCURVE",
"649 282 CURVE",
"654 343 LINE",
"566 340 OFFCURVE",
"521 341 OFFCURVE",
"438 344 CURVE",
"429 285 LINE",
"484 269 LINE",
"482 213 OFFCURVE",
"480 117 OFFCURVE",
"441 76 CURVE",
"322 57 OFFCURVE",
"216 114 OFFCURVE",
"194 271 CURVE SMOOTH",
"165 469 OFFCURVE",
"281 601 OFFCURVE",
"346 628 CURVE",
"428 622 OFFCURVE",
"512 573 OFFCURVE",
"538 536 CURVE",
"542 481 LINE",
"605 492 LINE",
"637 651 LINE",
"604 684 OFFCURVE",
"533 716 OFFCURVE",
"406 716 CURVE SMOOTH"
);
}
);
width = 676;
},
{
background = {
components = (
{
name = C;
}
);
};
layerId = "11343128-4963-4E5D-BE9C-B74F53B36FA5";
name = Bold;
paths = (
{
closed = 1;
nodes = (
"128 716 OFFCURVE",
"-13 489 OFFCURVE",
"43 235 CURVE SMOOTH",
"79 71 OFFCURVE",
"204 -5 OFFCURVE",
"322 -14 CURVE SMOOTH",
"456 -24 OFFCURVE",
"556 12 OFFCURVE",
"610 51 CURVE",
"604 129 OFFCURVE",
"604 227 OFFCURVE",
"609 249 CURVE SMOOTH",
"616 276 OFFCURVE",
"639 282 OFFCURVE",
"647 282 CURVE",
"646 343 LINE",
"559 340 OFFCURVE",
"514 341 OFFCURVE",
"430 344 CURVE",
"427 285 LINE",
"483 269 LINE",
"486 213 OFFCURVE",
"492 117 OFFCURVE",
"457 76 CURVE",
"339 57 OFFCURVE",
"227 114 OFFCURVE",
"192 271 CURVE SMOOTH",
"148 469 OFFCURVE",
"253 601 OFFCURVE",
"316 628 CURVE",
"397 622 OFFCURVE",
"485 573 OFFCURVE",
"515 536 CURVE",
"524 481 LINE",
"586 492 LINE",
"604 651 LINE",
"568 684 OFFCURVE",
"497 716 OFFCURVE",
"371 716 CURVE SMOOTH"
);
}
);
width = 676;
}
);
leftKerningGroup = O;
leftMetricsKey = O;
rightKerningGroup = I;
unicode = 0047;
},
{
glyphname = G.001;
lastChange = "2016-02-17 19:32:51 +0000";
layers = (
{
anchors = (
{
name = bottom;
position = "{307, 0}";
},
{
name = top;
position = "{359, 646}";
}
);
background = {
components = (
{
name = C;
}
);
};
layerId = "71FD7A9F-05F5-4D76-8D4F-547475A05E4C";
name = "Bold Italic";
paths = (
{
closed = 1;
nodes = (
"160 724 OFFCURVE",
"7 495 OFFCURVE",
"41 235 CURVE SMOOTH",
"64 64 OFFCURVE",
"180 -5 OFFCURVE",
"294 -14 CURVE SMOOTH",
"423 -24 OFFCURVE",
"535 12 OFFCURVE",
"590 51 CURVE",
"590 129 OFFCURVE",
"596 227 OFFCURVE",
"603 249 CURVE SMOOTH",
"612 276 OFFCURVE",
"634 282 OFFCURVE",
"642 282 CURVE",
"646 343 LINE",
"561 340 OFFCURVE",
"517 341 OFFCURVE",
"437 344 CURVE",
"429 285 LINE",
"482 269 LINE",
"481 213 OFFCURVE",
"481 117 OFFCURVE",
"444 76 CURVE",
"307 62 OFFCURVE",
"226 113 OFFCURVE",
"199 270 CURVE SMOOTH",
"163 489 OFFCURVE",
"267 598 OFFCURVE",
"330 625 CURVE",
"427 619 OFFCURVE",
"489 584 OFFCURVE",
"516 547 CURVE",
"521 492 LINE",
"586 502 LINE",
"611 640 LINE",
"579 673 OFFCURVE",
"511 718 OFFCURVE",
"394 720 CURVE SMOOTH"
);
}
);
width = 664;
},
{
layerId = "11343128-4963-4E5D-BE9C-B74F53B36FA5";
name = Bold;
width = 30;
}
);
leftKerningGroup = O;
leftMetricsKey = O;
rightKerningGroup = I;
rightMetricsKey = O;
},
{
glyphname = H;
lastChange = "2016-02-17 19:32:29 +0000";
layers = (
{
anchors = (
{
name = bottom;
position = "{350, 0}";
},
{
name = center;
position = "{393, 350}";
},
{
name = top;
position = "{394, 640}";
},
{
name = topleft;
position = "{96, 700}";
}
);
background = {
paths = (
{
closed = 1;
nodes = (
"573 671 OFFCURVE",
"502 732 OFFCURVE",
"336 696 CURVE SMOOTH",
"84 641 OFFCURVE",
"30 234 OFFCURVE",
"154 89 CURVE SMOOTH",
"225 6 OFFCURVE",
"307 -23 OFFCURVE",
"447 8 CURVE SMOOTH",
"680 60 OFFCURVE",
"748 458 OFFCURVE",
"619 615 CURVE SMOOTH"
);
},
{
closed = 1;
nodes = (
"351 77 OFFCURVE",
"302 104 OFFCURVE",
"268 179 CURVE SMOOTH",
"199 333 OFFCURVE",
"219 544 OFFCURVE",
"354 627 CURVE",
"411 627 OFFCURVE",
"470 609 OFFCURVE",
"508 522 CURVE SMOOTH",
"572 377 OFFCURVE",
"556 162 OFFCURVE",
"419 77 CURVE"
);
}
);
};
guideLines = (
{
position = "{1826, 733}";
}
);
layerId = "71FD7A9F-05F5-4D76-8D4F-547475A05E4C";
name = "Bold Italic";
paths = (
{
closed = 1;
nodes = (
"224 310 LINE",
"530 313 LINE",
"529 396 LINE",
"236 396 LINE"
);
},
{
closed = 1;
nodes = (
"89 700 LINE",
"80 645 LINE",
"134 634 LINE",
"144 609 OFFCURVE",
"137 534 OFFCURVE",
"126 407 CURVE SMOOTH",
"107 197 OFFCURVE",
"86 114 OFFCURVE",
"89 98 CURVE SMOOTH",
"92 86 OFFCURVE",
"107 71 OFFCURVE",
"135 65 CURVE",
"27 55 LINE",
"21 0 LINE",
"301 1 LINE",
"310 54 LINE",
"253 64 LINE",
"220 123 OFFCURVE",
"244 307 OFFCURVE",
"248 353 CURVE SMOOTH",
"262 510 OFFCURVE",
"276 589 OFFCURVE",
"291 610 CURVE SMOOTH",
"303 630 OFFCURVE",
"326 643 OFFCURVE",
"350 645 CURVE",
"355 700 LINE"
);
},
{
closed = 1;
nodes = (
"461 700 LINE",
"452 645 LINE",
"506 634 LINE",
"516 609 OFFCURVE",
"509 534 OFFCURVE",
"498 407 CURVE SMOOTH",
"479 197 OFFCURVE",
"458 114 OFFCURVE",
"461 98 CURVE SMOOTH",
"464 86 OFFCURVE",
"479 71 OFFCURVE",
"507 65 CURVE",
"399 55 LINE",
"393 0 LINE",
"673 1 LINE",
"682 54 LINE",
"625 64 LINE",
"592 123 OFFCURVE",
"616 307 OFFCURVE",
"620 353 CURVE SMOOTH",
"634 510 OFFCURVE",
"648 589 OFFCURVE",
"663 610 CURVE SMOOTH",
"675 630 OFFCURVE",
"698 643 OFFCURVE",
"722 645 CURVE",
"727 700 LINE"
);
}
);
width = 727;
},
{
layerId = "11343128-4963-4E5D-BE9C-B74F53B36FA5";
name = Bold;
paths = (
{
closed = 1;
nodes = (
"212 310 LINE",
"518 313 LINE",
"509 396 LINE",
"216 396 LINE"
);
},
{
closed = 1;
nodes = (
"43 700 LINE",
"38 645 LINE",
"93 634 LINE",
"105 609 OFFCURVE",
"105 534 OFFCURVE",
"105 407 CURVE SMOOTH",
"105 197 OFFCURVE",
"90 114 OFFCURVE",
"95 98 CURVE SMOOTH",
"99 86 OFFCURVE",
"115 71 OFFCURVE",
"144 65 CURVE",
"37 55 LINE",
"35 0 LINE",
"315 1 LINE",
"320 54 LINE",
"262 64 LINE",
"224 123 OFFCURVE",
"232 307 OFFCURVE",
"232 353 CURVE SMOOTH",
"232 510 OFFCURVE",
"239 589 OFFCURVE",
"252 610 CURVE SMOOTH",
"262 630 OFFCURVE",
"285 643 OFFCURVE",
"308 645 CURVE",
"309 700 LINE"
);
},
{
closed = 1;
nodes = (
"415 700 LINE",
"410 645 LINE",
"465 634 LINE",
"477 609 OFFCURVE",
"477 534 OFFCURVE",
"477 407 CURVE SMOOTH",
"477 197 OFFCURVE",
"462 114 OFFCURVE",
"467 98 CURVE SMOOTH",
"471 86 OFFCURVE",
"487 71 OFFCURVE",
"516 65 CURVE",
"409 55 LINE",
"407 0 LINE",
"687 1 LINE",
"692 54 LINE",
"634 64 LINE",
"596 123 OFFCURVE",
"604 307 OFFCURVE",
"604 353 CURVE SMOOTH",
"604 510 OFFCURVE",
"611 589 OFFCURVE",
"624 610 CURVE SMOOTH",
"634 630 OFFCURVE",
"657 643 OFFCURVE",
"680 645 CURVE",
"681 700 LINE"
);
}
);
width = 722;
}
);
leftKerningGroup = I;
leftMetricsKey = I;
rightKerningGroup = I;
rightMetricsKey = I;
unicode = 0048;
},
{
glyphname = H.001;
lastChange = "2016-02-17 19:32:51 +0000";
layers = (
{
anchors = (
{
name = bottom;
position = "{337, 0}";
},
{
name = center;
position = "{374, 350}";
},
{
name = top;
position = "{370, 640}";
},
{
name = topleft;
position = "{71, 700}";
}
);
background = {
paths = (
{
closed = 1;
nodes = (
"554 671 OFFCURVE",
"483 732 OFFCURVE",
"317 696 CURVE SMOOTH",
"65 641 OFFCURVE",
"11 234 OFFCURVE",
"135 89 CURVE SMOOTH",
"206 6 OFFCURVE",
"288 -23 OFFCURVE",
"428 8 CURVE SMOOTH",
"661 60 OFFCURVE",
"729 458 OFFCURVE",
"600 615 CURVE SMOOTH"
);
},
{
closed = 1;
nodes = (
"332 77 OFFCURVE",
"283 104 OFFCURVE",
"249 179 CURVE SMOOTH",
"180 333 OFFCURVE",
"200 544 OFFCURVE",
"335 627 CURVE",
"392 627 OFFCURVE",
"451 609 OFFCURVE",
"489 522 CURVE SMOOTH",
"553 377 OFFCURVE",
"537 162 OFFCURVE",
"400 77 CURVE"
);
}
);
};
guideLines = (
{
position = "{1807, 733}";
}
);
layerId = "71FD7A9F-05F5-4D76-8D4F-547475A05E4C";
name = "Bold Italic";
paths = (
{
closed = 1;
nodes = (
"88 700 LINE",
"80 646 LINE",
"126 637 LINE",
"137 612 OFFCURVE",
"129 480 OFFCURVE",
"119 348 CURVE SMOOTH",
"109 212 OFFCURVE",
"91 113 OFFCURVE",
"94 97 CURVE SMOOTH",
"96 88 OFFCURVE",
"113 75 OFFCURVE",
"153 59 CURVE",
"35 59 LINE",
"32 0 LINE",
"307 0 LINE",
"314 56 LINE",
"259 64 LINE",
"229 113 OFFCURVE",
"231 212 OFFCURVE",
"240 349 CURVE SMOOTH",
"249 480 OFFCURVE",
"267 591 OFFCURVE",
"278 613 CURVE SMOOTH",
"290 633 OFFCURVE",
"307 641 OFFCURVE",
"330 643 CURVE",
"334 699 LINE"
);
},
{
closed = 1;
nodes = (
"460 700 LINE",
"450 645 LINE",
"496 636 LINE",
"507 611 OFFCURVE",
"499 480 OFFCURVE",
"491 354 CURVE SMOOTH",
"482 219 OFFCURVE",
"462 112 OFFCURVE",
"466 96 CURVE SMOOTH",
"467 87 OFFCURVE",
"484 74 OFFCURVE",
"524 58 CURVE",
"413 58 LINE",
"410 0 LINE",
"674 0 LINE",
"681 55 LINE",
"625 63 LINE",
"600 105 OFFCURVE",
"604 219 OFFCURVE",
"611 351 CURVE SMOOTH",
"618 480 OFFCURVE",
"632 590 OFFCURVE",
"643 612 CURVE SMOOTH",
"655 632 OFFCURVE",
"670 640 OFFCURVE",
"693 642 CURVE",
"699 699 LINE"
);
},
{
closed = 1;
nodes = (
"220 310 LINE",
"526 313 LINE",
"523 396 LINE",
"230 396 LINE"
);
}
);
width = 725;
},
{
layerId = "11343128-4963-4E5D-BE9C-B74F53B36FA5";
name = Bold;
width = 30;
}
);
leftKerningGroup = I;
leftMetricsKey = I;
rightKerningGroup = I;
rightMetricsKey = I;
},
{
glyphname = I;
lastChange = "2016-02-17 19:12:16 +0000";
layers = (
{
anchors = (
{
name = bottom;
position = "{212, 0}";
},
{
name = ogonek;
position = "{319, 10}";
},
{
name = top;
position = "{267, 648}";
},
{
name = topleft;
position = "{148, 700}";
}
);
background = {
paths = (
{
closed = 1;
nodes = (
"527 175 LINE",
"524 172 OFFCURVE",
"514 96 OFFCURVE",
"455 74 CURVE SMOOTH",
"412 58 OFFCURVE",
"355 58 OFFCURVE",
"304 61 CURVE",
"286 150 OFFCURVE",
"297 278 OFFCURVE",
"314 433 CURVE SMOOTH",
"322 505 OFFCURVE",
"332 614 OFFCURVE",
"361 637 CURVE SMOOTH",
"378 650 OFFCURVE",
"395 649 OFFCURVE",
"402 650 CURVE",
"407 700 LINE",
"302 697 OFFCURVE",
"245 697 OFFCURVE",
"147 700 CURVE",
"143 650 LINE",
"154 650 OFFCURVE",
"172 646 OFFCURVE",
"183 634 CURVE SMOOTH",
"207 608 OFFCURVE",
"195 510 OFFCURVE",
"185 418 CURVE SMOOTH",
"172 299 OFFCURVE",
"141 102 OFFCURVE",
"143 88 CURVE SMOOTH",
"147 77 OFFCURVE",
"163 67 OFFCURVE",
"199 51 CURVE",
"80 53 LINE",
"74 0 LINE",
"236 4 OFFCURVE",
"296 4 OFFCURVE",
"551 0 CURVE",
"561 89 OFFCURVE",
"575 159 OFFCURVE",
"576 165 CURVE"
);
}
);
};
layerId = "71FD7A9F-05F5-4D76-8D4F-547475A05E4C";
name = "Bold Italic";
paths = (
{
closed = 1;
nodes = (
"89 700 LINE",
"80 645 LINE",
"134 634 LINE",
"144 609 OFFCURVE",
"137 534 OFFCURVE",
"126 407 CURVE SMOOTH",
"107 197 OFFCURVE",
"86 114 OFFCURVE",
"89 98 CURVE SMOOTH",
"92 86 OFFCURVE",
"107 71 OFFCURVE",
"135 65 CURVE",
"27 55 LINE",
"21 0 LINE",
"300 1 LINE",
"309 54 LINE",
"252 64 LINE",
"219 123 OFFCURVE",
"243 307 OFFCURVE",
"247 353 CURVE SMOOTH",
"261 510 OFFCURVE",
"275 589 OFFCURVE",
"290 610 CURVE SMOOTH",
"302 630 OFFCURVE",
"325 643 OFFCURVE",
"349 645 CURVE",
"354 700 LINE"
);
}
);
width = 354;
},
{
guideLines = (
{
angle = 90;
position = "{-6, 101}";
}
);
layerId = "11343128-4963-4E5D-BE9C-B74F53B36FA5";
name = Bold;
paths = (
{
closed = 1;
nodes = (
"43 700 LINE",
"38 645 LINE",
"93 634 LINE",
"105 609 OFFCURVE",
"105 534 OFFCURVE",
"105 407 CURVE SMOOTH",
"105 197 OFFCURVE",
"90 114 OFFCURVE",
"95 98 CURVE SMOOTH",
"99 86 OFFCURVE",
"115 71 OFFCURVE",
"144 65 CURVE",
"37 55 LINE",
"35 0 LINE",
"316 1 LINE",
"321 54 LINE",
"263 64 LINE",
"225 123 OFFCURVE",
"233 307 OFFCURVE",
"233 353 CURVE SMOOTH",
"233 510 OFFCURVE",
"240 589 OFFCURVE",
"253 610 CURVE SMOOTH",
"263 630 OFFCURVE",
"286 643 OFFCURVE",
"309 645 CURVE",
"310 700 LINE"
);
}
);
width = 351;
}
);
leftKerningGroup = I;
rightKerningGroup = I;
unicode = 0049;
},
{
glyphname = I.001;
lastChange = "2015-12-01 10:14:33 +0000";
layers = (
{
anchors = (
{
name = bottom;
position = "{149, 0}";
},
{
name = ogonek;
position = "{256, 10}";
},
{
name = top;
position = "{193, 648}";
},
{
name = topleft;
position = "{73, 700}";
}
);
background = {
paths = (
{
closed = 1;
nodes = (
"458 175 LINE",
"455 172 OFFCURVE",
"445 96 OFFCURVE",
"386 74 CURVE SMOOTH",
"343 58 OFFCURVE",
"286 58 OFFCURVE",
"235 61 CURVE",
"217 150 OFFCURVE",
"228 278 OFFCURVE",
"245 433 CURVE SMOOTH",
"253 505 OFFCURVE",
"263 614 OFFCURVE",
"292 637 CURVE SMOOTH",
"309 650 OFFCURVE",
"326 649 OFFCURVE",
"333 650 CURVE",
"338 700 LINE",
"233 697 OFFCURVE",
"176 697 OFFCURVE",
"78 700 CURVE",
"74 650 LINE",
"85 650 OFFCURVE",
"103 646 OFFCURVE",
"114 634 CURVE SMOOTH",
"138 608 OFFCURVE",
"126 510 OFFCURVE",
"116 418 CURVE SMOOTH",
"103 299 OFFCURVE",
"72 102 OFFCURVE",
"74 88 CURVE SMOOTH",
"78 77 OFFCURVE",
"94 67 OFFCURVE",
"130 51 CURVE",
"11 53 LINE",
"5 0 LINE",
"167 4 OFFCURVE",
"227 4 OFFCURVE",
"482 0 CURVE",
"492 89 OFFCURVE",
"506 159 OFFCURVE",
"507 165 CURVE"
);
}
);
};
layerId = "71FD7A9F-05F5-4D76-8D4F-547475A05E4C";
name = "Bold Italic";
paths = (
{
closed = 1;
nodes = (
"81 700 LINE",
"72 643 LINE",
"118 634 LINE",
"128 609 OFFCURVE",
"125 501 OFFCURVE",
"114 410 CURVE SMOOTH",
"98 275 OFFCURVE",
"76 114 OFFCURVE",
"81 98 CURVE SMOOTH",
"81 89 OFFCURVE",
"88 72 OFFCURVE",
"126 60 CURVE",
"20 60 LINE",
"14 0 LINE",
"296 1 LINE",
"302 58 LINE",
"246 66 LINE",
"212 125 OFFCURVE",
"227 313 OFFCURVE",
"238 435 CURVE SMOOTH",
"248 548 OFFCURVE",
"261 589 OFFCURVE",
"275 610 CURVE SMOOTH",
"287 630 OFFCURVE",
"304 639 OFFCURVE",
"327 641 CURVE",
"333 701 LINE"
);
}
);
width = 346;
},
{
layerId = "11343128-4963-4E5D-BE9C-B74F53B36FA5";
name = Bold;
width = 600;
}
);
leftKerningGroup = I;
rightKerningGroup = I;
},
{
glyphname = J;
lastChange = "2016-02-17 19:32:29 +0000";
layers = (
{
anchors = (
{
name = bottom;
position = "{103, 0}";
},
{
name = top;
position = "{181, 644}";
}
);
background = {
components = (
{
name = I;
}
);
};
guideLines = (
{
position = "{1308, 737}";
}
);
layerId = "71FD7A9F-05F5-4D76-8D4F-547475A05E4C";
name = "Bold Italic";
paths = (
{
closed = 1;
nodes = (
"58 700 LINE",
"48 643 LINE",
"102 634 LINE",
"113 609 OFFCURVE",
"104 489 OFFCURVE",
"99 429 CURVE",
"67 30 OFFCURVE",
"47 -37 OFFCURVE",
"12 -97 CURVE",
"-6 -95 OFFCURVE",
"-24 -87 OFFCURVE",
"-39 -78 CURVE",
"-64 -134 LINE",
"-43 -153 OFFCURVE",
"-14 -167 OFFCURVE",
"6 -174 CURVE",
"121 -146 OFFCURVE",
"185 -56 OFFCURVE",
"196 67 CURVE SMOOTH",
"226 384 OFFCURVE",
"242 588 OFFCURVE",
"256 610 CURVE SMOOTH",
"268 630 OFFCURVE",
"291 638 OFFCURVE",
"314 640 CURVE",
"320 699 LINE"
);
}
);
width = 297;
},
{
background = {
components = (
{
name = I;
transform = "{1, 0, 0, 1, -5, 0}";
}
);
};
guideLines = (
{
position = "{-181, -204}";
}
);
layerId = "11343128-4963-4E5D-BE9C-B74F53B36FA5";
name = Bold;
paths = (
{
closed = 1;
nodes = (
"32 700 LINE",
"27 645 LINE",
"81 635 LINE",
"94 610 OFFCURVE",
"90 269 OFFCURVE",
"90 209 CURVE",
"90 -39 OFFCURVE",
"65 -115 OFFCURVE",
"25 -163 CURVE",
"62 -206 LINE",
"161 -145 OFFCURVE",
"218 -31 OFFCURVE",
"218 275 CURVE SMOOTH",
"218 441 OFFCURVE",
"216 587 OFFCURVE",
"226 610 CURVE SMOOTH",
"235 630 OFFCURVE",
"251 645 OFFCURVE",
"282 645 CURVE",
"283 699 LINE"
);
}
);
width = 313;
}
);
leftKerningGroup = I;
rightKerningGroup = I;
rightMetricsKey = I;
unicode = 004A;
},
{
glyphname = J.001;
lastChange = "2015-12-01 10:14:33 +0000";
layers = (
{
anchors = (
{
name = bottom;
position = "{117, 0}";
},
{
name = top;
position = "{184, 644}";
}
);
background = {
paths = (
{
closed = 1;
nodes = (
"190 504 OFFCURVE",
"107 515 OFFCURVE",
"76 512 CURVE",
"66 471 LINE",
"102 442 LINE",
"105 430 OFFCURVE",
"107 394 OFFCURVE",
"106 371 CURVE SMOOTH",
"104 335 OFFCURVE",
"99 226 OFFCURVE",
"95 179 CURVE",
"66 -23 OFFCURVE",
"51 -66 OFFCURVE",
"30 -94 CURVE",
"18 -94 OFFCURVE",
"4 -88 OFFCURVE",
"-20 -74 CURVE",
"-37 -118 LINE",
"-13 -138 OFFCURVE",
"15 -152 OFFCURVE",
"34 -158 CURVE",
"141 -132 OFFCURVE",
"171 -78 OFFCURVE",
"195 148 CURVE",
"208 282 OFFCURVE",
"232 463 OFFCURVE",
"230 487 CURVE"
);
}
);
};
guideLines = (
{
position = "{1316, 737}";
}
);
layerId = "71FD7A9F-05F5-4D76-8D4F-547475A05E4C";
name = "Bold Italic";
paths = (
{
closed = 1;
nodes = (
"72 700 LINE",
"63 643 LINE",
"111 634 LINE",
"122 609 OFFCURVE",
"116 489 OFFCURVE",
"112 429 CURVE",
"76 46 OFFCURVE",
"62 -21 OFFCURVE",
"28 -81 CURVE",
"10 -79 OFFCURVE",
"-8 -71 OFFCURVE",
"-24 -62 CURVE",
"-48 -118 LINE",
"-26 -137 OFFCURVE",
"3 -151 OFFCURVE",
"23 -158 CURVE",
"138 -130 OFFCURVE",
"194 -40 OFFCURVE",
"203 83 CURVE SMOOTH",
"227 400 OFFCURVE",
"246 588 OFFCURVE",
"259 610 CURVE SMOOTH",
"271 630 OFFCURVE",
"286 638 OFFCURVE",
"309 640 CURVE",
"314 699 LINE"
);
}
);
width = 299;
},
{
layerId = "11343128-4963-4E5D-BE9C-B74F53B36FA5";
name = Bold;
width = 600;
}
);
leftKerningGroup = I;
rightKerningGroup = I;
},
{
glyphname = K;
lastChange = "2016-02-17 19:32:29 +0000";
layers = (
{
layerId = "71FD7A9F-05F5-4D76-8D4F-547475A05E4C";
name = "Bold Italic";
paths = (
{
closed = 1;
nodes = (
"458 578 OFFCURVE",
"272 354 OFFCURVE",
"191 266 CURVE",
"232 208 LINE",
"373 359 LINE",
"455 452 OFFCURVE",
"565 577 OFFCURVE",
"592 606 CURVE SMOOTH",
"618 630 OFFCURVE",
"650 645 OFFCURVE",
"677 645 CURVE",
"684 700 LINE",
"453 700 LINE",
"442 645 LINE",
"493 636 LINE"
);
},
{
closed = 1;
nodes = (
"90 700 LINE",
"80 645 LINE",
"135 634 LINE",
"146 609 OFFCURVE",
"138 534 OFFCURVE",
"127 407 CURVE SMOOTH",
"108 197 OFFCURVE",
"87 114 OFFCURVE",
"91 98 CURVE SMOOTH",
"92 86 OFFCURVE",
"107 71 OFFCURVE",
"136 65 CURVE",
"29 55 LINE",
"22 0 LINE",
"303 1 LINE",
"312 54 LINE",
"255 64 LINE",
"222 123 OFFCURVE",
"246 307 OFFCURVE",
"250 353 CURVE SMOOTH",
"264 510 OFFCURVE",
"278 589 OFFCURVE",
"294 610 CURVE SMOOTH",
"305 630 OFFCURVE",
"328 643 OFFCURVE",
"351 645 CURVE",
"357 700 LINE"
);
},
{
closed = 1;
nodes = (
"334 352 LINE",
"341 272 OFFCURVE",
"417 52 OFFCURVE",
"443 32 CURVE SMOOTH",
"452 25 OFFCURVE",
"519 -3 OFFCURVE",
"572 -3 CURVE",
"607 5 OFFCURVE",
"644 26 OFFCURVE",
"649 29 CURVE",
"636 82 LINE",
"616 74 OFFCURVE",
"602 73 OFFCURVE",
"591 71 CURVE",
"539 127 OFFCURVE",
"444 326 OFFCURVE",
"421 425 CURVE"
);
}
);
width = 657;
},
{
background = {
components = (
{
name = V;
transform = "{-1, 0, 0, -1, 725, 700}";
}
);
};
guideLines = (
{
position = "{-266, 248}";
}
);
layerId = "11343128-4963-4E5D-BE9C-B74F53B36FA5";
name = Bold;
paths = (
{
closed = 1;
nodes = (
"419 578 OFFCURVE",
"255 346 OFFCURVE",
"182 258 CURVE",
"226 197 LINE",
"356 359 LINE",
"429 452 OFFCURVE",
"532 577 OFFCURVE",
"558 606 CURVE SMOOTH",
"580 630 OFFCURVE",
"612 645 OFFCURVE",
"639 645 CURVE",
"641 700 LINE",
"404 700 LINE",
"398 645 LINE",
"449 636 LINE"
);
},
{
closed = 1;
nodes = (
"43 700 LINE",
"38 645 LINE",
"93 634 LINE",
"105 609 OFFCURVE",
"105 534 OFFCURVE",
"105 407 CURVE SMOOTH",
"105 197 OFFCURVE",
"90 114 OFFCURVE",
"95 98 CURVE SMOOTH",
"99 86 OFFCURVE",
"115 71 OFFCURVE",
"144 65 CURVE",
"37 55 LINE",
"35 0 LINE",
"316 1 LINE",
"321 54 LINE",
"263 64 LINE",
"225 123 OFFCURVE",
"233 307 OFFCURVE",
"233 353 CURVE SMOOTH",
"233 510 OFFCURVE",
"240 589 OFFCURVE",
"253 610 CURVE SMOOTH",
"263 630 OFFCURVE",
"286 643 OFFCURVE",
"309 645 CURVE",
"310 700 LINE"
);
},
{
closed = 1;
nodes = (
"307 339 LINE",
"369 238 OFFCURVE",
"451 69 OFFCURVE",
"500 0 CURVE",
"677 0 LINE",
"682 55 LINE",
"641 57 OFFCURVE",
"619 70 OFFCURVE",
"582 122 CURVE SMOOTH",
"524 203 OFFCURVE",
"415 388 OFFCURVE",
"383 445 CURVE"
);
}
);
width = 687;
}
);
leftKerningGroup = I;
leftMetricsKey = I;
rightKerningGroup = X;
unicode = 004B;
},
{
glyphname = K.001;
lastChange = "2016-02-17 19:32:51 +0000";
layers = (
{
background = {
paths = (
{
closed = 1;
nodes = (
"88 700 LINE",
"83 653 LINE",
"129 644 LINE",
"140 619 OFFCURVE",
"128 480 OFFCURVE",
"114 348 CURVE SMOOTH",
"100 212 OFFCURVE",
"79 104 OFFCURVE",
"81 88 CURVE SMOOTH",
"82 79 OFFCURVE",
"99 66 OFFCURVE",
"139 50 CURVE",
"21 50 LINE",
"16 0 LINE",
"297 0 LINE",
"301 47 LINE",
"245 55 LINE",
"217 104 OFFCURVE",
"221 212 OFFCURVE",
"235 349 CURVE SMOOTH",
"248 480 OFFCURVE",
"268 598 OFFCURVE",
"281 620 CURVE SMOOTH",
"293 640 OFFCURVE",
"310 648 OFFCURVE",
"333 650 CURVE",
"338 699 LINE"
);
},
{
closed = 1;
nodes = (
"459 700 LINE",
"454 653 LINE",
"500 644 LINE",
"511 619 OFFCURVE",
"498 480 OFFCURVE",
"486 354 CURVE SMOOTH",
"473 219 OFFCURVE",
"450 104 OFFCURVE",
"452 88 CURVE SMOOTH",
"453 79 OFFCURVE",
"470 66 OFFCURVE",
"510 50 CURVE",
"399 50 LINE",
"394 0 LINE",
"668 0 LINE",
"672 47 LINE",
"616 55 LINE",
"593 97 OFFCURVE",
"600 219 OFFCURVE",
"611 351 CURVE SMOOTH",
"622 480 OFFCURVE",
"639 598 OFFCURVE",
"652 620 CURVE SMOOTH",
"664 640 OFFCURVE",
"679 648 OFFCURVE",
"702 650 CURVE",
"707 699 LINE"
);
},
{
closed = 1;
nodes = (
"213 308 LINE",
"519 314 LINE",
"520 396 LINE",
"227 396 LINE"
);
}
);
};
layerId = "71FD7A9F-05F5-4D76-8D4F-547475A05E4C";
name = "Bold Italic";
paths = (
{
closed = 1;
nodes = (
"321 352 LINE",
"329 272 OFFCURVE",
"409 52 OFFCURVE",
"436 32 CURVE SMOOTH",
"445 25 OFFCURVE",
"512 -3 OFFCURVE",
"565 -3 CURVE",
"600 5 OFFCURVE",
"637 26 OFFCURVE",
"642 29 CURVE",
"628 82 LINE",
"608 74 OFFCURVE",
"594 73 OFFCURVE",
"583 71 CURVE",
"530 127 OFFCURVE",
"431 326 OFFCURVE",
"407 425 CURVE"
);
},
{
closed = 1;
nodes = (
"89 700 LINE",
"79 644 LINE",
"125 635 LINE",
"136 610 OFFCURVE",
"130 487 OFFCURVE",
"125 427 CURVE SMOOTH",
"113 292 OFFCURVE",
"85 113 OFFCURVE",
"88 97 CURVE SMOOTH",
"89 88 OFFCURVE",
"97 71 OFFCURVE",
"135 59 CURVE",
"28 59 LINE",
"24 0 LINE",
"305 0 LINE",
"312 56 LINE",
"256 64 LINE",
"221 123 OFFCURVE",
"241 286 OFFCURVE",
"252 408 CURVE SMOOTH",
"262 521 OFFCURVE",
"269 589 OFFCURVE",
"281 611 CURVE SMOOTH",
"293 631 OFFCURVE",
"310 639 OFFCURVE",
"333 641 CURVE",
"339 699 LINE"
);
},
{
closed = 1;
nodes = (
"456 575 OFFCURVE",
"312 400 OFFCURVE",
"233 312 CURVE",
"230 187 LINE",
"389 372 LINE",
"468 465 OFFCURVE",
"558 577 OFFCURVE",
"586 606 CURVE SMOOTH",
"610 630 OFFCURVE",
"634 641 OFFCURVE",
"661 641 CURVE",
"667 700 LINE",
"445 700 LINE",
"435 642 LINE",
"485 633 LINE"
);
}
);
width = 654;
},
{
layerId = "11343128-4963-4E5D-BE9C-B74F53B36FA5";
name = Bold;
width = 0;
}
);
leftKerningGroup = I;
leftMetricsKey = I;
rightKerningGroup = X;
},
{
glyphname = L;
lastChange = "2016-02-17 19:32:29 +0000";
layers = (
{
anchors = (
{
name = bottom;
position = "{258, 0}";
},
{
name = center;
position = "{200, 370}";
},
{
name = top;
position = "{231, 662}";
},
{
name = topright;
position = "{585, 700}";
}
);
background = {
paths = (
{
closed = 1;
nodes = (
"83 700 LINE",
"75 653 LINE",
"125 642 LINE",
"136 602 OFFCURVE",
"129 484 OFFCURVE",
"126 427 CURVE SMOOTH",
"117 249 OFFCURVE",
"92 101 OFFCURVE",
"95 88 CURVE SMOOTH",
"99 74 OFFCURVE",
"137 56 OFFCURVE",
"156 50 CURVE",
"36 51 LINE",
"33 0 LINE",
"531 -1 LINE",
"558 163 LINE",
"513 173 LINE",
"509 166 OFFCURVE",
"504 115 OFFCURVE",
"441 94 CURVE SMOOTH",
"402 81 OFFCURVE",
"335 80 OFFCURVE",
"261 81 CURVE",
"231 114 OFFCURVE",
"239 228 OFFCURVE",
"247 331 CURVE",
"369 325 LINE",
"380 279 LINE",
"420 282 LINE",
"425 325 OFFCURVE",
"432 410 OFFCURVE",
"417 410 CURVE SMOOTH",
"409 410 OFFCURVE",
"246 404 OFFCURVE",
"252 404 CURVE",
"253 455 OFFCURVE",
"269 569 OFFCURVE",
"280 613 CURVE",
"395 613 LINE",
"489 610 OFFCURVE",
"518 580 OFFCURVE",
"526 527 CURVE",
"573 537 LINE",
"555 699 LINE"
);
}
);
};
guideLines = (
{
angle = -12;
position = "{478, 184}";
}
);
layerId = "71FD7A9F-05F5-4D76-8D4F-547475A05E4C";
name = "Bold Italic";
paths = (
{
closed = 1;
nodes = (
"145 0 LINE",
"530 0 LINE",
"541 89 OFFCURVE",
"555 159 OFFCURVE",
"556 165 CURVE",
"494 174 LINE",
"455 97 LINE",
"412 82 OFFCURVE",
"291 78 OFFCURVE",
"254 84 CURVE",
"165 54 LINE"
);
},
{
closed = 1;
nodes = (
"89 700 LINE",
"80 645 LINE",
"134 634 LINE",
"144 609 OFFCURVE",
"137 534 OFFCURVE",
"126 407 CURVE SMOOTH",
"107 197 OFFCURVE",
"86 114 OFFCURVE",
"89 98 CURVE SMOOTH",
"92 86 OFFCURVE",
"107 71 OFFCURVE",
"135 65 CURVE",
"27 55 LINE",
"21 0 LINE",
"302 1 LINE",
"311 54 LINE",
"254 64 LINE",
"221 123 OFFCURVE",
"245 307 OFFCURVE",
"249 353 CURVE SMOOTH",
"263 510 OFFCURVE",
"277 589 OFFCURVE",
"292 610 CURVE SMOOTH",
"304 630 OFFCURVE",
"327 643 OFFCURVE",
"351 645 CURVE",
"356 700 LINE"
);
}
);
width = 555;
},
{
layerId = "11343128-4963-4E5D-BE9C-B74F53B36FA5";
name = Bold;
paths = (
{
closed = 1;
nodes = (
"159 0 LINE",
"544 0 LINE",
"548 89 OFFCURVE",
"555 159 OFFCURVE",
"556 165 CURVE",
"493 174 LINE",
"461 97 LINE",
"420 82 OFFCURVE",
"299 78 OFFCURVE",
"262 84 CURVE",
"175 54 LINE"
);
},
{
closed = 1;
nodes = (
"43 700 LINE",
"38 645 LINE",
"93 634 LINE",
"105 609 OFFCURVE",
"105 534 OFFCURVE",
"105 407 CURVE SMOOTH",
"105 197 OFFCURVE",
"90 114 OFFCURVE",
"95 98 CURVE SMOOTH",
"99 86 OFFCURVE",
"115 71 OFFCURVE",
"144 65 CURVE",
"37 55 LINE",
"35 0 LINE",
"316 1 LINE",
"321 54 LINE",
"263 64 LINE",
"225 123 OFFCURVE",
"233 307 OFFCURVE",
"233 353 CURVE SMOOTH",
"233 510 OFFCURVE",
"240 589 OFFCURVE",
"253 610 CURVE SMOOTH",
"263 630 OFFCURVE",
"286 643 OFFCURVE",
"309 645 CURVE",
"310 700 LINE"
);
}
);
width = 563;
}
);
leftKerningGroup = I;
leftMetricsKey = I;
rightKerningGroup = L;
unicode = 004C;
},
{
glyphname = L.001;
lastChange = "2016-02-17 19:32:51 +0000";
layers = (
{
anchors = (
{
name = bottom;
position = "{245, 0}";
},
{
name = center;
position = "{181, 370}";
},
{
name = top;
position = "{207, 662}";
},
{
name = topright;
position = "{560, 700}";
}
);
background = {
paths = (
{
closed = 1;
nodes = (
"64 700 LINE",
"56 653 LINE",
"106 642 LINE",
"117 602 OFFCURVE",
"110 484 OFFCURVE",
"107 427 CURVE SMOOTH",
"98 249 OFFCURVE",
"73 101 OFFCURVE",
"76 88 CURVE SMOOTH",
"80 74 OFFCURVE",
"118 56 OFFCURVE",
"137 50 CURVE",
"17 51 LINE",
"14 0 LINE",
"512 -1 LINE",
"539 163 LINE",
"494 173 LINE",
"490 166 OFFCURVE",
"485 115 OFFCURVE",
"422 94 CURVE SMOOTH",
"383 81 OFFCURVE",
"316 80 OFFCURVE",
"242 81 CURVE",
"212 114 OFFCURVE",
"220 228 OFFCURVE",
"228 331 CURVE",
"350 325 LINE",
"361 279 LINE",
"401 282 LINE",
"406 325 OFFCURVE",
"413 410 OFFCURVE",
"398 410 CURVE SMOOTH",
"390 410 OFFCURVE",
"227 404 OFFCURVE",
"233 404 CURVE",
"234 455 OFFCURVE",
"250 569 OFFCURVE",
"261 613 CURVE",
"376 613 LINE",
"470 610 OFFCURVE",
"499 580 OFFCURVE",
"507 527 CURVE",
"554 537 LINE",
"536 699 LINE"
);
}
);
};
guideLines = (
{
angle = -12;
position = "{459, 184}";
}
);
layerId = "71FD7A9F-05F5-4D76-8D4F-547475A05E4C";
name = "Bold Italic";
paths = (
{
closed = 1;
nodes = (
"474 174 LINE",
"436 97 LINE",
"397 83 OFFCURVE",
"291 79 OFFCURVE",
"246 83 CURVE",
"236 121 OFFCURVE",
"236 275 OFFCURVE",
"250 433 CURVE SMOOTH",
"257 513 OFFCURVE",
"261 601 OFFCURVE",
"290 627 CURVE SMOOTH",
"301 637 OFFCURVE",
"320 643 OFFCURVE",
"331 643 CURVE",
"335 700 LINE",
"87 700 LINE",
"79 643 LINE",
"126 634 LINE",
"135 601 OFFCURVE",
"131 510 OFFCURVE",
"123 418 CURVE SMOOTH",
"110 282 OFFCURVE",
"84 116 OFFCURVE",
"88 96 CURVE SMOOTH",
"90 87 OFFCURVE",
"97 81 OFFCURVE",
"146 59 CURVE",
"29 59 LINE",
"25 0 LINE",
"513 0 LINE",
"523 89 OFFCURVE",
"535 159 OFFCURVE",
"536 165 CURVE"
);
}
);
width = 532;
},
{
layerId = "11343128-4963-4E5D-BE9C-B74F53B36FA5";
name = Bold;
width = 0;
}
);
leftKerningGroup = I;
leftMetricsKey = I;
rightKerningGroup = L;
},
{
glyphname = M;
lastChange = "2016-02-17 19:11:32 +0000";
layers = (
{
layerId = "71FD7A9F-05F5-4D76-8D4F-547475A05E4C";
name = "Bold Italic";
paths = (
{
closed = 1;
nodes = (
"239 468 LINE",
"278 317 OFFCURVE",
"367 3 OFFCURVE",
"370 -3 CURVE",
"458 161 LINE",
"452 180 OFFCURVE",
"367 520 OFFCURVE",
"325 700 CURVE",
"320 695 LINE",
"323 700 LINE",
"182 635 LINE"
);
},
{
closed = 1;
nodes = (
"530 147 OFFCURVE",
"630 361 OFFCURVE",
"669 455 CURVE",
"668 190 OFFCURVE",
"673 119 OFFCURVE",
"673 104 CURVE SMOOTH",
"672 88 OFFCURVE",
"688 75 OFFCURVE",
"716 65 CURVE",
"609 55 LINE",
"603 0 LINE",
"867 0 LINE",
"878 55 LINE",
"823 65 LINE",
"800 150 OFFCURVE",
"804 453 OFFCURVE",
"802 584 CURVE SMOOTH",
"802 628 OFFCURVE",
"835 645 OFFCURVE",
"862 645 CURVE",
"869 700 LINE",
"670 700 LINE",
"581 454 OFFCURVE",
"502 280 OFFCURVE",
"442 146 CURVE",
"419 87 OFFCURVE",
"396 56 OFFCURVE",
"370 -3 CURVE",
"468 4 LINE"
);
},
{
closed = 1;
nodes = (
"177 98 OFFCURVE",
"233 382 OFFCURVE",
"254 541 CURVE",
"270 596 OFFCURVE",
"301 680 OFFCURVE",
"325 700 CURVE",
"135 700 LINE",
"124 646 LINE",
"180 635 LINE",
"140 380 OFFCURVE",
"105 173 OFFCURVE",
"92 130 CURVE SMOOTH",
"73 70 OFFCURVE",
"33 56 OFFCURVE",
"7 56 CURVE",
"-1 0 LINE",
"237 0 LINE",
"248 55 LINE",
"189 64 LINE"
);
}
);
width = 922;
},
{
background = {
components = (
{
name = V;
},
{
name = I;
transform = "{1, 0, 0, 1, 702, 0}";
}
);
};
guideLines = (
{
position = "{679, 454}";
}
);
layerId = "11343128-4963-4E5D-BE9C-B74F53B36FA5";
name = Bold;
paths = (
{
closed = 1;
nodes = (
"221 468 LINE",
"273 317 OFFCURVE",
"388 6 OFFCURVE",
"391 0 CURVE",
"466 161 LINE",
"459 180 OFFCURVE",
"344 520 OFFCURVE",
"287 700 CURVE",
"282 695 LINE",
"285 700 LINE",
"149 635 LINE"
);
},
{
closed = 1;
nodes = (
"540 143 OFFCURVE",
"621 361 OFFCURVE",
"652 455 CURVE",
"674 190 OFFCURVE",
"685 119 OFFCURVE",
"686 104 CURVE SMOOTH",
"687 88 OFFCURVE",
"704 75 OFFCURVE",
"733 65 CURVE",
"627 55 LINE",
"625 0 LINE",
"889 0 LINE",
"896 55 LINE",
"840 65 LINE",
"809 150 OFFCURVE",
"787 453 OFFCURVE",
"774 584 CURVE SMOOTH",
"770 628 OFFCURVE",
"801 645 OFFCURVE",
"828 645 CURVE",
"831 700 LINE",
"632 700 LINE",
"564 454 OFFCURVE",
"500 280 OFFCURVE",
"452 146 CURVE",
"434 87 OFFCURVE",
"412 59 OFFCURVE",
"391 0 CURVE",
"490 0 LINE"
);
},
{
closed = 1;
nodes = (
"191 98 OFFCURVE",
"222 382 OFFCURVE",
"230 541 CURVE",
"241 596 OFFCURVE",
"264 680 OFFCURVE",
"287 700 CURVE",
"97 700 LINE",
"90 646 LINE",
"147 635 LINE",
"129 380 OFFCURVE",
"112 173 OFFCURVE",
"103 130 CURVE SMOOTH",
"90 70 OFFCURVE",
"51 56 OFFCURVE",
"25 56 CURVE",
"21 0 LINE",
"259 0 LINE",
"266 55 LINE",
"206 64 LINE"
);
}
);
width = 916;
}
);
leftKerningGroup = A;
rightKerningGroup = A;
unicode = 004D;
},
{
glyphname = M.001;
lastChange = "2015-12-01 10:14:33 +0000";
layers = (
{
background = {
paths = (
{
closed = 1;
nodes = (
"475 87 LINE",
"460 169 OFFCURVE",
"354 610 OFFCURVE",
"350 617 CURVE SMOOTH",
"343 628 OFFCURVE",
"326 642 OFFCURVE",
"303 650 CURVE",
"396 650 LINE",
"401 700 LINE",
"140 700 LINE",
"131 653 LINE",
"185 645 LINE",
"209 613 OFFCURVE",
"254 448 OFFCURVE",
"287 327 CURVE SMOOTH",
"316 220 OFFCURVE",
"356 44 OFFCURVE",
"369 0 CURVE"
);
},
{
closed = 1;
nodes = (
"599 608 OFFCURVE",
"555 463 OFFCURVE",
"536 412 CURVE SMOOTH",
"436 144 OFFCURVE",
"392 44 OFFCURVE",
"371 0 CURVE",
"482 0 LINE",
"569 270 OFFCURVE",
"673 545 OFFCURVE",
"692 592 CURVE SMOOTH",
"711 638 OFFCURVE",
"747 650 OFFCURVE",
"777 650 CURVE",
"782 700 LINE",
"531 700 LINE",
"522 653 LINE",
"589 640 LINE"
);
}
);
};
layerId = "71FD7A9F-05F5-4D76-8D4F-547475A05E4C";
name = "Bold Italic";
paths = (
{
closed = 1;
nodes = (
"240 480 LINE",
"295 329 OFFCURVE",
"380 6 OFFCURVE",
"383 0 CURVE",
"466 193 LINE",
"453 212 OFFCURVE",
"363 520 OFFCURVE",
"324 700 CURVE",
"319 695 LINE",
"322 700 LINE",
"186 635 LINE"
);
},
{
closed = 1;
nodes = (
"524 143 OFFCURVE",
"608 385 OFFCURVE",
"644 479 CURVE",
"653 323 OFFCURVE",
"665 98 OFFCURVE",
"667 93 CURVE SMOOTH",
"671 82 OFFCURVE",
"683 68 OFFCURVE",
"712 58 CURVE",
"620 58 LINE",
"616 0 LINE",
"868 0 LINE",
"875 55 LINE",
"824 62 LINE",
"793 147 OFFCURVE",
"776 452 OFFCURVE",
"762 583 CURVE SMOOTH",
"757 627 OFFCURVE",
"782 644 OFFCURVE",
"809 644 CURVE",
"814 700 LINE",
"621 700 LINE",
"580 553 OFFCURVE",
"496 312 OFFCURVE",
"441 178 CURVE",
"419 119 OFFCURVE",
"408 59 OFFCURVE",
"383 0 CURVE",
"483 0 LINE"
);
},
{
closed = 1;
nodes = (
"191 94 OFFCURVE",
"200 193 OFFCURVE",
"205 243 CURVE SMOOTH",
"215 339 OFFCURVE",
"230 429 OFFCURVE",
"255 541 CURVE",
"270 596 OFFCURVE",
"300 680 OFFCURVE",
"324 700 CURVE",
"136 700 LINE",
"128 646 LINE",
"184 631 LINE",
"148 376 OFFCURVE",
"113 169 OFFCURVE",
"96 126 CURVE SMOOTH",
"72 67 OFFCURVE",
"38 56 OFFCURVE",
"12 56 CURVE",
"5 0 LINE",
"244 0 LINE",
"254 55 LINE",
"201 64 LINE"
);
}
);
width = 915;
},
{
layerId = "11343128-4963-4E5D-BE9C-B74F53B36FA5";
name = Bold;
width = 600;
}
);
leftKerningGroup = A;
rightKerningGroup = A;
},
{
glyphname = N;
lastChange = "2016-02-17 19:11:32 +0000";
layers = (
{
anchors = (
{
name = bottom;
position = "{365, 0}";
},
{
name = top;
position = "{430, 661}";
}
);
layerId = "71FD7A9F-05F5-4D76-8D4F-547475A05E4C";
name = "Bold Italic";
paths = (
{
closed = 1;
nodes = (
"165 564 LINE",
"179 550 OFFCURVE",
"189 500 OFFCURVE",
"212 477 CURVE SMOOTH",
"246 446 OFFCURVE",
"279 384 OFFCURVE",
"297 351 CURVE SMOOTH",
"382 202 OFFCURVE",
"499 -4 OFFCURVE",
"501 -8 CURVE",
"599 115 LINE",
"581 139 OFFCURVE",
"572 207 OFFCURVE",
"535 239 CURVE SMOOTH",
"505 268 OFFCURVE",
"475 320 OFFCURVE",
"456 351 CURVE SMOOTH",
"379 480 OFFCURVE",
"314 582 OFFCURVE",
"263 700 CURVE",
"258 695 LINE",
"261 700 LINE",
"154 592 LINE"
);
},
{
closed = 1;
nodes = (
"206 91 OFFCURVE",
"206 160 OFFCURVE",
"212 236 CURVE SMOOTH",
"226 383 OFFCURVE",
"234 541 OFFCURVE",
"263 700 CURVE",
"82 700 LINE",
"72 643 LINE",
"129 633 LINE",
"148 607 OFFCURVE",
"140 499 OFFCURVE",
"126 337 CURVE SMOOTH",
"116 238 OFFCURVE",
"106 172 OFFCURVE",
"96 129 CURVE SMOOTH",
"83 70 OFFCURVE",
"43 55 OFFCURVE",
"17 55 CURVE",
"10 0 LINE",
"264 0 LINE",
"274 55 LINE",
"215 66 LINE"
);
},
{
closed = 1;
nodes = (
"545 610 OFFCURVE",
"539 494 OFFCURVE",
"534 444 CURVE SMOOTH",
"501 93 OFFCURVE",
"505 100 OFFCURVE",
"501 -8 CURVE",
"595 0 LINE",
"616 286 OFFCURVE",
"637 504 OFFCURVE",
"652 566 CURVE SMOOTH",
"664 619 OFFCURVE",
"697 645 OFFCURVE",
"735 645 CURVE",
"742 700 LINE",
"481 700 LINE",
"470 645 LINE",
"532 636 LINE"
);
}
);
width = 718;
},
{
background = {
components = (
{
name = I;
transform = "{-1, 0, 0, -1, 337, 700}";
}
);
paths = (
{
closed = 1;
nodes = (
"515 603 OFFCURVE",
"515 514 OFFCURVE",
"515 464 CURVE SMOOTH",
"515 317 OFFCURVE",
"519 159 OFFCURVE",
"505 0 CURVE",
"686 0 LINE",
"691 55 LINE",
"639 65 LINE",
"592 143 OFFCURVE",
"615 528 OFFCURVE",
"622 571 CURVE SMOOTH",
"632 630 OFFCURVE",
"670 642 OFFCURVE",
"696 642 CURVE",
"697 700 LINE",
"443 700 LINE",
"438 642 LINE",
"499 633 LINE"
);
}
);
};
layerId = "11343128-4963-4E5D-BE9C-B74F53B36FA5";
name = Bold;
paths = (
{
closed = 1;
nodes = (
"136 564 LINE",
"151 550 OFFCURVE",
"166 500 OFFCURVE",
"192 477 CURVE SMOOTH",
"228 446 OFFCURVE",
"266 384 OFFCURVE",
"288 351 CURVE SMOOTH",
"387 202 OFFCURVE",
"519 4 OFFCURVE",
"522 0 CURVE",
"609 115 LINE",
"590 139 OFFCURVE",
"569 207 OFFCURVE",
"531 239 CURVE SMOOTH",
"497 268 OFFCURVE",
"463 320 OFFCURVE",
"442 351 CURVE SMOOTH",
"354 480 OFFCURVE",
"284 582 OFFCURVE",
"222 700 CURVE",
"218 695 LINE",
"220 700 LINE",
"123 592 LINE"
);
},
{
closed = 1;
nodes = (
"218 91 OFFCURVE",
"212 160 OFFCURVE",
"212 236 CURVE SMOOTH",
"212 383 OFFCURVE",
"208 541 OFFCURVE",
"222 700 CURVE",
"41 700 LINE",
"36 643 LINE",
"94 633 LINE",
"115 607 OFFCURVE",
"116 499 OFFCURVE",
"116 337 CURVE SMOOTH",
"116 238 OFFCURVE",
"111 172 OFFCURVE",
"105 129 CURVE SMOOTH",
"97 70 OFFCURVE",
"58 55 OFFCURVE",
"32 55 CURVE",
"30 0 LINE",
"284 0 LINE",
"289 55 LINE",
"230 66 LINE"
);
},
{
closed = 1;
nodes = (
"511 610 OFFCURVE",
"515 494 OFFCURVE",
"515 444 CURVE SMOOTH",
"512 93 OFFCURVE",
"516 108 OFFCURVE",
"522 0 CURVE",
"615 0 LINE",
"611 286 OFFCURVE",
"613 504 OFFCURVE",
"622 566 CURVE SMOOTH",
"630 619 OFFCURVE",
"661 645 OFFCURVE",
"699 645 CURVE",
"701 700 LINE",
"440 700 LINE",
"434 645 LINE",
"497 636 LINE"
);
}
);
width = 721;
}
);
leftKerningGroup = I;
rightKerningGroup = I;
unicode = 004E;
},
{
glyphname = N.001;
lastChange = "2016-02-17 19:32:51 +0000";
layers = (
{
anchors = (
{
name = bottom;
position = "{320, 0}";
},
{
name = top;
position = "{374, 661}";
}
);
background = {
paths = (
{
closed = 1;
nodes = (
"322 352 LINE",
"330 272 OFFCURVE",
"410 52 OFFCURVE",
"437 32 CURVE SMOOTH",
"446 25 OFFCURVE",
"518 -1 OFFCURVE",
"571 -1 CURVE",
"606 7 OFFCURVE",
"633 25 OFFCURVE",
"638 28 CURVE",
"633 74 LINE",
"613 66 OFFCURVE",
"599 65 OFFCURVE",
"588 63 CURVE",
"535 119 OFFCURVE",
"432 326 OFFCURVE",
"408 425 CURVE"
);
},
{
closed = 1;
nodes = (
"86 700 LINE",
"78 653 LINE",
"124 644 LINE",
"135 619 OFFCURVE",
"127 487 OFFCURVE",
"122 427 CURVE SMOOTH",
"110 292 OFFCURVE",
"83 104 OFFCURVE",
"86 88 CURVE SMOOTH",
"87 79 OFFCURVE",
"95 62 OFFCURVE",
"133 50 CURVE",
"26 50 LINE",
"22 0 LINE",
"307 0 LINE",
"314 47 LINE",
"258 55 LINE",
"223 114 OFFCURVE",
"242 286 OFFCURVE",
"253 408 CURVE SMOOTH",
"263 521 OFFCURVE",
"272 598 OFFCURVE",
"284 620 CURVE SMOOTH",
"296 640 OFFCURVE",
"313 648 OFFCURVE",
"336 650 CURVE",
"340 699 LINE"
);
},
{
closed = 1;
nodes = (
"459 584 OFFCURVE",
"313 400 OFFCURVE",
"234 312 CURVE",
"232 203 LINE",
"380 372 LINE",
"459 465 OFFCURVE",
"561 586 OFFCURVE",
"589 615 CURVE SMOOTH",
"613 639 OFFCURVE",
"637 650 OFFCURVE",
"664 650 CURVE",
"668 700 LINE",
"446 700 LINE",
"438 651 LINE",
"488 642 LINE"
);
}
);
};
layerId = "71FD7A9F-05F5-4D76-8D4F-547475A05E4C";
name = "Bold Italic";
paths = (
{
closed = 1;
nodes = (
"152 564 LINE",
"191 526 OFFCURVE",
"259 404 OFFCURVE",
"289 351 CURVE SMOOTH",
"324 289 OFFCURVE",
"477 -3 OFFCURVE",
"480 -7 CURVE",
"576 120 LINE",
"539 172 OFFCURVE",
"462 293 OFFCURVE",
"430 351 CURVE SMOOTH",
"399 408 OFFCURVE",
"307 582 OFFCURVE",
"253 700 CURVE",
"249 695 LINE",
"251 700 LINE",
"147 592 LINE"
);
},
{
closed = 1;
nodes = (
"211 97 OFFCURVE",
"217 186 OFFCURVE",
"221 236 CURVE SMOOTH",
"232 383 OFFCURVE",
"243 640 OFFCURVE",
"253 700 CURVE",
"88 700 LINE",
"79 643 LINE",
"131 632 LINE",
"139 498 OFFCURVE",
"111 172 OFFCURVE",
"97 129 CURVE SMOOTH",
"78 70 OFFCURVE",
"44 58 OFFCURVE",
"18 58 CURVE",
"13 0 LINE",
"277 0 LINE",
"286 58 LINE",
"225 67 LINE"
);
},
{
closed = 1;
nodes = (
"506 604 OFFCURVE",
"500 514 OFFCURVE",
"496 464 CURVE SMOOTH",
"469 113 OFFCURVE",
"482 101 OFFCURVE",
"480 -7 CURVE",
"574 1 LINE",
"584 287 OFFCURVE",
"603 515 OFFCURVE",
"622 572 CURVE SMOOTH",
"641 631 OFFCURVE",
"682 642 OFFCURVE",
"708 642 CURVE",
"714 700 LINE",
"448 700 LINE",
"438 643 LINE",
"492 634 LINE"
);
}
);
width = 691;
},
{
layerId = "11343128-4963-4E5D-BE9C-B74F53B36FA5";
name = Bold;
width = 30;
}
);
leftKerningGroup = I;
leftMetricsKey = I;
rightKerningGroup = I;
rightMetricsKey = I;
},
{
glyphname = Eng;
lastChange = "2016-02-17 19:33:23 +0000";
layers = (
{
anchors = (
{
name = bottom;
position = "{313, 0}";
},
{
name = top;
position = "{367, 661}";
}
);
background = {
paths = (
{
closed = 1;
nodes = (
"386 -271 OFFCURVE",
"472 -240 CURVE SMOOTH",
"589 -199 OFFCURVE",
"576 -45 OFFCURVE",
"503 23 CURVE",
"456 21 LINE",
"489 -16 OFFCURVE",
"488 -97 OFFCURVE",
"442 -140 CURVE SMOOTH",
"416 -165 OFFCURVE",
"390 -165 OFFCURVE",
"362 -153 CURVE SMOOTH",
"324 -136 OFFCURVE",
"298 -101 OFFCURVE",
"293 -87 CURVE",
"267 -119 LINE",
"292 -203 OFFCURVE"
);
}
);
};
layerId = "71FD7A9F-05F5-4D76-8D4F-547475A05E4C";
name = "Bold Italic";
paths = (
{
closed = 1;
nodes = (
"204 97 OFFCURVE",
"210 186 OFFCURVE",
"214 236 CURVE SMOOTH",
"225 383 OFFCURVE",
"236 640 OFFCURVE",
"246 700 CURVE",
"81 700 LINE",
"72 643 LINE",
"124 632 LINE",
"132 498 OFFCURVE",
"104 172 OFFCURVE",
"90 129 CURVE SMOOTH",
"71 70 OFFCURVE",
"37 58 OFFCURVE",
"11 58 CURVE",
"6 0 LINE",
"270 0 LINE",
"279 58 LINE",
"218 67 LINE"
);
},
{
closed = 1;
nodes = (
"431 643 LINE",
"485 634 LINE",
"499 604 OFFCURVE",
"493 514 OFFCURVE",
"489 464 CURVE SMOOTH",
"482 379 OFFCURVE",
"478 314 OFFCURVE",
"476 263 CURVE",
"455 296 OFFCURVE",
"435 328 OFFCURVE",
"423 351 CURVE SMOOTH",
"392 408 OFFCURVE",
"300 582 OFFCURVE",
"246 700 CURVE",
"242 695 LINE",
"244 700 LINE",
"140 592 LINE",
"145 564 LINE",
"184 526 OFFCURVE",
"252 404 OFFCURVE",
"282 351 CURVE SMOOTH",
"314 294 OFFCURVE",
"444 45 OFFCURVE",
"465 0 CURVE SMOOTH",
"497 -67 OFFCURVE",
"469 -117 OFFCURVE",
"433 -144 CURVE",
"390 -173 OFFCURVE",
"332 -176 OFFCURVE",
"279 -138 CURVE",
"261 -185 LINE",
"292 -224 OFFCURVE",
"392 -283 OFFCURVE",
"476 -233 CURVE SMOOTH",
"565 -180 OFFCURVE",
"563 -78 OFFCURVE",
"567 1 CURVE SMOOTH",
"581 287 OFFCURVE",
"596 515 OFFCURVE",
"615 572 CURVE SMOOTH",
"634 631 OFFCURVE",
"675 642 OFFCURVE",
"701 642 CURVE",
"707 700 LINE",
"441 700 LINE"
);
}
);
width = 679;
},
{
layerId = "11343128-4963-4E5D-BE9C-B74F53B36FA5";
name = Bold;
width = 600;
}
);
unicode = 014A;
},
{
glyphname = O;
lastChange = "2016-02-17 19:11:32 +0000";
layers = (
{
anchors = (
{
name = bottom;
position = "{325, 0}";
},
{
name = center;
position = "{368, 350}";
},
{
name = ogonek;
position = "{595, 10}";
},
{
name = top;
position = "{388, 656}";
},
{
name = topleft;
position = "{93, 700}";
},
{
name = topright;
position = "{727, 700}";
}
);
background = {
paths = (
{
closed = 1;
nodes = (
"571 685 OFFCURVE",
"477 730 OFFCURVE",
"333 711 CURVE",
"23 649 OFFCURVE",
"-32 244 OFFCURVE",
"117 81 CURVE SMOOTH",
"195 -8 OFFCURVE",
"312 -29 OFFCURVE",
"438 -1 CURVE",
"711 77 OFFCURVE",
"779 440 OFFCURVE",
"627 618 CURVE SMOOTH"
);
},
{
closed = 1;
nodes = (
"344 77 OFFCURVE",
"268 99 OFFCURVE",
"228 176 CURVE SMOOTH",
"144 334 OFFCURVE",
"188 547 OFFCURVE",
"338 628 CURVE",
"401 628 OFFCURVE",
"475 610 OFFCURVE",
"519 521 CURVE SMOOTH",
"596 372 OFFCURVE",
"554 165 OFFCURVE",
"408 78 CURVE"
);
}
);
};
layerId = "71FD7A9F-05F5-4D76-8D4F-547475A05E4C";
name = "Bold Italic";
paths = (
{
closed = 1;
nodes = (
"554 685 OFFCURVE",
"459 730 OFFCURVE",
"326 711 CURVE",
"17 649 OFFCURVE",
"-30 244 OFFCURVE",
"121 81 CURVE SMOOTH",
"202 -8 OFFCURVE",
"306 -29 OFFCURVE",
"432 -1 CURVE",
"703 77 OFFCURVE",
"766 440 OFFCURVE",
"611 618 CURVE SMOOTH"
);
},
{
closed = 1;
nodes = (
"336 77 OFFCURVE",
"273 99 OFFCURVE",
"231 176 CURVE SMOOTH",
"145 334 OFFCURVE",
"184 547 OFFCURVE",
"334 628 CURVE",
"385 628 OFFCURVE",
"459 610 OFFCURVE",
"504 521 CURVE SMOOTH",
"583 372 OFFCURVE",
"546 165 OFFCURVE",
"400 78 CURVE"
);
}
);
width = 708;
},
{
background = {
components = (
{
name = V;
}
);
};
guideLines = (
{
angle = 90;
position = "{347, 177}";
}
);
layerId = "11343128-4963-4E5D-BE9C-B74F53B36FA5";
name = Bold;
paths = (
{
closed = 1;
nodes = (
"546 685 OFFCURVE",
"449 730 OFFCURVE",
"306 711 CURVE",
"-1 649 OFFCURVE",
"-34 244 OFFCURVE",
"123 81 CURVE SMOOTH",
"206 -8 OFFCURVE",
"324 -29 OFFCURVE",
"448 -1 CURVE",
"717 77 OFFCURVE",
"766 440 OFFCURVE",
"605 618 CURVE SMOOTH"
);
},
{
closed = 1;
nodes = (
"350 77 OFFCURVE",
"273 99 OFFCURVE",
"229 176 CURVE SMOOTH",
"137 334 OFFCURVE",
"170 547 OFFCURVE",
"316 628 CURVE",
"379 628 OFFCURVE",
"453 610 OFFCURVE",
"502 521 CURVE SMOOTH",
"587 372 OFFCURVE",
"556 165 OFFCURVE",
"414 78 CURVE"
);
}
);
width = 727;
}
);
leftKerningGroup = O;
rightKerningGroup = O;
unicode = 004F;
},
{
glyphname = O.001;
lastChange = "2015-12-01 10:14:33 +0000";
layers = (
{
anchors = (
{
name = bottom;
position = "{312, 0}";
},
{
name = center;
position = "{349, 350}";
},
{
name = ogonek;
position = "{582, 10}";
},
{
name = top;
position = "{364, 656}";
},
{
name = topleft;
position = "{68, 700}";
},
{
name = topright;
position = "{702, 700}";
}
);
background = {
paths = (
{
closed = 1;
nodes = (
"553 675 OFFCURVE",
"481 725 OFFCURVE",
"329 709 CURVE",
"52 650 OFFCURVE",
"-41 261 OFFCURVE",
"108 75 CURVE SMOOTH",
"174 -7 OFFCURVE",
"277 -34 OFFCURVE",
"398 -3 CURVE",
"678 94 OFFCURVE",
"723 460 OFFCURVE",
"598 617 CURVE SMOOTH"
);
},
{
closed = 1;
nodes = (
"305 101 OFFCURVE",
"270 140 OFFCURVE",
"239 210 CURVE SMOOTH",
"183 337 OFFCURVE",
"227 535 OFFCURVE",
"342 598 CURVE",
"384 598 OFFCURVE",
"424 563 OFFCURVE",
"458 497 CURVE SMOOTH",
"515 379 OFFCURVE",
"483 178 OFFCURVE",
"362 101 CURVE"
);
}
);
};
layerId = "71FD7A9F-05F5-4D76-8D4F-547475A05E4C";
name = "Bold Italic";
paths = (
{
closed = 1;
nodes = (
"543 683 OFFCURVE",
"456 727 OFFCURVE",
"322 709 CURVE",
"33 647 OFFCURVE",
"-26 244 OFFCURVE",
"108 81 CURVE SMOOTH",
"179 -7 OFFCURVE",
"288 -28 OFFCURVE",
"405 0 CURVE",
"660 77 OFFCURVE",
"731 439 OFFCURVE",
"594 616 CURVE SMOOTH"
);
},
{
closed = 1;
nodes = (
"319 74 OFFCURVE",
"266 99 OFFCURVE",
"231 176 CURVE SMOOTH",
"157 333 OFFCURVE",
"185 545 OFFCURVE",
"325 626 CURVE",
"384 626 OFFCURVE",
"434 608 OFFCURVE",
"474 519 CURVE SMOOTH",
"542 371 OFFCURVE",
"517 162 OFFCURVE",
"379 75 CURVE"
);
}
);
width = 684;
},
{
layerId = "11343128-4963-4E5D-BE9C-B74F53B36FA5";
name = Bold;
width = 600;
}
);
leftKerningGroup = O;
rightKerningGroup = O;
},
{
glyphname = OE;
lastChange = "2016-02-17 19:32:51 +0000";
layers = (
{
anchors = (
{
name = bottom;
position = "{446, 0}";
},
{
name = top;
position = "{519, 700}";
}
);
components = (
{
name = E;
transform = "{1, 0, 0, 1, 387, 0}";
}
);
layerId = "71FD7A9F-05F5-4D76-8D4F-547475A05E4C";
name = "Bold Italic";
paths = (
{
closed = 1;
nodes = (
"539 683 OFFCURVE",
"452 727 OFFCURVE",
"318 709 CURVE",
"29 647 OFFCURVE",
"-30 244 OFFCURVE",
"104 81 CURVE SMOOTH",
"175 -7 OFFCURVE",
"286 -30 OFFCURVE",
"403 -2 CURVE",
"504 29 OFFCURVE",
"533 5 OFFCURVE",
"581 96 CURVE",
"619 511 LINE",
"608 550 OFFCURVE",
"623 586 OFFCURVE",
"597 616 CURVE SMOOTH"
);
},
{
closed = 1;
nodes = (
"319 74 OFFCURVE",
"265 104 OFFCURVE",
"229 181 CURVE SMOOTH",
"155 338 OFFCURVE",
"186 553 OFFCURVE",
"326 634 CURVE",
"422 634 OFFCURVE",
"501 593 OFFCURVE",
"517 508 CURVE",
"508 356 OFFCURVE",
"505 75 OFFCURVE",
"379 75 CURVE"
);
}
);
width = 976;
},
{
layerId = "11343128-4963-4E5D-BE9C-B74F53B36FA5";
name = Bold;
width = 30;
}
);
leftMetricsKey = O;
rightMetricsKey = E;
unicode = 0152;
},
{
glyphname = P;
lastChange = "2016-02-17 19:32:29 +0000";
layers = (
{
background = {
components = (
{
name = R;
}
);
};
guideLines = (
{
angle = 84;
position = "{637, 311}";
}
);
layerId = "71FD7A9F-05F5-4D76-8D4F-547475A05E4C";
name = "Bold Italic";
paths = (
{
closed = 1;
nodes = (
"229 234 LINE",
"259 222 OFFCURVE",
"318 225 OFFCURVE",
"354 230 CURVE",
"599 278 OFFCURVE",
"674 589 OFFCURVE",
"508 670 CURVE SMOOTH",
"412 716 OFFCURVE",
"254 711 OFFCURVE",
"90 700 CURVE",
"266 623 LINE",
"482 659 OFFCURVE",
"509 395 OFFCURVE",
"372 320 CURVE",
"347 312 OFFCURVE",
"273 311 OFFCURVE",
"239 335 CURVE"
);
},
{
closed = 1;
nodes = (
"124 0 LINE",
"316 0 LINE",
"326 53 LINE",
"194 75 LINE"
);
},
{
closed = 1;
nodes = (
"90 700 LINE",
"80 645 LINE",
"135 634 LINE",
"144 609 OFFCURVE",
"137 534 OFFCURVE",
"127 407 CURVE SMOOTH",
"108 197 OFFCURVE",
"86 114 OFFCURVE",
"91 98 CURVE SMOOTH",
"92 86 OFFCURVE",
"107 71 OFFCURVE",
"136 65 CURVE",
"28 55 LINE",
"21 0 LINE",
"303 1 LINE",
"312 54 LINE",
"255 64 LINE",
"222 123 OFFCURVE",
"246 307 OFFCURVE",
"250 353 CURVE SMOOTH",
"264 510 OFFCURVE",
"277 589 OFFCURVE",
"292 610 CURVE SMOOTH",
"304 630 OFFCURVE",
"328 643 OFFCURVE",
"351 645 CURVE",
"357 700 LINE"
);
}
);
width = 600;
},
{
background = {
components = (
{
name = R;
}
);
};
layerId = "11343128-4963-4E5D-BE9C-B74F53B36FA5";
name = Bold;
paths = (
{
closed = 1;
nodes = (
"222 234 LINE",
"253 222 OFFCURVE",
"312 225 OFFCURVE",
"347 230 CURVE",
"588 278 OFFCURVE",
"637 589 OFFCURVE",
"462 670 CURVE SMOOTH",
"364 716 OFFCURVE",
"206 711 OFFCURVE",
"43 700 CURVE",
"225 619 LINE",
"439 655 OFFCURVE",
"488 395 OFFCURVE",
"359 320 CURVE",
"334 312 OFFCURVE",
"260 311 OFFCURVE",
"223 335 CURVE"
);
},
{
closed = 1;
nodes = (
"138 0 LINE",
"330 0 LINE",
"335 53 LINE",
"202 75 LINE"
);
},
{
closed = 1;
nodes = (
"43 700 LINE",
"38 645 LINE",
"93 634 LINE",
"105 609 OFFCURVE",
"105 534 OFFCURVE",
"105 407 CURVE SMOOTH",
"105 197 OFFCURVE",
"90 114 OFFCURVE",
"95 98 CURVE SMOOTH",
"99 86 OFFCURVE",
"115 71 OFFCURVE",
"144 65 CURVE",
"37 55 LINE",
"35 0 LINE",
"316 1 LINE",
"321 54 LINE",
"263 64 LINE",
"225 123 OFFCURVE",
"233 307 OFFCURVE",
"233 353 CURVE SMOOTH",
"233 510 OFFCURVE",
"240 589 OFFCURVE",
"253 610 CURVE SMOOTH",
"263 630 OFFCURVE",
"286 643 OFFCURVE",
"309 645 CURVE",
"310 700 LINE"
);
}
);
width = 589;
}
);
leftKerningGroup = I;
leftMetricsKey = I;
rightKerningGroup = T;
unicode = 0050;
},
{
glyphname = P.001;
lastChange = "2016-02-17 19:32:51 +0000";
layers = (
{
background = {
paths = (
{
closed = 1;
nodes = (
"423 304 LINE",
"510 334 OFFCURVE",
"590 430 OFFCURVE",
"571 545 CURVE SMOOTH",
"536 752 OFFCURVE",
"210 703 OFFCURVE",
"86 699 CURVE",
"79 653 LINE",
"126 644 LINE",
"138 604 OFFCURVE",
"131 466 OFFCURVE",
"116 326 CURVE SMOOTH",
"98 158 OFFCURVE",
"85 96 OFFCURVE",
"90 85 CURVE SMOOTH",
"93 76 OFFCURVE",
"125 50 OFFCURVE",
"149 50 CURVE",
"31 51 LINE",
"26 0 LINE",
"306 0 LINE",
"313 47 LINE",
"259 55 LINE",
"238 108 OFFCURVE",
"232 157 OFFCURVE",
"243 285 CURVE",
"262 283 OFFCURVE",
"320 283 OFFCURVE",
"343 284 CURVE"
);
},
{
closed = 1;
nodes = (
"281 626 CURVE",
"451 635 OFFCURVE",
"475 404 OFFCURVE",
"370 363 CURVE",
"350 363 OFFCURVE",
"298 367 OFFCURVE",
"248 385 CURVE",
"256 480 OFFCURVE",
"264 550 OFFCURVE"
);
},
{
closed = 1;
nodes = (
"349 291 LINE",
"354 273 OFFCURVE",
"367 60 OFFCURVE",
"405 32 CURVE SMOOTH",
"414 25 OFFCURVE",
"486 -1 OFFCURVE",
"539 -1 CURVE",
"572 7 OFFCURVE",
"599 25 OFFCURVE",
"604 28 CURVE",
"599 74 LINE",
"579 66 OFFCURVE",
"565 65 OFFCURVE",
"554 63 CURVE",
"501 119 OFFCURVE",
"470 229 OFFCURVE",
"444 327 CURVE"
);
}
);
};
guideLines = (
{
angle = 84;
position = "{617, 311}";
}
);
layerId = "71FD7A9F-05F5-4D76-8D4F-547475A05E4C";
name = "Bold Italic";
paths = (
{
closed = 1;
nodes = (
"388 714 OFFCURVE",
"268 709 OFFCURVE",
"86 700 CURVE",
"79 643 LINE",
"125 634 LINE",
"135 612 OFFCURVE",
"127 481 OFFCURVE",
"122 421 CURVE SMOOTH",
"113 309 OFFCURVE",
"82 109 OFFCURVE",
"86 96 CURVE",
"88 84 OFFCURVE",
"111 70 OFFCURVE",
"145 58 CURVE",
"29 58 LINE",
"24 0 LINE",
"303 0 LINE",
"312 55 LINE",
"256 63 LINE",
"234 97 OFFCURVE",
"234 162 OFFCURVE",
"238 268 CURVE",
"270 261 OFFCURVE",
"319 264 OFFCURVE",
"350 268 CURVE",
"596 316 OFFCURVE",
"649 589 OFFCURVE",
"479 670 CURVE SMOOTH"
);
},
{
closed = 1;
nodes = (
"331 346 OFFCURVE",
"282 345 OFFCURVE",
"246 362 CURVE",
"253 447 OFFCURVE",
"263 547 OFFCURVE",
"281 626 CURVE",
"451 633 OFFCURVE",
"489 411 OFFCURVE",
"369 348 CURVE"
);
}
);
width = 576;
},
{
layerId = "11343128-4963-4E5D-BE9C-B74F53B36FA5";
name = Bold;
width = 30;
}
);
leftKerningGroup = I;
leftMetricsKey = I;
rightKerningGroup = T;
rightMetricsKey = O;
},
{
glyphname = Thorn;
lastChange = "2016-02-17 19:32:51 +0000";
layers = (
{
layerId = "71FD7A9F-05F5-4D76-8D4F-547475A05E4C";
name = "Bold Italic";
paths = (
{
closed = 1;
nodes = (
"87 700 LINE",
"79 643 LINE",
"125 634 LINE",
"135 609 OFFCURVE",
"134 501 OFFCURVE",
"125 410 CURVE SMOOTH",
"111 275 OFFCURVE",
"89 114 OFFCURVE",
"94 98 CURVE SMOOTH",
"95 89 OFFCURVE",
"102 72 OFFCURVE",
"140 60 CURVE",
"34 60 LINE",
"29 0 LINE",
"311 1 LINE",
"316 58 LINE",
"260 66 LINE",
"225 125 OFFCURVE",
"240 313 OFFCURVE",
"249 435 CURVE SMOOTH",
"257 548 OFFCURVE",
"269 589 OFFCURVE",
"282 610 CURVE SMOOTH",
"294 630 OFFCURVE",
"311 639 OFFCURVE",
"334 641 CURVE",
"339 701 LINE"
);
},
{
closed = 1;
nodes = (
"224 140 LINE",
"258 129 OFFCURVE",
"304 127 OFFCURVE",
"340 132 CURVE",
"586 180 OFFCURVE",
"639 457 OFFCURVE",
"469 538 CURVE SMOOTH",
"414 565 OFFCURVE",
"343 573 OFFCURVE",
"261 574 CURVE",
"249 492 LINE",
"426 519 OFFCURVE",
"484 284 OFFCURVE",
"359 218 CURVE",
"317 216 OFFCURVE",
"271 223 OFFCURVE",
"231 246 CURVE"
);
}
);
width = 586;
},
{
layerId = "11343128-4963-4E5D-BE9C-B74F53B36FA5";
name = Bold;
width = 22;
}
);
leftKerningGroup = I;
leftMetricsKey = I;
rightMetricsKey = P;
unicode = 00DE;
},
{
glyphname = Q;
lastChange = "2016-02-17 19:32:29 +0000";
layers = (
{
background = {
paths = (
{
closed = 1;
nodes = (
"360 -45 OFFCURVE",
"563 -202 OFFCURVE",
"671 -191 CURVE",
"724 -169 OFFCURVE",
"772 -133 OFFCURVE",
"794 -106 CURVE",
"767 -56 LINE",
"751 -71 OFFCURVE",
"732 -83 OFFCURVE",
"717 -88 CURVE",
"653 -73 OFFCURVE",
"307 61 OFFCURVE",
"271 138 CURVE",
"220 109 LINE"
);
},
{
closed = 1;
nodes = (
"564 683 OFFCURVE",
"477 727 OFFCURVE",
"343 709 CURVE",
"54 647 OFFCURVE",
"-5 244 OFFCURVE",
"129 81 CURVE SMOOTH",
"200 -7 OFFCURVE",
"309 -28 OFFCURVE",
"426 0 CURVE",
"681 77 OFFCURVE",
"752 439 OFFCURVE",
"615 616 CURVE SMOOTH"
);
},
{
closed = 1;
nodes = (
"340 58 OFFCURVE",
"287 99 OFFCURVE",
"252 176 CURVE SMOOTH",
"178 333 OFFCURVE",
"206 545 OFFCURVE",
"346 626 CURVE",
"405 626 OFFCURVE",
"455 608 OFFCURVE",
"495 519 CURVE SMOOTH",
"563 371 OFFCURVE",
"538 146 OFFCURVE",
"400 59 CURVE"
);
}
);
};
components = (
{
disableAlignment = 1;
name = O;
}
);
layerId = "71FD7A9F-05F5-4D76-8D4F-547475A05E4C";
name = "Bold Italic";
paths = (
{
closed = 1;
nodes = (
"353 -45 OFFCURVE",
"553 -202 OFFCURVE",
"662 -191 CURVE",
"715 -169 OFFCURVE",
"764 -133 OFFCURVE",
"786 -106 CURVE",
"760 -56 LINE",
"744 -71 OFFCURVE",
"724 -83 OFFCURVE",
"709 -88 CURVE",
"646 -73 OFFCURVE",
"302 61 OFFCURVE",
"267 138 CURVE",
"216 109 LINE"
);
}
);
width = 720;
},
{
components = (
{
name = O;
}
);
layerId = "11343128-4963-4E5D-BE9C-B74F53B36FA5";
name = Bold;
paths = (
{
closed = 1;
nodes = (
"365 -47 OFFCURVE",
"553 -166 OFFCURVE",
"647 -182 CURVE",
"749 -108 LINE",
"742 -91 LINE",
"580 -59 OFFCURVE",
"427 12 OFFCURVE",
"367 71 CURVE",
"214 107 LINE"
);
}
);
width = 724;
}
);
leftKerningGroup = O;
leftMetricsKey = O;
rightKerningGroup = O;
unicode = 0051;
},
{
glyphname = Q.001;
lastChange = "2016-02-17 19:32:51 +0000";
layers = (
{
background = {
components = (
{
name = R;
transform = "{1, 0, 0, 1, 165, -201}";
}
);
paths = (
{
closed = 1;
nodes = (
"540 674 OFFCURVE",
"464 738 OFFCURVE",
"295 701 CURVE SMOOTH",
"38 645 OFFCURVE",
"-13 229 OFFCURVE",
"113 81 CURVE SMOOTH",
"186 -4 OFFCURVE",
"270 -34 OFFCURVE",
"412 -2 CURVE SMOOTH",
"650 51 OFFCURVE",
"721 458 OFFCURVE",
"588 617 CURVE SMOOTH"
);
},
{
closed = 1;
nodes = (
"314 68 OFFCURVE",
"265 98 OFFCURVE",
"231 175 CURVE SMOOTH",
"160 332 OFFCURVE",
"181 544 OFFCURVE",
"318 629 CURVE",
"377 629 OFFCURVE",
"434 608 OFFCURVE",
"473 519 CURVE SMOOTH",
"538 371 OFFCURVE",
"524 155 OFFCURVE",
"384 68 CURVE"
);
}
);
};
layerId = "71FD7A9F-05F5-4D76-8D4F-547475A05E4C";
name = "Bold Italic";
paths = (
{
closed = 1;
nodes = (
"335 -45 OFFCURVE",
"538 -202 OFFCURVE",
"646 -191 CURVE",
"699 -169 OFFCURVE",
"747 -133 OFFCURVE",
"769 -106 CURVE",
"742 -56 LINE",
"726 -71 OFFCURVE",
"707 -83 OFFCURVE",
"692 -88 CURVE",
"628 -73 OFFCURVE",
"282 61 OFFCURVE",
"246 138 CURVE",
"195 109 LINE"
);
},
{
closed = 1;
nodes = (
"539 683 OFFCURVE",
"452 727 OFFCURVE",
"318 709 CURVE",
"29 647 OFFCURVE",
"-30 244 OFFCURVE",
"104 81 CURVE SMOOTH",
"175 -7 OFFCURVE",
"284 -28 OFFCURVE",
"401 0 CURVE",
"656 77 OFFCURVE",
"727 439 OFFCURVE",
"590 616 CURVE SMOOTH"
);
},
{
closed = 1;
nodes = (
"315 58 OFFCURVE",
"262 99 OFFCURVE",
"227 176 CURVE SMOOTH",
"153 333 OFFCURVE",
"181 545 OFFCURVE",
"321 626 CURVE",
"380 626 OFFCURVE",
"430 608 OFFCURVE",
"470 519 CURVE SMOOTH",
"538 371 OFFCURVE",
"513 146 OFFCURVE",
"375 59 CURVE"
);
}
);
width = 668;
},
{
layerId = "11343128-4963-4E5D-BE9C-B74F53B36FA5";
name = Bold;
width = 0;
}
);
leftKerningGroup = O;
leftMetricsKey = O;
rightKerningGroup = O;
},
{
glyphname = R;
lastChange = "2016-02-17 19:32:29 +0000";
layers = (
{
anchors = (
{
name = bottom;
position = "{297, 0}";
},
{
name = top;
position = "{347, 649}";
}
);
background = {
paths = (
{
closed = 1;
nodes = (
"416 288 LINE",
"521 318 OFFCURVE",
"598 436 OFFCURVE",
"578 551 CURVE SMOOTH",
"542 754 OFFCURVE",
"222 703 OFFCURVE",
"98 699 CURVE",
"91 644 LINE",
"138 635 LINE",
"149 595 OFFCURVE",
"143 466 OFFCURVE",
"128 326 CURVE SMOOTH",
"110 158 OFFCURVE",
"98 103 OFFCURVE",
"103 92 CURVE SMOOTH",
"106 83 OFFCURVE",
"138 57 OFFCURVE",
"162 57 CURVE",
"44 58 LINE",
"38 0 LINE",
"309 0 LINE",
"317 54 LINE",
"268 62 LINE",
"247 115 OFFCURVE",
"240 157 OFFCURVE",
"251 285 CURVE",
"270 283 OFFCURVE",
"328 283 OFFCURVE",
"351 284 CURVE"
);
},
{
closed = 1;
nodes = (
"261 469 OFFCURVE",
"271 546 OFFCURVE",
"288 622 CURVE",
"467 635 OFFCURVE",
"486 402 OFFCURVE",
"372 361 CURVE",
"352 361 OFFCURVE",
"303 356 OFFCURVE",
"253 374 CURVE"
);
},
{
closed = 1;
nodes = (
"327 288 LINE",
"332 270 OFFCURVE",
"375 60 OFFCURVE",
"413 32 CURVE SMOOTH",
"422 25 OFFCURVE",
"491 -3 OFFCURVE",
"544 -3 CURVE",
"577 5 OFFCURVE",
"614 26 OFFCURVE",
"619 29 CURVE",
"605 82 LINE",
"590 76 OFFCURVE",
"571 72 OFFCURVE",
"560 71 CURVE",
"507 127 OFFCURVE",
"457 226 OFFCURVE",
"433 324 CURVE"
);
}
);
};
guideLines = (
{
position = "{515, 480}";
}
);
layerId = "71FD7A9F-05F5-4D76-8D4F-547475A05E4C";
name = "Bold Italic";
paths = (
{
closed = 1;
nodes = (
"340 288 LINE",
"345 270 OFFCURVE",
"384 60 OFFCURVE",
"421 32 CURVE SMOOTH",
"430 25 OFFCURVE",
"499 -3 OFFCURVE",
"552 -3 CURVE",
"585 5 OFFCURVE",
"622 26 OFFCURVE",
"627 29 CURVE",
"614 82 LINE",
"599 76 OFFCURVE",
"580 72 OFFCURVE",
"569 71 CURVE",
"517 127 OFFCURVE",
"469 226 OFFCURVE",
"447 324 CURVE"
);
},
{
closed = 1;
nodes = (
"239 285 LINE",
"245 282 OFFCURVE",
"318 283 OFFCURVE",
"345 284 CURVE",
"421 293 LINE",
"528 345 OFFCURVE",
"598 445 OFFCURVE",
"580 560 CURVE SMOOTH",
"546 769 OFFCURVE",
"172 701 OFFCURVE",
"90 700 CURVE",
"265 619 LINE",
"467 658 OFFCURVE",
"489 404 OFFCURVE",
"366 361 CURVE",
"343 361 OFFCURVE",
"285 354 OFFCURVE",
"227 381 CURVE"
);
},
{
closed = 1;
nodes = (
"90 700 LINE",
"80 645 LINE",
"135 634 LINE",
"144 609 OFFCURVE",
"137 534 OFFCURVE",
"127 407 CURVE SMOOTH",
"108 197 OFFCURVE",
"86 114 OFFCURVE",
"91 98 CURVE SMOOTH",
"92 86 OFFCURVE",
"107 71 OFFCURVE",
"136 65 CURVE",
"28 55 LINE",
"21 0 LINE",
"302 1 LINE",
"312 54 LINE",
"255 64 LINE",
"222 123 OFFCURVE",
"245 307 OFFCURVE",
"250 353 CURVE SMOOTH",
"264 510 OFFCURVE",
"277 589 OFFCURVE",
"292 610 CURVE SMOOTH",
"304 630 OFFCURVE",
"328 643 OFFCURVE",
"351 645 CURVE",
"357 700 LINE"
);
}
);
width = 635;
},
{
background = {
components = (
{
name = P;
}
);
};
layerId = "11343128-4963-4E5D-BE9C-B74F53B36FA5";
name = Bold;
paths = (
{
closed = 1;
nodes = (
"228 285 LINE",
"234 282 OFFCURVE",
"307 283 OFFCURVE",
"334 284 CURVE",
"409 293 LINE",
"512 345 OFFCURVE",
"572 445 OFFCURVE",
"544 560 CURVE SMOOTH",
"493 769 OFFCURVE",
"125 701 OFFCURVE",
"43 700 CURVE",
"224 619 LINE",
"424 655 OFFCURVE",
"467 404 OFFCURVE",
"349 361 CURVE",
"326 361 OFFCURVE",
"268 354 OFFCURVE",
"208 381 CURVE"
);
},
{
closed = 1;
nodes = (
"266 339 LINE",
"328 238 OFFCURVE",
"420 69 OFFCURVE",
"469 0 CURVE",
"636 0 LINE",
"641 55 LINE",
"600 57 OFFCURVE",
"578 70 OFFCURVE",
"541 122 CURVE SMOOTH",
"483 203 OFFCURVE",
"432 282 OFFCURVE",
"400 339 CURVE"
);
},
{
closed = 1;
nodes = (
"43 700 LINE",
"38 645 LINE",
"93 634 LINE",
"105 609 OFFCURVE",
"105 534 OFFCURVE",
"105 407 CURVE SMOOTH",
"105 197 OFFCURVE",
"90 114 OFFCURVE",
"95 98 CURVE SMOOTH",
"99 86 OFFCURVE",
"115 71 OFFCURVE",
"144 65 CURVE",
"37 55 LINE",
"35 0 LINE",
"316 1 LINE",
"321 54 LINE",
"263 64 LINE",
"225 123 OFFCURVE",
"233 307 OFFCURVE",
"233 353 CURVE SMOOTH",
"233 510 OFFCURVE",
"240 589 OFFCURVE",
"253 610 CURVE SMOOTH",
"263 630 OFFCURVE",
"286 643 OFFCURVE",
"309 645 CURVE",
"310 700 LINE"
);
}
);
width = 646;
}
);
leftKerningGroup = I;
leftMetricsKey = I;
rightKerningGroup = B;
unicode = 0052;
},
{
glyphname = R.001;
lastChange = "2016-02-17 19:32:51 +0000";
layers = (
{
anchors = (
{
name = bottom;
position = "{291, 0}";
},
{
name = top;
position = "{330, 649}";
}
);
background = {
paths = (
{
closed = 1;
nodes = (
"286 352 LINE",
"294 272 OFFCURVE",
"374 52 OFFCURVE",
"401 32 CURVE SMOOTH",
"410 25 OFFCURVE",
"477 -3 OFFCURVE",
"530 -3 CURVE",
"565 5 OFFCURVE",
"602 26 OFFCURVE",
"607 29 CURVE",
"593 82 LINE",
"573 74 OFFCURVE",
"559 73 OFFCURVE",
"548 71 CURVE",
"495 127 OFFCURVE",
"396 326 OFFCURVE",
"372 425 CURVE"
);
},
{
closed = 1;
nodes = (
"54 700 LINE",
"44 644 LINE",
"90 635 LINE",
"101 610 OFFCURVE",
"95 487 OFFCURVE",
"90 427 CURVE SMOOTH",
"78 292 OFFCURVE",
"50 113 OFFCURVE",
"53 97 CURVE SMOOTH",
"54 88 OFFCURVE",
"62 71 OFFCURVE",
"100 59 CURVE",
"-7 59 LINE",
"-11 0 LINE",
"270 0 LINE",
"277 56 LINE",
"221 64 LINE",
"186 123 OFFCURVE",
"206 286 OFFCURVE",
"217 408 CURVE SMOOTH",
"227 521 OFFCURVE",
"234 589 OFFCURVE",
"246 611 CURVE SMOOTH",
"258 631 OFFCURVE",
"275 639 OFFCURVE",
"298 641 CURVE",
"304 699 LINE"
);
},
{
closed = 1;
nodes = (
"421 575 OFFCURVE",
"277 400 OFFCURVE",
"198 312 CURVE",
"195 187 LINE",
"354 372 LINE",
"433 465 OFFCURVE",
"523 577 OFFCURVE",
"551 606 CURVE SMOOTH",
"575 630 OFFCURVE",
"599 641 OFFCURVE",
"626 641 CURVE",
"632 700 LINE",
"410 700 LINE",
"400 642 LINE",
"450 633 LINE"
);
}
);
};
guideLines = (
{
position = "{503, 480}";
}
);
layerId = "71FD7A9F-05F5-4D76-8D4F-547475A05E4C";
name = "Bold Italic";
paths = (
{
closed = 1;
nodes = (
"404 288 LINE",
"509 318 OFFCURVE",
"586 436 OFFCURVE",
"566 551 CURVE SMOOTH",
"530 754 OFFCURVE",
"210 703 OFFCURVE",
"86 699 CURVE",
"79 644 LINE",
"126 635 LINE",
"137 595 OFFCURVE",
"131 466 OFFCURVE",
"116 326 CURVE SMOOTH",
"98 158 OFFCURVE",
"86 103 OFFCURVE",
"91 92 CURVE SMOOTH",
"94 83 OFFCURVE",
"126 57 OFFCURVE",
"150 57 CURVE",
"32 58 LINE",
"26 0 LINE",
"297 0 LINE",
"305 54 LINE",
"256 62 LINE",
"235 115 OFFCURVE",
"228 157 OFFCURVE",
"239 285 CURVE",
"258 283 OFFCURVE",
"316 283 OFFCURVE",
"339 284 CURVE"
);
},
{
closed = 1;
nodes = (
"249 469 OFFCURVE",
"259 546 OFFCURVE",
"276 622 CURVE",
"455 635 OFFCURVE",
"474 402 OFFCURVE",
"360 361 CURVE",
"340 361 OFFCURVE",
"291 356 OFFCURVE",
"241 374 CURVE"
);
},
{
closed = 1;
nodes = (
"315 288 LINE",
"320 270 OFFCURVE",
"363 60 OFFCURVE",
"401 32 CURVE SMOOTH",
"410 25 OFFCURVE",
"479 -3 OFFCURVE",
"532 -3 CURVE",
"565 5 OFFCURVE",
"602 26 OFFCURVE",
"607 29 CURVE",
"593 82 LINE",
"578 76 OFFCURVE",
"559 72 OFFCURVE",
"548 71 CURVE",
"495 127 OFFCURVE",
"445 226 OFFCURVE",
"421 324 CURVE"
);
}
);
width = 625;
},
{
layerId = "11343128-4963-4E5D-BE9C-B74F53B36FA5";
name = Bold;
width = 0;
}
);
leftKerningGroup = I;
leftMetricsKey = I;
rightKerningGroup = B;
},
{
glyphname = S;
lastChange = "2016-02-17 19:11:32 +0000";
layers = (
{
anchors = (
{
name = bottom;
position = "{249, 0}";
},
{
name = top;
position = "{321, 648}";
}
);
background = {
paths = (
{
closed = 1;
nodes = (
"565 47 LINE",
"555 53 OFFCURVE",
"539 65 OFFCURVE",
"526 76 CURVE SMOOTH",
"497 100 OFFCURVE",
"438 211 OFFCURVE",
"356 349 CURVE SMOOTH",
"274 487 OFFCURVE",
"252 525 OFFCURVE",
"215 589 CURVE",
"282 589 OFFCURVE",
"400 585 OFFCURVE",
"468 579 CURVE",
"502 511 LINE",
"549 519 LINE",
"515 700 LINE",
"371 700 OFFCURVE",
"194 693 OFFCURVE",
"39 700 CURVE",
"26 650 LINE",
"37 645 OFFCURVE",
"50 635 OFFCURVE",
"67 620 CURVE SMOOTH",
"104 588 OFFCURVE",
"155 525 OFFCURVE",
"262 347 CURVE",
"336 213 OFFCURVE",
"358 172 OFFCURVE",
"384 114 CURVE",
"340 116 OFFCURVE",
"303 118 OFFCURVE",
"260 121 CURVE SMOOTH",
"162 128 OFFCURVE",
"123 143 OFFCURVE",
"109 188 CURVE",
"64 178 LINE",
"99 0 LINE",
"266 0 OFFCURVE",
"394 5 OFFCURVE",
"549 0 CURVE"
);
}
);
};
guideLines = (
{
position = "{42, 57}";
}
);
layerId = "71FD7A9F-05F5-4D76-8D4F-547475A05E4C";
name = "Bold Italic";
paths = (
{
closed = 1;
nodes = (
"260 -38 OFFCURVE",
"99 -15 OFFCURVE",
"26 66 CURVE",
"30 78 OFFCURVE",
"42 166 OFFCURVE",
"51 200 CURVE",
"63 205 OFFCURVE",
"89 208 OFFCURVE",
"104 213 CURVE",
"123 116 OFFCURVE",
"208 82 OFFCURVE",
"298 79 CURVE",
"333 94 OFFCURVE",
"381 144 OFFCURVE",
"375 185 CURVE SMOOTH",
"369 226 OFFCURVE",
"309 261 OFFCURVE",
"232 303 CURVE SMOOTH",
"160 341 OFFCURVE",
"53 391 OFFCURVE",
"62 510 CURVE SMOOTH",
"72 640 OFFCURVE",
"160 703 OFFCURVE",
"278 716 CURVE SMOOTH",
"378 727 OFFCURVE",
"459 693 OFFCURVE",
"508 645 CURVE",
"504 617 OFFCURVE",
"493 535 OFFCURVE",
"489 506 CURVE",
"423 495 LINE",
"419 548 LINE",
"382 598 OFFCURVE",
"329 625 OFFCURVE",
"272 625 CURVE",
"224 607 OFFCURVE",
"184 559 OFFCURVE",
"196 515 CURVE SMOOTH",
"205 484 OFFCURVE",
"254 448 OFFCURVE",
"324 414 CURVE SMOOTH",
"391 380 OFFCURVE",
"514 317 OFFCURVE",
"507 203 CURVE SMOOTH",
"501 109 OFFCURVE",
"469 58 OFFCURVE",
"383 19 CURVE SMOOTH"
);
}
);
width = 539;
},
{
layerId = "11343128-4963-4E5D-BE9C-B74F53B36FA5";
name = Bold;
paths = (
{
closed = 1;
nodes = (
"278 -38 OFFCURVE",
"118 -15 OFFCURVE",
"40 66 CURVE",
"43 78 OFFCURVE",
"49 166 OFFCURVE",
"56 200 CURVE",
"68 205 OFFCURVE",
"93 208 OFFCURVE",
"107 213 CURVE",
"133 116 OFFCURVE",
"218 82 OFFCURVE",
"308 79 CURVE",
"342 94 OFFCURVE",
"387 144 OFFCURVE",
"378 185 CURVE SMOOTH",
"369 226 OFFCURVE",
"307 261 OFFCURVE",
"227 303 CURVE SMOOTH",
"152 341 OFFCURVE",
"41 391 OFFCURVE",
"42 510 CURVE SMOOTH",
"43 640 OFFCURVE",
"127 703 OFFCURVE",
"244 716 CURVE SMOOTH",
"342 727 OFFCURVE",
"426 693 OFFCURVE",
"479 645 CURVE",
"476 617 OFFCURVE",
"471 535 OFFCURVE",
"469 506 CURVE",
"404 495 LINE",
"397 548 LINE",
"356 598 OFFCURVE",
"301 625 OFFCURVE",
"244 625 CURVE",
"198 607 OFFCURVE",
"160 559 OFFCURVE",
"176 515 CURVE SMOOTH",
"187 484 OFFCURVE",
"238 448 OFFCURVE",
"311 414 CURVE SMOOTH",
"380 380 OFFCURVE",
"508 317 OFFCURVE",
"509 203 CURVE SMOOTH",
"509 109 OFFCURVE",
"480 58 OFFCURVE",
"397 19 CURVE SMOOTH"
);
}
);
width = 539;
}
);
leftKerningGroup = I;
rightKerningGroup = I;
unicode = 0053;
},
{
glyphname = S.001;
lastChange = "2015-12-01 10:14:33 +0000";
layers = (
{
anchors = (
{
name = bottom;
position = "{246, 0}";
},
{
name = top;
position = "{307, 648}";
}
);
background = {
paths = (
{
closed = 1;
nodes = (
"556 47 LINE",
"546 53 OFFCURVE",
"530 65 OFFCURVE",
"517 76 CURVE SMOOTH",
"488 100 OFFCURVE",
"429 211 OFFCURVE",
"347 349 CURVE SMOOTH",
"265 487 OFFCURVE",
"243 525 OFFCURVE",
"206 589 CURVE",
"273 589 OFFCURVE",
"391 585 OFFCURVE",
"459 579 CURVE",
"493 511 LINE",
"540 519 LINE",
"506 700 LINE",
"362 700 OFFCURVE",
"185 693 OFFCURVE",
"30 700 CURVE",
"17 650 LINE",
"28 645 OFFCURVE",
"41 635 OFFCURVE",
"58 620 CURVE SMOOTH",
"95 588 OFFCURVE",
"146 525 OFFCURVE",
"253 347 CURVE",
"327 213 OFFCURVE",
"349 172 OFFCURVE",
"375 114 CURVE",
"331 116 OFFCURVE",
"294 118 OFFCURVE",
"251 121 CURVE SMOOTH",
"153 128 OFFCURVE",
"114 143 OFFCURVE",
"100 188 CURVE",
"55 178 LINE",
"90 0 LINE",
"257 0 OFFCURVE",
"385 5 OFFCURVE",
"540 0 CURVE"
);
}
);
};
guideLines = (
{
position = "{33, 57}";
}
);
layerId = "71FD7A9F-05F5-4D76-8D4F-547475A05E4C";
name = "Bold Italic";
paths = (
{
closed = 1;
nodes = (
"268 -38 OFFCURVE",
"109 -15 OFFCURVE",
"37 65 CURVE",
"41 77 OFFCURVE",
"53 164 OFFCURVE",
"62 198 CURVE",
"75 202 OFFCURVE",
"100 205 OFFCURVE",
"114 210 CURVE",
"133 114 OFFCURVE",
"216 81 OFFCURVE",
"306 78 CURVE",
"341 93 OFFCURVE",
"389 142 OFFCURVE",
"383 183 CURVE SMOOTH",
"377 223 OFFCURVE",
"318 258 OFFCURVE",
"240 299 CURVE SMOOTH",
"168 337 OFFCURVE",
"61 387 OFFCURVE",
"70 504 CURVE SMOOTH",
"80 633 OFFCURVE",
"168 695 OFFCURVE",
"286 708 CURVE SMOOTH",
"385 719 OFFCURVE",
"466 685 OFFCURVE",
"516 638 CURVE",
"511 610 OFFCURVE",
"501 540 OFFCURVE",
"497 511 CURVE",
"431 500 LINE",
"428 553 LINE",
"391 602 OFFCURVE",
"337 620 OFFCURVE",
"280 620 CURVE",
"233 602 OFFCURVE",
"191 553 OFFCURVE",
"204 509 CURVE SMOOTH",
"213 479 OFFCURVE",
"262 443 OFFCURVE",
"332 409 CURVE SMOOTH",
"399 376 OFFCURVE",
"522 313 OFFCURVE",
"516 200 CURVE SMOOTH",
"509 107 OFFCURVE",
"477 57 OFFCURVE",
"391 18 CURVE SMOOTH"
);
}
);
width = 542;
},
{
layerId = "11343128-4963-4E5D-BE9C-B74F53B36FA5";
name = Bold;
width = 600;
}
);
leftKerningGroup = I;
rightKerningGroup = I;
},
{
glyphname = Germandbls;
lastChange = "2016-02-17 19:32:51 +0000";
layers = (
{
background = {
paths = (
{
closed = 1;
nodes = (
"539 645 LINE",
"481 620 LINE",
"417 544 OFFCURVE",
"368 475 OFFCURVE",
"309 412 CURVE",
"292 361 LINE",
"372 331 OFFCURVE",
"444 249 OFFCURVE",
"449 193 CURVE SMOOTH",
"454 136 OFFCURVE",
"428 96 OFFCURVE",
"407 80 CURVE",
"379 82 OFFCURVE",
"323 116 OFFCURVE",
"292 147 CURVE",
"240 48 LINE",
"283 6 OFFCURVE",
"363 -13 OFFCURVE",
"423 -4 CURVE SMOOTH",
"487 6 OFFCURVE",
"579 57 OFFCURVE",
"580 193 CURVE SMOOTH",
"581 315 OFFCURVE",
"484 374 OFFCURVE",
"397 389 CURVE",
"573 604 LINE"
);
}
);
};
layerId = "71FD7A9F-05F5-4D76-8D4F-547475A05E4C";
name = "Bold Italic";
paths = (
{
closed = 1;
nodes = (
"573 609 OFFCURVE",
"561 658 OFFCURVE",
"542 678 CURVE",
"497 632 LINE",
"507 644 OFFCURVE",
"273 388 OFFCURVE",
"292 408 CURVE",
"301 380 LINE",
"378 348 OFFCURVE",
"441 246 OFFCURVE",
"447 186 CURVE SMOOTH",
"452 134 OFFCURVE",
"426 88 OFFCURVE",
"407 75 CURVE",
"379 77 OFFCURVE",
"323 114 OFFCURVE",
"292 145 CURVE",
"240 46 LINE",
"284 3 OFFCURVE",
"366 -15 OFFCURVE",
"423 -6 CURVE SMOOTH",
"487 4 OFFCURVE",
"582 58 OFFCURVE",
"582 190 CURVE SMOOTH",
"582 312 OFFCURVE",
"502 399 OFFCURVE",
"415 440 CURVE",
"465 500 OFFCURVE",
"516 544 OFFCURVE",
"575 601 CURVE"
);
},
{
closed = 1;
nodes = (
"499 628 LINE",
"473 667 OFFCURVE",
"415 712 OFFCURVE",
"291 716 CURVE",
"178 702 OFFCURVE",
"119 640 OFFCURVE",
"108 515 CURVE SMOOTH",
"97 385 OFFCURVE",
"88 287 OFFCURVE",
"67 93 CURVE",
"68 84 OFFCURVE",
"84 67 OFFCURVE",
"122 55 CURVE",
"13 55 LINE",
"8 0 LINE",
"209 0 LINE",
"204 82 OFFCURVE",
"222 340 OFFCURVE",
"232 448 CURVE SMOOTH",
"242 559 OFFCURVE",
"255 601 OFFCURVE",
"309 621 CURVE",
"360 605 OFFCURVE",
"412 559 OFFCURVE",
"418 517 CURVE"
);
}
);
width = 602;
},
{
layerId = "11343128-4963-4E5D-BE9C-B74F53B36FA5";
name = Bold;
width = 15;
}
);
leftKerningGroup = I;
leftMetricsKey = "=I-5";
rightKerningGroup = B;
rightMetricsKey = "=B-20";
unicode = 1E9E;
},
{
glyphname = T;
lastChange = "2016-02-17 19:32:20 +0000";
layers = (
{
anchors = (
{
name = bottom;
position = "{309, 0}";
},
{
name = center;
position = "{340, 350}";
},
{
name = top;
position = "{348, 646}";
}
);
background = {
components = (
{
name = H;
transform = "{1, 0, 0, 1, -67, 0}";
}
);
};
guideLines = (
{
position = "{413, 637}";
},
{
position = "{592, 535}";
}
);
layerId = "71FD7A9F-05F5-4D76-8D4F-547475A05E4C";
name = "Bold Italic";
paths = (
{
closed = 1;
nodes = (
"275 610 LINE",
"169 611 OFFCURVE",
"119 606 OFFCURVE",
"95 528 CURVE",
"44 539 LINE",
"80 702 LINE",
"252 696 OFFCURVE",
"431 696 OFFCURVE",
"601 702 CURVE",
"612 539 LINE",
"551 529 LINE",
"527 601 LINE",
"488 608 OFFCURVE",
"443 610 OFFCURVE",
"408 609 CURVE"
);
},
{
closed = 1;
nodes = (
"471 645 LINE",
"448 643 OFFCURVE",
"423 630 OFFCURVE",
"412 610 CURVE SMOOTH",
"395 589 OFFCURVE",
"384 510 OFFCURVE",
"370 353 CURVE SMOOTH",
"366 307 OFFCURVE",
"342 123 OFFCURVE",
"375 64 CURVE",
"432 54 LINE",
"423 1 LINE",
"142 0 LINE",
"148 55 LINE",
"256 65 LINE",
"227 71 OFFCURVE",
"212 86 OFFCURVE",
"211 98 CURVE SMOOTH",
"207 114 OFFCURVE",
"228 197 OFFCURVE",
"247 407 CURVE SMOOTH",
"258 534 OFFCURVE",
"266 609 OFFCURVE",
"255 634 CURVE",
"200 645 LINE",
"210 697 LINE",
"477 697 LINE"
);
}
);
width = 588;
},
{
layerId = "11343128-4963-4E5D-BE9C-B74F53B36FA5";
name = Bold;
paths = (
{
closed = 1;
nodes = (
"416 610 OFFCURVE",
"463 608 OFFCURVE",
"503 601 CURVE",
"533 529 LINE",
"593 539 LINE",
"568 702 LINE",
"398 696 OFFCURVE",
"219 696 OFFCURVE",
"47 702 CURVE",
"25 539 LINE",
"77 528 LINE",
"95 606 OFFCURVE",
"142 611 OFFCURVE",
"248 610 CURVE",
"381 609 LINE"
);
},
{
closed = 1;
nodes = (
"175 697 LINE",
"170 645 LINE",
"225 634 LINE",
"237 609 OFFCURVE",
"237 534 OFFCURVE",
"237 407 CURVE SMOOTH",
"237 197 OFFCURVE",
"222 114 OFFCURVE",
"227 98 CURVE SMOOTH",
"231 86 OFFCURVE",
"247 71 OFFCURVE",
"276 65 CURVE",
"169 55 LINE",
"167 0 LINE",
"448 1 LINE",
"453 54 LINE",
"395 64 LINE",
"357 123 OFFCURVE",
"365 307 OFFCURVE",
"365 353 CURVE SMOOTH",
"365 510 OFFCURVE",
"364 589 OFFCURVE",
"377 610 CURVE SMOOTH",
"387 630 OFFCURVE",
"418 643 OFFCURVE",
"441 645 CURVE",
"442 697 LINE"
);
}
);
width = 613;
}
);
leftKerningGroup = T;
rightKerningGroup = T;
unicode = 0054;
},
{
glyphname = T.001;
lastChange = "2015-12-01 10:14:33 +0000";
layers = (
{
anchors = (
{
name = bottom;
position = "{312, 0}";
},
{
name = center;
position = "{337, 350}";
},
{
name = top;
position = "{340, 646}";
}
);
background = {
paths = (
{
closed = 1;
nodes = (
"172 700 LINE",
"164 653 LINE",
"210 644 LINE",
"223 605 OFFCURVE",
"216 484 OFFCURVE",
"212 426 CURVE SMOOTH",
"202 263 OFFCURVE",
"176 104 OFFCURVE",
"181 89 CURVE SMOOTH",
"184 74 OFFCURVE",
"218 58 OFFCURVE",
"241 50 CURVE",
"123 50 LINE",
"119 0 LINE",
"409 0 LINE",
"417 47 LINE",
"347 57 LINE",
"321 106 OFFCURVE",
"325 196 OFFCURVE",
"329 323 CURVE",
"440 317 LINE",
"452 271 LINE",
"494 275 LINE",
"497 296 OFFCURVE",
"502 403 OFFCURVE",
"493 403 CURVE SMOOTH",
"487 403 OFFCURVE",
"330 396 OFFCURVE",
"334 396 CURVE",
"344 533 OFFCURVE",
"353 566 OFFCURVE",
"364 616 CURVE",
"419 616 OFFCURVE",
"493 614 OFFCURVE",
"557 606 CURVE",
"587 537 LINE",
"637 547 LINE",
"617 699 LINE"
);
}
);
};
guideLines = (
{
position = "{410, 637}";
},
{
position = "{589, 535}";
}
);
layerId = "71FD7A9F-05F5-4D76-8D4F-547475A05E4C";
name = "Bold Italic";
paths = (
{
closed = 1;
nodes = (
"626 538 LINE",
"565 528 LINE",
"536 597 LINE",
"502 603 OFFCURVE",
"466 608 OFFCURVE",
"433 608 CURVE",
"406 586 OFFCURVE",
"400 517 OFFCURVE",
"392 443 CURVE SMOOTH",
"376 296 OFFCURVE",
"364 119 OFFCURVE",
"397 63 CURVE",
"453 55 LINE",
"449 0 LINE",
"156 0 LINE",
"161 58 LINE",
"279 58 LINE",
"244 72 OFFCURVE",
"222 85 OFFCURVE",
"220 96 CURVE",
"217 111 OFFCURVE",
"250 319 OFFCURVE",
"258 427 CURVE SMOOTH",
"262 480 OFFCURVE",
"270 570 OFFCURVE",
"262 609 CURVE",
"166 609 OFFCURVE",
"127 599 OFFCURVE",
"109 527 CURVE",
"58 538 LINE",
"87 701 LINE",
"258 698 OFFCURVE",
"435 698 OFFCURVE",
"606 701 CURVE"
);
}
);
width = 615;
},
{
layerId = "11343128-4963-4E5D-BE9C-B74F53B36FA5";
name = Bold;
width = 600;
}
);
leftKerningGroup = T;
rightKerningGroup = T;
},
{
glyphname = U;
lastChange = "2016-02-17 19:11:32 +0000";
layers = (
{
anchors = (
{
name = bottom;
position = "{328, 0}";
},
{
name = ogonek;
position = "{434, 12}";
},
{
name = top;
position = "{402, 700}";
},
{
name = topright;
position = "{729, 700}";
}
);
background = {
paths = (
{
closed = 1;
nodes = (
"27 87 LINE",
"27 169 OFFCURVE",
"27 610 OFFCURVE",
"27 617 CURVE SMOOTH",
"27 628 OFFCURVE",
"27 642 OFFCURVE",
"27 650 CURVE",
"27 650 LINE",
"27 700 LINE",
"27 700 LINE",
"27 653 LINE",
"27 645 LINE",
"27 613 OFFCURVE",
"27 448 OFFCURVE",
"27 327 CURVE SMOOTH",
"27 220 OFFCURVE",
"27 44 OFFCURVE",
"27 0 CURVE"
);
}
);
};
layerId = "71FD7A9F-05F5-4D76-8D4F-547475A05E4C";
name = "Bold Italic";
paths = (
{
closed = 1;
nodes = (
"480 645 LINE",
"533 635 LINE",
"544 607 OFFCURVE",
"534 494 OFFCURVE",
"517 312 CURVE SMOOTH",
"506 178 OFFCURVE",
"466 119 OFFCURVE",
"422 97 CURVE",
"324 82 OFFCURVE",
"277 125 OFFCURVE",
"260 200 CURVE SMOOTH",
"245 264 OFFCURVE",
"282 563 OFFCURVE",
"294 611 CURVE",
"289 621 OFFCURVE",
"261 634 OFFCURVE",
"247 636 CURVE",
"285 638 OFFCURVE",
"330 642 OFFCURVE",
"353 645 CURVE",
"360 699 LINE",
"90 700 LINE",
"78 646 LINE",
"139 634 LINE",
"147 599 OFFCURVE",
"124 382 OFFCURVE",
"114 273 CURVE SMOOTH",
"106 192 OFFCURVE",
"120 122 OFFCURVE",
"149 77 CURVE SMOOTH",
"207 -9 OFFCURVE",
"343 -38 OFFCURVE",
"449 10 CURVE SMOOTH",
"535 49 OFFCURVE",
"603 133 OFFCURVE",
"616 280 CURVE SMOOTH",
"627 417 OFFCURVE",
"639 496 OFFCURVE",
"648 563 CURVE SMOOTH",
"655 611 OFFCURVE",
"673 643 OFFCURVE",
"723 645 CURVE",
"729 700 LINE",
"492 700 LINE"
);
}
);
width = 700;
},
{
background = {
components = (
{
name = I;
transform = "{-1, 0, 0, -1, 354, 700}";
}
);
};
layerId = "11343128-4963-4E5D-BE9C-B74F53B36FA5";
name = Bold;
paths = (
{
closed = 1;
nodes = (
"434 645 LINE",
"488 635 LINE",
"502 607 OFFCURVE",
"500 494 OFFCURVE",
"500 312 CURVE SMOOTH",
"500 178 OFFCURVE",
"465 119 OFFCURVE",
"422 97 CURVE",
"326 82 OFFCURVE",
"268 125 OFFCURVE",
"245 200 CURVE SMOOTH",
"224 264 OFFCURVE",
"235 563 OFFCURVE",
"243 611 CURVE",
"237 621 OFFCURVE",
"208 634 OFFCURVE",
"194 636 CURVE",
"232 638 OFFCURVE",
"277 642 OFFCURVE",
"299 645 CURVE",
"302 699 LINE",
"36 700 LINE",
"30 646 LINE",
"91 634 LINE",
"103 599 OFFCURVE",
"97 382 OFFCURVE",
"97 273 CURVE SMOOTH",
"97 192 OFFCURVE",
"115 122 OFFCURVE",
"149 77 CURVE SMOOTH",
"215 -9 OFFCURVE",
"355 -38 OFFCURVE",
"457 10 CURVE SMOOTH",
"540 49 OFFCURVE",
"602 133 OFFCURVE",
"602 280 CURVE SMOOTH",
"602 417 OFFCURVE",
"605 496 OFFCURVE",
"609 563 CURVE SMOOTH",
"612 611 OFFCURVE",
"628 643 OFFCURVE",
"678 645 CURVE",
"680 700 LINE",
"442 700 LINE"
);
}
);
width = 700;
}
);
leftKerningGroup = V;
rightKerningGroup = U;
unicode = 0055;
},
{
glyphname = U.001;
lastChange = "2015-12-01 10:14:33 +0000";
layers = (
{
anchors = (
{
name = bottom;
position = "{322, 0}";
},
{
name = ogonek;
position = "{402, 3}";
},
{
name = top;
position = "{383, 647}";
},
{
name = topright;
position = "{713, 700}";
}
);
background = {
paths = (
{
closed = 1;
nodes = (
"395 87 LINE",
"382 169 OFFCURVE",
"284 610 OFFCURVE",
"280 617 CURVE SMOOTH",
"273 628 OFFCURVE",
"256 642 OFFCURVE",
"233 650 CURVE",
"326 650 LINE",
"332 700 LINE",
"71 700 LINE",
"61 653 LINE",
"115 645 LINE",
"139 613 OFFCURVE",
"181 448 OFFCURVE",
"212 327 CURVE SMOOTH",
"239 220 OFFCURVE",
"276 44 OFFCURVE",
"288 0 CURVE"
);
}
);
};
guideLines = (
{
angle = 84;
position = "{82, 327}";
},
{
angle = 84;
position = "{349, 321}";
},
{
angle = 84;
position = "{621, 295}";
}
);
layerId = "71FD7A9F-05F5-4D76-8D4F-547475A05E4C";
name = "Bold Italic";
paths = (
{
closed = 1;
nodes = (
"449 645 LINE",
"506 636 LINE",
"515 564 OFFCURVE",
"500 433 OFFCURVE",
"481 255 CURVE SMOOTH",
"474 183 OFFCURVE",
"432 116 OFFCURVE",
"396 95 CURVE",
"291 84 OFFCURVE",
"257 134 OFFCURVE",
"238 209 CURVE SMOOTH",
"222 273 OFFCURVE",
"256 541 OFFCURVE",
"261 611 CURVE",
"256 621 OFFCURVE",
"227 641 OFFCURVE",
"213 643 CURVE",
"252 643 OFFCURVE",
"308 643 OFFCURVE",
"321 643 CURVE",
"326 699 LINE",
"72 700 LINE",
"63 646 LINE",
"116 634 LINE",
"104 478 OFFCURVE",
"94 380 OFFCURVE",
"89 271 CURVE SMOOTH",
"85 189 OFFCURVE",
"96 124 OFFCURVE",
"128 79 CURVE SMOOTH",
"189 -7 OFFCURVE",
"315 -37 OFFCURVE",
"423 11 CURVE SMOOTH",
"511 50 OFFCURVE",
"570 130 OFFCURVE",
"587 280 CURVE SMOOTH",
"601 404 OFFCURVE",
"607 498 OFFCURVE",
"618 565 CURVE SMOOTH",
"624 603 OFFCURVE",
"659 641 OFFCURVE",
"700 643 CURVE",
"703 700 LINE",
"456 701 LINE"
);
}
);
width = 688;
},
{
layerId = "11343128-4963-4E5D-BE9C-B74F53B36FA5";
name = Bold;
width = 600;
}
);
leftKerningGroup = I;
rightKerningGroup = U;
},
{
glyphname = V;
lastChange = "2016-02-17 19:11:32 +0000";
layers = (
{
background = {
paths = (
{
closed = 1;
nodes = (
"741 193 LINE",
"711 344 OFFCURVE",
"656 594 OFFCURVE",
"654 605 CURVE SMOOTH",
"650 634 OFFCURVE",
"663 650 OFFCURVE",
"696 650 CURVE",
"701 700 LINE",
"458 700 LINE",
"449 653 LINE",
"496 643 LINE",
"537 519 OFFCURVE",
"595 278 OFFCURVE",
"661 0 CURVE",
"663 0 LINE",
"762 58 LINE"
);
},
{
closed = 1;
nodes = (
"505 424 OFFCURVE",
"462 304 OFFCURVE",
"419 193 CURVE",
"395 349 OFFCURVE",
"339 613 OFFCURVE",
"336 618 CURVE SMOOTH",
"330 629 OFFCURVE",
"320 641 OFFCURVE",
"298 651 CURVE",
"379 651 LINE",
"384 700 LINE",
"141 700 LINE",
"132 653 LINE",
"183 647 LINE",
"216 569 OFFCURVE",
"316 110 OFFCURVE",
"335 0 CURVE",
"440 0 LINE",
"610 511 LINE",
"543 538 LINE"
);
},
{
closed = 1;
nodes = (
"872 614 OFFCURVE",
"842 518 OFFCURVE",
"826 468 CURVE SMOOTH",
"708 87 OFFCURVE",
"707 75 OFFCURVE",
"661 0 CURVE",
"765 0 LINE",
"855 276 OFFCURVE",
"942 534 OFFCURVE",
"961 580 CURVE SMOOTH",
"986 640 OFFCURVE",
"1025 650 OFFCURVE",
"1051 650 CURVE",
"1056 700 LINE",
"810 700 LINE",
"801 653 LINE",
"864 644 LINE"
);
}
);
};
layerId = "71FD7A9F-05F5-4D76-8D4F-547475A05E4C";
name = "Bold Italic";
paths = (
{
closed = 1;
nodes = (
"387 117 LINE",
"373 189 OFFCURVE",
"279 591 OFFCURVE",
"277 601 CURVE SMOOTH",
"272 623 OFFCURVE",
"249 634 OFFCURVE",
"227 636 CURVE",
"325 645 LINE",
"332 700 LINE",
"68 700 LINE",
"58 645 LINE",
"108 635 LINE",
"121 603 OFFCURVE",
"165 442 OFFCURVE",
"196 321 CURVE SMOOTH",
"228 210 OFFCURVE",
"266 69 OFFCURVE",
"280 -4 CURVE"
);
},
{
closed = 1;
nodes = (
"557 604 OFFCURVE",
"502 463 OFFCURVE",
"481 412 CURVE SMOOTH",
"340 67 OFFCURVE",
"309 40 OFFCURVE",
"282 -4 CURVE",
"401 0 LINE",
"520 270 OFFCURVE",
"609 480 OFFCURVE",
"658 584 CURVE SMOOTH",
"681 631 OFFCURVE",
"715 645 OFFCURVE",
"746 645 CURVE",
"754 700 LINE",
"509 700 LINE",
"497 645 LINE",
"551 636 LINE"
);
}
);
width = 710;
},
{
background = {
paths = (
{
closed = 1;
nodes = (
"83 576 OFFCURVE",
"95 492 OFFCURVE",
"88 414 CURVE",
"214 430 LINE",
"218 539 OFFCURVE",
"227 589 OFFCURVE",
"225 605 CURVE SMOOTH",
"224 613 OFFCURVE",
"218 627 OFFCURVE",
"186 639 CURVE",
"281 645 LINE",
"281 700 LINE",
"16 700 LINE",
"10 645 LINE",
"67 635 LINE"
);
}
);
};
layerId = "11343128-4963-4E5D-BE9C-B74F53B36FA5";
name = Bold;
paths = (
{
closed = 1;
nodes = (
"380 117 LINE",
"360 189 OFFCURVE",
"231 591 OFFCURVE",
"228 601 CURVE SMOOTH",
"221 623 OFFCURVE",
"197 634 OFFCURVE",
"175 636 CURVE",
"272 645 LINE",
"275 700 LINE",
"11 700 LINE",
"5 645 LINE",
"56 635 LINE",
"72 603 OFFCURVE",
"130 442 OFFCURVE",
"172 321 CURVE SMOOTH",
"213 210 OFFCURVE",
"263 73 OFFCURVE",
"283 0 CURVE"
);
},
{
closed = 1;
nodes = (
"508 604 OFFCURVE",
"465 463 OFFCURVE",
"449 412 CURVE SMOOTH",
"338 67 OFFCURVE",
"308 44 OFFCURVE",
"285 0 CURVE",
"404 0 LINE",
"500 270 OFFCURVE",
"571 480 OFFCURVE",
"611 584 CURVE SMOOTH",
"629 631 OFFCURVE",
"662 645 OFFCURVE",
"693 645 CURVE",
"697 700 LINE",
"452 700 LINE",
"444 645 LINE",
"499 636 LINE"
);
}
);
width = 702;
}
);
leftKerningGroup = V;
rightKerningGroup = V;
unicode = 0056;
},
{
glyphname = V.001;
lastChange = "2015-12-01 10:14:33 +0000";
layers = (
{
background = {
paths = (
{
closed = 1;
nodes = (
"699 193 LINE",
"669 344 OFFCURVE",
"614 594 OFFCURVE",
"612 605 CURVE SMOOTH",
"608 634 OFFCURVE",
"621 650 OFFCURVE",
"654 650 CURVE",
"659 700 LINE",
"416 700 LINE",
"407 653 LINE",
"454 643 LINE",
"495 519 OFFCURVE",
"553 278 OFFCURVE",
"619 0 CURVE",
"621 0 LINE",
"720 58 LINE"
);
},
{
closed = 1;
nodes = (
"463 424 OFFCURVE",
"420 304 OFFCURVE",
"377 193 CURVE",
"353 349 OFFCURVE",
"297 613 OFFCURVE",
"294 618 CURVE SMOOTH",
"288 629 OFFCURVE",
"278 641 OFFCURVE",
"256 651 CURVE",
"337 651 LINE",
"342 700 LINE",
"99 700 LINE",
"90 653 LINE",
"141 647 LINE",
"174 569 OFFCURVE",
"274 110 OFFCURVE",
"293 0 CURVE",
"398 0 LINE",
"568 511 LINE",
"501 538 LINE"
);
},
{
closed = 1;
nodes = (
"830 614 OFFCURVE",
"800 518 OFFCURVE",
"784 468 CURVE SMOOTH",
"666 87 OFFCURVE",
"665 75 OFFCURVE",
"619 0 CURVE",
"723 0 LINE",
"813 276 OFFCURVE",
"900 534 OFFCURVE",
"919 580 CURVE SMOOTH",
"944 640 OFFCURVE",
"983 650 OFFCURVE",
"1009 650 CURVE",
"1014 700 LINE",
"768 700 LINE",
"759 653 LINE",
"822 644 LINE"
);
}
);
};
layerId = "71FD7A9F-05F5-4D76-8D4F-547475A05E4C";
name = "Bold Italic";
paths = (
{
closed = 1;
nodes = (
"386 90 LINE",
"373 172 OFFCURVE",
"279 602 OFFCURVE",
"276 609 CURVE SMOOTH",
"268 620 OFFCURVE",
"251 634 OFFCURVE",
"228 642 CURVE",
"322 642 LINE",
"328 700 LINE",
"64 700 LINE",
"53 645 LINE",
"108 637 LINE",
"132 605 OFFCURVE",
"175 448 OFFCURVE",
"207 327 CURVE SMOOTH",
"234 220 OFFCURVE",
"272 37 OFFCURVE",
"284 -7 CURVE"
);
},
{
closed = 1;
nodes = (
"521 600 OFFCURVE",
"470 463 OFFCURVE",
"452 412 CURVE SMOOTH",
"355 144 OFFCURVE",
"308 37 OFFCURVE",
"286 -7 CURVE",
"404 0 LINE",
"498 270 OFFCURVE",
"601 537 OFFCURVE",
"621 584 CURVE SMOOTH",
"642 630 OFFCURVE",
"678 642 OFFCURVE",
"708 642 CURVE",
"714 700 LINE",
"454 700 LINE",
"444 645 LINE",
"512 632 LINE"
);
}
);
width = 675;
},
{
layerId = "11343128-4963-4E5D-BE9C-B74F53B36FA5";
name = Bold;
width = 600;
}
);
leftKerningGroup = V;
rightKerningGroup = V;
},
{
glyphname = V.002;
layers = (
{
background = {
paths = (
{
closed = 1;
nodes = (
"699 193 LINE",
"669 344 OFFCURVE",
"614 594 OFFCURVE",
"612 605 CURVE SMOOTH",
"608 634 OFFCURVE",
"621 650 OFFCURVE",
"654 650 CURVE",
"659 700 LINE",
"416 700 LINE",
"407 653 LINE",
"454 643 LINE",
"495 519 OFFCURVE",
"553 278 OFFCURVE",
"619 0 CURVE",
"621 0 LINE",
"720 58 LINE"
);
},
{
closed = 1;
nodes = (
"463 424 OFFCURVE",
"420 304 OFFCURVE",
"377 193 CURVE",
"353 349 OFFCURVE",
"297 613 OFFCURVE",
"294 618 CURVE SMOOTH",
"288 629 OFFCURVE",
"278 641 OFFCURVE",
"256 651 CURVE",
"337 651 LINE",
"342 700 LINE",
"99 700 LINE",
"90 653 LINE",
"141 647 LINE",
"174 569 OFFCURVE",
"274 110 OFFCURVE",
"293 0 CURVE",
"398 0 LINE",
"568 511 LINE",
"501 538 LINE"
);
},
{
closed = 1;
nodes = (
"830 614 OFFCURVE",
"800 518 OFFCURVE",
"784 468 CURVE SMOOTH",
"666 87 OFFCURVE",
"665 75 OFFCURVE",
"619 0 CURVE",
"723 0 LINE",
"813 276 OFFCURVE",
"900 534 OFFCURVE",
"919 580 CURVE SMOOTH",
"944 640 OFFCURVE",
"983 650 OFFCURVE",
"1009 650 CURVE",
"1014 700 LINE",
"768 700 LINE",
"759 653 LINE",
"822 644 LINE"
);
}
);
};
layerId = "71FD7A9F-05F5-4D76-8D4F-547475A05E4C";
name = "Bold Italic";
paths = (
{
closed = 1;
nodes = (
"386 90 LINE",
"373 172 OFFCURVE",
"279 602 OFFCURVE",
"276 609 CURVE SMOOTH",
"268 620 OFFCURVE",
"251 634 OFFCURVE",
"228 642 CURVE",
"322 642 LINE",
"328 700 LINE",
"64 700 LINE",
"53 645 LINE",
"108 637 LINE",
"132 605 OFFCURVE",
"175 448 OFFCURVE",
"207 327 CURVE SMOOTH",
"234 220 OFFCURVE",
"272 37 OFFCURVE",
"284 -7 CURVE"
);
},
{
closed = 1;
nodes = (
"521 600 OFFCURVE",
"470 463 OFFCURVE",
"452 412 CURVE SMOOTH",
"355 144 OFFCURVE",
"308 37 OFFCURVE",
"286 -7 CURVE",
"394 0 LINE",
"494 270 OFFCURVE",
"601 537 OFFCURVE",
"621 584 CURVE SMOOTH",
"642 630 OFFCURVE",
"678 642 OFFCURVE",
"708 642 CURVE",
"714 700 LINE",
"454 700 LINE",
"444 645 LINE",
"512 632 LINE"
);
}
);
width = 675;
},
{
background = {
paths = (
{
closed = 1;
nodes = (
"69 576 OFFCURVE",
"81 492 OFFCURVE",
"74 414 CURVE",
"200 430 LINE",
"204 539 OFFCURVE",
"213 589 OFFCURVE",
"211 605 CURVE SMOOTH",
"210 613 OFFCURVE",
"204 627 OFFCURVE",
"172 639 CURVE",
"267 645 LINE",
"267 700 LINE",
"2 700 LINE",
"-4 645 LINE",
"53 635 LINE"
);
}
);
};
layerId = "11343128-4963-4E5D-BE9C-B74F53B36FA5";
name = Bold;
paths = (
{
closed = 1;
nodes = (
"380 117 LINE",
"359 189 OFFCURVE",
"213 593 OFFCURVE",
"209 603 CURVE SMOOTH",
"202 616 OFFCURVE",
"184 631 OFFCURVE",
"157 639 CURVE",
"255 645 LINE",
"257 700 LINE",
"-26 700 LINE",
"-33 645 LINE",
"29 635 LINE",
"46 603 OFFCURVE",
"110 442 OFFCURVE",
"155 321 CURVE SMOOTH",
"197 210 OFFCURVE",
"258 44 OFFCURVE",
"276 0 CURVE"
);
},
{
closed = 1;
nodes = (
"483 604 OFFCURVE",
"444 463 OFFCURVE",
"428 412 CURVE SMOOTH",
"318 67 OFFCURVE",
"300 44 OFFCURVE",
"278 0 CURVE",
"391 0 LINE",
"482 270 OFFCURVE",
"555 480 OFFCURVE",
"593 584 CURVE SMOOTH",
"610 631 OFFCURVE",
"643 645 OFFCURVE",
"674 645 CURVE",
"677 700 LINE",
"425 700 LINE",
"418 645 LINE",
"473 636 LINE"
);
}
);
width = 701;
}
);
leftKerningGroup = V;
rightKerningGroup = V;
},
{
glyphname = W;
lastChange = "2016-02-17 19:11:32 +0000";
layers = (
{
anchors = (
{
name = bottom;
position = "{446, 0}";
},
{
name = top;
position = "{503, 646}";
}
);
guideLines = (
{
position = "{731, 177}";
}
);
layerId = "71FD7A9F-05F5-4D76-8D4F-547475A05E4C";
name = "Bold Italic";
paths = (
{
closed = 1;
nodes = (
"400 117 LINE",
"385 189 OFFCURVE",
"294 593 OFFCURVE",
"291 603 CURVE SMOOTH",
"286 616 OFFCURVE",
"274 628 OFFCURVE",
"248 636 CURVE",
"331 645 LINE",
"338 700 LINE",
"69 700 LINE",
"58 645 LINE",
"119 635 LINE",
"133 603 OFFCURVE",
"176 442 OFFCURVE",
"209 321 CURVE SMOOTH",
"241 209 OFFCURVE",
"282 38 OFFCURVE",
"293 -6 CURVE"
);
},
{
closed = 1;
nodes = (
"538 604 OFFCURVE",
"492 463 OFFCURVE",
"471 412 CURVE SMOOTH",
"333 67 OFFCURVE",
"321 38 OFFCURVE",
"294 -6 CURVE",
"400 0 LINE",
"512 270 OFFCURVE",
"597 490 OFFCURVE",
"620 537 CURVE",
"533 636 LINE"
);
},
{
closed = 1;
nodes = (
"728 117 LINE",
"717 189 OFFCURVE",
"637 593 OFFCURVE",
"636 603 CURVE SMOOTH",
"632 627 OFFCURVE",
"646 645 OFFCURVE",
"683 645 CURVE",
"692 700 LINE",
"424 700 LINE",
"413 645 LINE",
"472 635 LINE",
"484 603 OFFCURVE",
"519 442 OFFCURVE",
"546 321 CURVE SMOOTH",
"572 210 OFFCURVE",
"607 38 OFFCURVE",
"619 -6 CURVE"
);
},
{
closed = 1;
nodes = (
"886 604 OFFCURVE",
"832 463 OFFCURVE",
"810 412 CURVE SMOOTH",
"667 65 OFFCURVE",
"664 48 OFFCURVE",
"618 -6 CURVE",
"729 0 LINE",
"902 400 OFFCURVE",
"966 537 OFFCURVE",
"991 584 CURVE SMOOTH",
"1018 630 OFFCURVE",
"1048 645 OFFCURVE",
"1082 645 CURVE",
"1089 700 LINE",
"838 700 LINE",
"827 645 LINE",
"880 636 LINE"
);
}
);
width = 1045;
},
{
background = {
components = (
{
name = V;
}
);
};
guideLines = (
{
position = "{1458, 194}";
},
{
angle = 70;
position = "{829, 288}";
}
);
layerId = "11343128-4963-4E5D-BE9C-B74F53B36FA5";
name = Bold;
paths = (
{
closed = 1;
nodes = (
"398 117 LINE",
"377 189 OFFCURVE",
"251 593 OFFCURVE",
"247 603 CURVE SMOOTH",
"240 616 OFFCURVE",
"228 628 OFFCURVE",
"201 636 CURVE",
"283 645 LINE",
"286 700 LINE",
"17 700 LINE",
"10 645 LINE",
"72 635 LINE",
"89 603 OFFCURVE",
"146 442 OFFCURVE",
"190 321 CURVE SMOOTH",
"231 209 OFFCURVE",
"286 44 OFFCURVE",
"301 0 CURVE"
);
},
{
closed = 1;
nodes = (
"494 604 OFFCURVE",
"460 463 OFFCURVE",
"444 412 CURVE SMOOTH",
"336 67 OFFCURVE",
"325 44 OFFCURVE",
"302 0 CURVE",
"408 0 LINE",
"497 270 OFFCURVE",
"563 490 OFFCURVE",
"582 537 CURVE",
"486 636 LINE"
);
},
{
closed = 1;
nodes = (
"718 117 LINE",
"701 189 OFFCURVE",
"586 593 OFFCURVE",
"584 603 CURVE SMOOTH",
"578 627 OFFCURVE",
"590 645 OFFCURVE",
"627 645 CURVE",
"632 700 LINE",
"372 700 LINE",
"365 645 LINE",
"425 635 LINE",
"440 603 OFFCURVE",
"489 442 OFFCURVE",
"527 321 CURVE SMOOTH",
"562 210 OFFCURVE",
"611 44 OFFCURVE",
"627 0 CURVE"
);
},
{
closed = 1;
nodes = (
"842 604 OFFCURVE",
"800 463 OFFCURVE",
"783 412 CURVE SMOOTH",
"670 65 OFFCURVE",
"668 54 OFFCURVE",
"626 0 CURVE",
"737 0 LINE",
"876 400 OFFCURVE",
"928 537 OFFCURVE",
"949 584 CURVE SMOOTH",
"971 630 OFFCURVE",
"1000 645 OFFCURVE",
"1034 645 CURVE",
"1037 700 LINE",
"786 700 LINE",
"779 645 LINE",
"833 636 LINE"
);
}
);
width = 1047;
}
);
leftKerningGroup = V;
rightKerningGroup = V;
unicode = 0057;
},
{
glyphname = W.001;
lastChange = "2016-02-17 19:32:51 +0000";
layers = (
{
anchors = (
{
name = bottom;
position = "{443, 0}";
},
{
name = top;
position = "{489, 646}";
}
);
guideLines = (
{
position = "{722, 177}";
}
);
layerId = "71FD7A9F-05F5-4D76-8D4F-547475A05E4C";
name = "Bold Italic";
paths = (
{
closed = 1;
nodes = (
"656 193 LINE",
"631 344 OFFCURVE",
"585 587 OFFCURVE",
"584 598 CURVE SMOOTH",
"581 627 OFFCURVE",
"596 643 OFFCURVE",
"643 643 CURVE",
"650 700 LINE",
"382 700 LINE",
"371 646 LINE",
"430 636 LINE",
"467 512 OFFCURVE",
"516 272 OFFCURVE",
"573 -6 CURVE",
"575 -6 LINE",
"679 59 LINE"
);
},
{
closed = 1;
nodes = (
"430 512 OFFCURVE",
"368 289 OFFCURVE",
"333 178 CURVE",
"309 334 OFFCURVE",
"271 606 OFFCURVE",
"269 611 CURVE SMOOTH",
"263 622 OFFCURVE",
"253 634 OFFCURVE",
"231 644 CURVE",
"312 644 LINE",
"319 700 LINE",
"69 700 LINE",
"58 646 LINE",
"109 640 LINE",
"140 562 OFFCURVE",
"218 106 OFFCURVE",
"233 -4 CURVE",
"366 5 LINE",
"417 154 OFFCURVE",
"492 402 OFFCURVE",
"528 503 CURVE",
"459 626 LINE"
);
},
{
closed = 1;
nodes = (
"772 604 OFFCURVE",
"750 517 OFFCURVE",
"737 466 CURVE SMOOTH",
"709 353 OFFCURVE",
"677 240 OFFCURVE",
"643 127 CURVE",
"573 -6 LINE",
"709 8 LINE",
"727 82 OFFCURVE",
"854 527 OFFCURVE",
"870 573 CURVE SMOOTH",
"891 635 OFFCURVE",
"936 643 OFFCURVE",
"962 643 CURVE",
"969 700 LINE",
"713 700 LINE",
"702 646 LINE",
"765 634 LINE"
);
}
);
width = 925;
},
{
layerId = "11343128-4963-4E5D-BE9C-B74F53B36FA5";
name = Bold;
width = 5;
}
);
leftKerningGroup = V;
leftMetricsKey = V;
rightKerningGroup = V;
rightMetricsKey = V;
},
{
glyphname = W.002;
lastChange = "2015-12-01 12:31:29 +0000";
layers = (
{
anchors = (
{
name = bottom;
position = "{457, 0}";
},
{
name = top;
position = "{503, 646}";
}
);
background = {
paths = (
{
closed = 1;
nodes = (
"411 117 LINE",
"395 189 OFFCURVE",
"295 593 OFFCURVE",
"292 603 CURVE SMOOTH",
"286 616 OFFCURVE",
"275 631 OFFCURVE",
"248 639 CURVE",
"334 645 LINE",
"337 700 LINE",
"63 700 LINE",
"53 645 LINE",
"114 635 LINE",
"129 603 OFFCURVE",
"174 442 OFFCURVE",
"210 321 CURVE SMOOTH",
"243 209 OFFCURVE",
"286 39 OFFCURVE",
"298 -5 CURVE"
);
},
{
closed = 1;
nodes = (
"564 604 OFFCURVE",
"511 463 OFFCURVE",
"489 412 CURVE SMOOTH",
"346 67 OFFCURVE",
"325 39 OFFCURVE",
"299 -5 CURVE",
"410 5 LINE",
"525 275 OFFCURVE",
"628 490 OFFCURVE",
"650 537 CURVE",
"558 636 LINE"
);
},
{
closed = 1;
nodes = (
"741 117 LINE",
"729 189 OFFCURVE",
"647 593 OFFCURVE",
"646 603 CURVE SMOOTH",
"641 627 OFFCURVE",
"660 645 OFFCURVE",
"697 645 CURVE",
"700 700 LINE",
"428 700 LINE",
"418 645 LINE",
"477 635 LINE",
"490 603 OFFCURVE",
"527 442 OFFCURVE",
"557 321 CURVE SMOOTH",
"584 210 OFFCURVE",
"621 39 OFFCURVE",
"634 -5 CURVE"
);
},
{
closed = 1;
nodes = (
"892 604 OFFCURVE",
"840 463 OFFCURVE",
"819 412 CURVE SMOOTH",
"682 65 OFFCURVE",
"679 49 OFFCURVE",
"633 -5 CURVE",
"744 5 LINE",
"911 405 OFFCURVE",
"973 537 OFFCURVE",
"997 584 CURVE SMOOTH",
"1023 630 OFFCURVE",
"1056 645 OFFCURVE",
"1087 645 CURVE",
"1093 700 LINE",
"842 700 LINE",
"832 645 LINE",
"885 636 LINE"
);
}
);
};
guideLines = (
{
position = "{736, 177}";
}
);
layerId = "71FD7A9F-05F5-4D76-8D4F-547475A05E4C";
name = "Bold Italic";
paths = (
{
closed = 1;
nodes = (
"411 117 LINE",
"395 189 OFFCURVE",
"295 593 OFFCURVE",
"292 603 CURVE SMOOTH",
"286 616 OFFCURVE",
"275 631 OFFCURVE",
"248 639 CURVE",
"334 645 LINE",
"337 700 LINE",
"63 700 LINE",
"53 645 LINE",
"114 635 LINE",
"129 603 OFFCURVE",
"174 442 OFFCURVE",
"210 321 CURVE SMOOTH",
"243 209 OFFCURVE",
"286 39 OFFCURVE",
"298 -5 CURVE"
);
},
{
closed = 1;
nodes = (
"564 604 OFFCURVE",
"511 463 OFFCURVE",
"489 412 CURVE SMOOTH",
"346 67 OFFCURVE",
"325 39 OFFCURVE",
"299 -5 CURVE",
"410 5 LINE",
"525 275 OFFCURVE",
"628 490 OFFCURVE",
"650 537 CURVE",
"558 636 LINE"
);
},
{
closed = 1;
nodes = (
"741 117 LINE",
"729 189 OFFCURVE",
"647 593 OFFCURVE",
"646 603 CURVE SMOOTH",
"641 627 OFFCURVE",
"660 645 OFFCURVE",
"697 645 CURVE",
"700 700 LINE",
"428 700 LINE",
"418 645 LINE",
"477 635 LINE",
"490 603 OFFCURVE",
"527 442 OFFCURVE",
"557 321 CURVE SMOOTH",
"584 210 OFFCURVE",
"621 39 OFFCURVE",
"634 -5 CURVE"
);
},
{
closed = 1;
nodes = (
"892 604 OFFCURVE",
"840 463 OFFCURVE",
"819 412 CURVE SMOOTH",
"682 65 OFFCURVE",
"679 49 OFFCURVE",
"633 -5 CURVE",
"744 5 LINE",
"911 405 OFFCURVE",
"973 537 OFFCURVE",
"997 584 CURVE SMOOTH",
"1023 630 OFFCURVE",
"1056 645 OFFCURVE",
"1087 645 CURVE",
"1093 700 LINE",
"842 700 LINE",
"832 645 LINE",
"885 636 LINE"
);
}
);
width = 1050;
},
{
background = {
paths = (
{
closed = 1;
nodes = (
"708 193 LINE",
"671 344 OFFCURVE",
"605 587 OFFCURVE",
"604 598 CURVE SMOOTH",
"599 627 OFFCURVE",
"613 645 OFFCURVE",
"660 645 CURVE",
"663 700 LINE",
"408 700 LINE",
"400 645 LINE",
"460 636 LINE",
"505 512 OFFCURVE",
"562 278 OFFCURVE",
"642 0 CURVE",
"644 0 LINE",
"749 59 LINE"
);
},
{
closed = 1;
nodes = (
"477 519 OFFCURVE",
"416 286 OFFCURVE",
"387 175 CURVE",
"352 331 OFFCURVE",
"295 606 OFFCURVE",
"293 611 CURVE SMOOTH",
"286 622 OFFCURVE",
"275 633 OFFCURVE",
"252 641 CURVE",
"333 645 LINE",
"337 700 LINE",
"87 700 LINE",
"80 645 LINE",
"131 640 LINE",
"167 562 OFFCURVE",
"280 110 OFFCURVE",
"303 0 CURVE",
"422 0 LINE",
"466 149 OFFCURVE",
"535 409 OFFCURVE",
"564 510 CURVE",
"498 633 LINE"
);
},
{
closed = 1;
nodes = (
"796 605 OFFCURVE",
"780 517 OFFCURVE",
"771 466 CURVE SMOOTH",
"751 353 OFFCURVE",
"727 240 OFFCURVE",
"701 127 CURVE",
"642 0 LINE",
"761 0 LINE",
"774 74 OFFCURVE",
"884 527 OFFCURVE",
"896 573 CURVE SMOOTH",
"913 635 OFFCURVE",
"958 645 OFFCURVE",
"984 645 CURVE",
"987 700 LINE",
"731 700 LINE",
"723 645 LINE",
"787 635 LINE"
);
}
);
};
guideLines = (
{
position = "{1466, 194}";
},
{
angle = 70;
position = "{837, 288}";
}
);
layerId = "11343128-4963-4E5D-BE9C-B74F53B36FA5";
name = Bold;
paths = (
{
closed = 1;
nodes = (
"408 117 LINE",
"387 189 OFFCURVE",
"259 593 OFFCURVE",
"255 603 CURVE SMOOTH",
"248 616 OFFCURVE",
"236 631 OFFCURVE",
"209 639 CURVE",
"294 645 LINE",
"294 700 LINE",
"20 700 LINE",
"13 645 LINE",
"75 635 LINE",
"92 603 OFFCURVE",
"149 442 OFFCURVE",
"193 321 CURVE SMOOTH",
"234 209 OFFCURVE",
"289 44 OFFCURVE",
"304 0 CURVE"
);
},
{
closed = 1;
nodes = (
"527 604 OFFCURVE",
"484 463 OFFCURVE",
"466 412 CURVE SMOOTH",
"347 67 OFFCURVE",
"328 44 OFFCURVE",
"305 0 CURVE",
"416 0 LINE",
"512 270 OFFCURVE",
"599 490 OFFCURVE",
"618 537 CURVE",
"519 636 LINE"
);
},
{
closed = 1;
nodes = (
"738 117 LINE",
"721 189 OFFCURVE",
"611 593 OFFCURVE",
"609 603 CURVE SMOOTH",
"603 627 OFFCURVE",
"620 645 OFFCURVE",
"657 645 CURVE",
"657 700 LINE",
"385 700 LINE",
"378 645 LINE",
"438 635 LINE",
"453 603 OFFCURVE",
"502 442 OFFCURVE",
"540 321 CURVE SMOOTH",
"575 210 OFFCURVE",
"624 44 OFFCURVE",
"640 0 CURVE"
);
},
{
closed = 1;
nodes = (
"855 604 OFFCURVE",
"813 463 OFFCURVE",
"796 412 CURVE SMOOTH",
"683 65 OFFCURVE",
"681 54 OFFCURVE",
"639 0 CURVE",
"750 0 LINE",
"889 400 OFFCURVE",
"941 537 OFFCURVE",
"962 584 CURVE SMOOTH",
"984 630 OFFCURVE",
"1016 645 OFFCURVE",
"1047 645 CURVE",
"1050 700 LINE",
"799 700 LINE",
"792 645 LINE",
"846 636 LINE"
);
}
);
width = 1111;
}
);
leftKerningGroup = V;
rightKerningGroup = V;
},
{
glyphname = X;
lastChange = "2016-02-17 19:11:32 +0000";
layers = (
{
background = {
paths = (
{
closed = 1;
nodes = (
"353 352 LINE",
"361 272 OFFCURVE",
"441 52 OFFCURVE",
"468 32 CURVE SMOOTH",
"477 25 OFFCURVE",
"549 -1 OFFCURVE",
"602 -1 CURVE",
"637 7 OFFCURVE",
"664 25 OFFCURVE",
"669 28 CURVE",
"664 74 LINE",
"644 66 OFFCURVE",
"630 65 OFFCURVE",
"619 63 CURVE",
"566 119 OFFCURVE",
"463 326 OFFCURVE",
"439 425 CURVE"
);
},
{
closed = 1;
nodes = (
"121 700 LINE",
"113 653 LINE",
"159 644 LINE",
"170 619 OFFCURVE",
"162 487 OFFCURVE",
"157 427 CURVE SMOOTH",
"145 292 OFFCURVE",
"118 104 OFFCURVE",
"121 88 CURVE SMOOTH",
"122 79 OFFCURVE",
"130 62 OFFCURVE",
"168 50 CURVE",
"61 50 LINE",
"57 0 LINE",
"338 0 LINE",
"345 47 LINE",
"289 55 LINE",
"254 114 OFFCURVE",
"273 286 OFFCURVE",
"284 408 CURVE SMOOTH",
"294 521 OFFCURVE",
"303 598 OFFCURVE",
"315 620 CURVE SMOOTH",
"327 640 OFFCURVE",
"344 648 OFFCURVE",
"367 650 CURVE",
"371 699 LINE"
);
},
{
closed = 1;
nodes = (
"490 584 OFFCURVE",
"344 400 OFFCURVE",
"265 312 CURVE",
"263 203 LINE",
"411 372 LINE",
"490 465 OFFCURVE",
"592 586 OFFCURVE",
"620 615 CURVE SMOOTH",
"644 639 OFFCURVE",
"668 650 OFFCURVE",
"695 650 CURVE",
"699 700 LINE",
"477 700 LINE",
"469 651 LINE",
"519 642 LINE"
);
}
);
};
guideLines = (
{
angle = -96;
position = "{667, 306}";
}
);
layerId = "71FD7A9F-05F5-4D76-8D4F-547475A05E4C";
name = "Bold Italic";
paths = (
{
closed = 1;
nodes = (
"330 305 LINE",
"367 229 OFFCURVE",
"400 174 OFFCURVE",
"426 130 CURVE SMOOTH",
"457 77 OFFCURVE",
"479 68 OFFCURVE",
"499 65 CURVE",
"404 55 LINE",
"398 0 LINE",
"693 0 LINE",
"705 55 LINE",
"644 65 LINE",
"579 168 OFFCURVE",
"451 340 OFFCURVE",
"405 425 CURVE"
);
},
{
closed = 1;
nodes = (
"500 561 OFFCURVE",
"430 469 OFFCURVE",
"371 393 CURVE",
"418 320 LINE",
"489 413 OFFCURVE",
"618 580 OFFCURVE",
"647 609 CURVE SMOOTH",
"671 633 OFFCURVE",
"700 643 OFFCURVE",
"729 645 CURVE",
"733 700 LINE",
"495 700 LINE",
"486 645 LINE",
"539 635 LINE"
);
},
{
closed = 1;
nodes = (
"244 123 OFFCURVE",
"340 243 OFFCURVE",
"374 289 CURVE",
"310 361 LINE",
"246 274 OFFCURVE",
"126 124 OFFCURVE",
"83 91 CURVE SMOOTH",
"54 68 OFFCURVE",
"28 55 OFFCURVE",
"1 55 CURVE",
"-3 0 LINE",
"251 0 LINE",
"259 55 LINE",
"210 65 LINE"
);
},
{
closed = 1;
nodes = (
"420 386 LINE",
"376 464 OFFCURVE",
"340 521 OFFCURVE",
"316 574 CURVE SMOOTH",
"303 604 OFFCURVE",
"293 645 OFFCURVE",
"352 645 CURVE",
"356 700 LINE",
"72 700 LINE",
"63 645 LINE",
"118 635 LINE",
"209 497 OFFCURVE",
"304 329 OFFCURVE",
"335 272 CURVE"
);
}
);
width = 709;
},
{
background = {
components = (
{
name = V;
transform = "{-1, 0, 0, -1, 692, 700}";
}
);
};
guideLines = (
{
angle = 90;
position = "{14, 134}";
},
{
angle = 90;
position = "{701, 135}";
},
{
angle = 56;
position = "{348, 360}";
}
);
layerId = "11343128-4963-4E5D-BE9C-B74F53B36FA5";
name = Bold;
paths = (
{
closed = 1;
nodes = (
"320 305 LINE",
"363 229 OFFCURVE",
"401 174 OFFCURVE",
"431 130 CURVE SMOOTH",
"467 77 OFFCURVE",
"490 68 OFFCURVE",
"510 65 CURVE",
"416 55 LINE",
"414 0 LINE",
"709 0 LINE",
"717 55 LINE",
"655 65 LINE",
"581 168 OFFCURVE",
"438 340 OFFCURVE",
"385 425 CURVE"
);
},
{
closed = 1;
nodes = (
"467 561 OFFCURVE",
"406 469 OFFCURVE",
"353 393 CURVE",
"407 320 LINE",
"470 413 OFFCURVE",
"584 580 OFFCURVE",
"610 609 CURVE SMOOTH",
"632 633 OFFCURVE",
"661 643 OFFCURVE",
"689 645 CURVE",
"689 700 LINE",
"451 700 LINE",
"446 645 LINE",
"500 635 LINE"
);
},
{
closed = 1;
nodes = (
"250 123 OFFCURVE",
"335 243 OFFCURVE",
"365 289 CURVE",
"295 361 LINE",
"238 274 OFFCURVE",
"132 124 OFFCURVE",
"92 91 CURVE SMOOTH",
"65 68 OFFCURVE",
"40 55 OFFCURVE",
"13 55 CURVE",
"13 0 LINE",
"267 0 LINE",
"271 55 LINE",
"221 65 LINE"
);
},
{
closed = 1;
nodes = (
"402 386 LINE",
"352 464 OFFCURVE",
"311 521 OFFCURVE",
"282 574 CURVE SMOOTH",
"267 604 OFFCURVE",
"253 645 OFFCURVE",
"312 645 CURVE",
"312 700 LINE",
"28 700 LINE",
"23 645 LINE",
"79 635 LINE",
"182 497 OFFCURVE",
"291 329 OFFCURVE",
"327 272 CURVE"
);
}
);
width = 727;
}
);
leftKerningGroup = X;
rightKerningGroup = X;
unicode = 0058;
},
{
glyphname = X.001;
lastChange = "2015-12-01 10:14:33 +0000";
layers = (
{
background = {
paths = (
{
closed = 1;
nodes = (
"339 352 LINE",
"347 272 OFFCURVE",
"427 52 OFFCURVE",
"454 32 CURVE SMOOTH",
"463 25 OFFCURVE",
"535 -1 OFFCURVE",
"588 -1 CURVE",
"623 7 OFFCURVE",
"650 25 OFFCURVE",
"655 28 CURVE",
"650 74 LINE",
"630 66 OFFCURVE",
"616 65 OFFCURVE",
"605 63 CURVE",
"552 119 OFFCURVE",
"449 326 OFFCURVE",
"425 425 CURVE"
);
},
{
closed = 1;
nodes = (
"107 700 LINE",
"99 653 LINE",
"145 644 LINE",
"156 619 OFFCURVE",
"148 487 OFFCURVE",
"143 427 CURVE SMOOTH",
"131 292 OFFCURVE",
"104 104 OFFCURVE",
"107 88 CURVE SMOOTH",
"108 79 OFFCURVE",
"116 62 OFFCURVE",
"154 50 CURVE",
"47 50 LINE",
"43 0 LINE",
"324 0 LINE",
"331 47 LINE",
"275 55 LINE",
"240 114 OFFCURVE",
"259 286 OFFCURVE",
"270 408 CURVE SMOOTH",
"280 521 OFFCURVE",
"289 598 OFFCURVE",
"301 620 CURVE SMOOTH",
"313 640 OFFCURVE",
"330 648 OFFCURVE",
"353 650 CURVE",
"357 699 LINE"
);
},
{
closed = 1;
nodes = (
"476 584 OFFCURVE",
"330 400 OFFCURVE",
"251 312 CURVE",
"249 203 LINE",
"397 372 LINE",
"476 465 OFFCURVE",
"578 586 OFFCURVE",
"606 615 CURVE SMOOTH",
"630 639 OFFCURVE",
"654 650 OFFCURVE",
"681 650 CURVE",
"685 700 LINE",
"463 700 LINE",
"455 651 LINE",
"505 642 LINE"
);
}
);
};
guideLines = (
{
angle = -96;
position = "{653, 306}";
}
);
layerId = "71FD7A9F-05F5-4D76-8D4F-547475A05E4C";
name = "Bold Italic";
paths = (
{
closed = 1;
nodes = (
"288 346 LINE",
"328 252 OFFCURVE",
"385 136 OFFCURVE",
"407 88 CURVE SMOOTH",
"412 77 OFFCURVE",
"424 65 OFFCURVE",
"448 55 CURVE",
"366 55 LINE",
"363 0 LINE",
"633 0 LINE",
"640 53 LINE",
"589 61 LINE",
"518 164 OFFCURVE",
"431 326 OFFCURVE",
"388 411 CURVE"
);
},
{
closed = 1;
nodes = (
"468 556 OFFCURVE",
"391 460 OFFCURVE",
"349 410 CURVE",
"389 321 LINE",
"456 414 OFFCURVE",
"574 580 OFFCURVE",
"602 609 CURVE SMOOTH",
"627 633 OFFCURVE",
"651 644 OFFCURVE",
"679 644 CURVE",
"683 700 LINE",
"449 700 LINE",
"441 647 LINE",
"496 639 LINE"
);
},
{
closed = 1;
nodes = (
"219 119 OFFCURVE",
"308 241 OFFCURVE",
"339 291 CURVE",
"293 363 LINE",
"235 270 OFFCURVE",
"117 118 OFFCURVE",
"87 91 CURVE SMOOTH",
"58 67 OFFCURVE",
"34 56 OFFCURVE",
"7 56 CURVE",
"3 0 LINE",
"228 0 LINE",
"235 53 LINE",
"185 61 LINE"
);
},
{
closed = 1;
nodes = (
"381 402 LINE",
"338 486 OFFCURVE",
"322 521 OFFCURVE",
"297 574 CURVE SMOOTH",
"283 604 OFFCURVE",
"269 645 OFFCURVE",
"329 645 CURVE",
"333 700 LINE",
"76 700 LINE",
"68 647 LINE",
"115 637 LINE",
"192 499 OFFCURVE",
"249 396 OFFCURVE",
"282 329 CURVE"
);
}
);
width = 661;
},
{
layerId = "11343128-4963-4E5D-BE9C-B74F53B36FA5";
name = Bold;
width = 600;
}
);
leftKerningGroup = X;
rightKerningGroup = X;
},
{
glyphname = Y;
lastChange = "2016-02-17 19:11:32 +0000";
layers = (
{
anchors = (
{
name = bottom;
position = "{302, 0}";
},
{
name = top;
position = "{376, 646}";
},
{
name = topleft;
position = "{93, 700}";
}
);
background = {
paths = (
{
closed = 1;
nodes = (
"287 341 LINE",
"324 247 OFFCURVE",
"370 130 OFFCURVE",
"392 82 CURVE SMOOTH",
"397 71 OFFCURVE",
"409 59 OFFCURVE",
"432 49 CURVE",
"352 49 LINE",
"347 0 LINE",
"613 0 LINE",
"618 47 LINE",
"571 55 LINE",
"503 158 OFFCURVE",
"428 318 OFFCURVE",
"386 403 CURVE"
);
},
{
closed = 1;
nodes = (
"465 562 OFFCURVE",
"382 446 OFFCURVE",
"340 396 CURVE",
"375 320 LINE",
"443 413 OFFCURVE",
"569 586 OFFCURVE",
"598 615 CURVE SMOOTH",
"622 639 OFFCURVE",
"646 650 OFFCURVE",
"673 650 CURVE",
"678 700 LINE",
"444 700 LINE",
"439 653 LINE",
"493 645 LINE"
);
},
{
closed = 1;
nodes = (
"222 113 OFFCURVE",
"311 257 OFFCURVE",
"342 307 CURVE",
"293 361 LINE",
"235 268 OFFCURVE",
"122 112 OFFCURVE",
"91 85 CURVE SMOOTH",
"63 61 OFFCURVE",
"39 50 OFFCURVE",
"12 50 CURVE",
"7 0 LINE",
"230 0 LINE",
"235 47 LINE",
"188 55 LINE"
);
},
{
closed = 1;
nodes = (
"379 394 LINE",
"338 478 OFFCURVE",
"316 521 OFFCURVE",
"297 574 CURVE SMOOTH",
"284 610 OFFCURVE",
"270 651 OFFCURVE",
"329 651 CURVE",
"334 700 LINE",
"77 700 LINE",
"72 653 LINE",
"119 643 LINE",
"192 505 OFFCURVE",
"247 388 OFFCURVE",
"278 321 CURVE"
);
}
);
};
layerId = "71FD7A9F-05F5-4D76-8D4F-547475A05E4C";
name = "Bold Italic";
paths = (
{
closed = 1;
nodes = (
"501 578 OFFCURVE",
"407 383 OFFCURVE",
"319 266 CURVE",
"383 198 LINE",
"432 291 OFFCURVE",
"600 580 OFFCURVE",
"629 609 CURVE SMOOTH",
"653 633 OFFCURVE",
"688 645 OFFCURVE",
"715 645 CURVE",
"719 700 LINE",
"478 700 LINE",
"467 645 LINE",
"528 636 LINE"
);
},
{
closed = 1;
nodes = (
"393 338 LINE",
"355 431 OFFCURVE",
"285 581 OFFCURVE",
"279 601 CURVE SMOOTH",
"272 623 OFFCURVE",
"282 645 OFFCURVE",
"323 645 CURVE",
"327 700 LINE",
"69 700 LINE",
"58 645 LINE",
"109 636 LINE",
"215 419 OFFCURVE",
"259 320 OFFCURVE",
"306 207 CURVE"
);
},
{
closed = 1;
nodes = (
"404 106 OFFCURVE",
"411 228 OFFCURVE",
"419 306 CURVE",
"291 290 LINE",
"277 181 OFFCURVE",
"257 110 OFFCURVE",
"263 95 CURVE SMOOTH",
"266 86 OFFCURVE",
"277 74 OFFCURVE",
"305 65 CURVE",
"197 55 LINE",
"190 0 LINE",
"475 0 LINE",
"485 55 LINE",
"425 65 LINE"
);
}
);
width = 682;
},
{
annotations = (
{
position = "{-186, 798}";
text = "82\U00B0";
type = Text;
},
{
position = "{224, -14}";
text = "This Serif!";
type = Text;
width = 83;
}
);
background = {
components = (
{
name = F;
transform = "{1, 0, 0, 1, 164, 0}";
}
);
};
guideLines = (
{
position = "{258, 273}";
}
);
layerId = "11343128-4963-4E5D-BE9C-B74F53B36FA5";
name = Bold;
paths = (
{
closed = 1;
nodes = (
"462 578 OFFCURVE",
"385 383 OFFCURVE",
"307 266 CURVE",
"378 198 LINE",
"418 291 OFFCURVE",
"561 580 OFFCURVE",
"587 609 CURVE SMOOTH",
"609 633 OFFCURVE",
"643 645 OFFCURVE",
"670 645 CURVE",
"670 700 LINE",
"429 700 LINE",
"422 645 LINE",
"484 636 LINE"
);
},
{
closed = 1;
nodes = (
"375 338 LINE",
"329 431 OFFCURVE",
"246 581 OFFCURVE",
"238 601 CURVE SMOOTH",
"229 623 OFFCURVE",
"237 645 OFFCURVE",
"278 645 CURVE",
"278 700 LINE",
"20 700 LINE",
"13 645 LINE",
"65 636 LINE",
"190 419 OFFCURVE",
"243 320 OFFCURVE",
"299 207 CURVE"
);
},
{
closed = 1;
nodes = (
"406 106 OFFCURVE",
"403 228 OFFCURVE",
"404 306 CURVE",
"277 290 LINE",
"273 181 OFFCURVE",
"259 110 OFFCURVE",
"266 95 CURVE SMOOTH",
"270 86 OFFCURVE",
"282 74 OFFCURVE",
"311 65 CURVE",
"204 55 LINE",
"201 0 LINE",
"486 0 LINE",
"492 55 LINE",
"431 65 LINE"
);
}
);
width = 680;
}
);
leftKerningGroup = V;
rightKerningGroup = V;
unicode = 0059;
},
{
glyphname = Y.001;
lastChange = "2015-12-01 10:14:33 +0000";
layers = (
{
anchors = (
{
name = bottom;
position = "{289, 0}";
},
{
name = top;
position = "{352, 646}";
},
{
name = topleft;
position = "{68, 700}";
}
);
background = {
paths = (
{
closed = 1;
nodes = (
"268 341 LINE",
"305 247 OFFCURVE",
"351 130 OFFCURVE",
"373 82 CURVE SMOOTH",
"378 71 OFFCURVE",
"390 59 OFFCURVE",
"413 49 CURVE",
"333 49 LINE",
"328 0 LINE",
"594 0 LINE",
"599 47 LINE",
"552 55 LINE",
"484 158 OFFCURVE",
"409 318 OFFCURVE",
"367 403 CURVE"
);
},
{
closed = 1;
nodes = (
"446 562 OFFCURVE",
"363 446 OFFCURVE",
"321 396 CURVE",
"356 320 LINE",
"424 413 OFFCURVE",
"550 586 OFFCURVE",
"579 615 CURVE SMOOTH",
"603 639 OFFCURVE",
"627 650 OFFCURVE",
"654 650 CURVE",
"659 700 LINE",
"425 700 LINE",
"420 653 LINE",
"474 645 LINE"
);
},
{
closed = 1;
nodes = (
"203 113 OFFCURVE",
"292 257 OFFCURVE",
"323 307 CURVE",
"274 361 LINE",
"216 268 OFFCURVE",
"103 112 OFFCURVE",
"72 85 CURVE SMOOTH",
"44 61 OFFCURVE",
"20 50 OFFCURVE",
"-7 50 CURVE",
"-12 0 LINE",
"211 0 LINE",
"216 47 LINE",
"169 55 LINE"
);
},
{
closed = 1;
nodes = (
"360 394 LINE",
"319 478 OFFCURVE",
"297 521 OFFCURVE",
"278 574 CURVE SMOOTH",
"265 610 OFFCURVE",
"251 651 OFFCURVE",
"310 651 CURVE",
"315 700 LINE",
"58 700 LINE",
"53 653 LINE",
"100 643 LINE",
"173 505 OFFCURVE",
"228 388 OFFCURVE",
"259 321 CURVE"
);
}
);
};
layerId = "71FD7A9F-05F5-4D76-8D4F-547475A05E4C";
name = "Bold Italic";
paths = (
{
closed = 1;
nodes = (
"273 267 LINE",
"262 158 OFFCURVE",
"247 111 OFFCURVE",
"250 95 CURVE SMOOTH",
"251 86 OFFCURVE",
"259 69 OFFCURVE",
"297 57 CURVE",
"192 57 LINE",
"188 0 LINE",
"454 0 LINE",
"462 54 LINE",
"406 62 LINE",
"394 121 OFFCURVE",
"388 205 OFFCURVE",
"400 283 CURVE"
);
},
{
closed = 1;
nodes = (
"462 581 OFFCURVE",
"379 374 OFFCURVE",
"292 257 CURVE",
"369 209 LINE",
"416 302 OFFCURVE",
"552 580 OFFCURVE",
"580 609 CURVE SMOOTH",
"604 633 OFFCURVE",
"628 644 OFFCURVE",
"655 644 CURVE",
"661 700 LINE",
"448 700 LINE",
"438 647 LINE",
"488 639 LINE"
);
},
{
closed = 1;
nodes = (
"383 319 LINE",
"336 412 OFFCURVE",
"269 577 OFFCURVE",
"264 600 CURVE SMOOTH",
"259 622 OFFCURVE",
"264 645 OFFCURVE",
"305 645 CURVE",
"311 700 LINE",
"62 700 LINE",
"52 647 LINE",
"97 639 LINE",
"206 422 OFFCURVE",
"244 333 OFFCURVE",
"285 216 CURVE"
);
}
);
width = 628;
},
{
layerId = "11343128-4963-4E5D-BE9C-B74F53B36FA5";
name = Bold;
width = 600;
}
);
leftKerningGroup = V;
rightKerningGroup = V;
},
{
glyphname = Z;
lastChange = "2016-02-17 19:11:32 +0000";
layers = (
{
anchors = (
{
name = bottom;
position = "{256, 0}";
},
{
name = top;
position = "{303, 656}";
}
);
background = {
components = (
{
name = T;
}
);
};
layerId = "71FD7A9F-05F5-4D76-8D4F-547475A05E4C";
name = "Bold Italic";
paths = (
{
closed = 1;
nodes = (
"407 695 OFFCURVE",
"262 700 OFFCURVE",
"95 700 CURVE",
"58 528 LINE",
"123 516 LINE",
"138 557 OFFCURVE",
"154 595 OFFCURVE",
"245 604 CURVE SMOOTH",
"289 608 OFFCURVE",
"353 610 OFFCURVE",
"397 612 CURVE",
"389 601 OFFCURVE",
"355 538 OFFCURVE",
"207 314 CURVE SMOOTH",
"125 189 OFFCURVE",
"64 98 OFFCURVE",
"2 60 CURVE",
"16 0 LINE",
"171 5 OFFCURVE",
"373 0 OFFCURVE",
"517 0 CURVE",
"547 167 LINE",
"489 177 LINE",
"454 105 LINE",
"385 96 OFFCURVE",
"282 86 OFFCURVE",
"215 86 CURVE",
"279 198 OFFCURVE",
"313 250 OFFCURVE",
"393 378 CURVE SMOOTH",
"511 564 OFFCURVE",
"551 623 OFFCURVE",
"580 640 CURVE",
"567 700 LINE"
);
}
);
width = 581;
},
{
background = {
components = (
{
name = S;
transform = "{1, 0, 0, -1, 91, 674}";
}
);
};
guideLines = (
{
angle = 90;
position = "{549, 270}";
}
);
layerId = "11343128-4963-4E5D-BE9C-B74F53B36FA5";
name = Bold;
paths = (
{
closed = 1;
nodes = (
"376 695 OFFCURVE",
"231 700 OFFCURVE",
"64 700 CURVE",
"42 528 LINE",
"107 516 LINE",
"118 558 OFFCURVE",
"135 600 OFFCURVE",
"222 608 CURVE SMOOTH",
"265 612 OFFCURVE",
"329 614 OFFCURVE",
"372 616 CURVE",
"346 558 OFFCURVE",
"282 445 OFFCURVE",
"210 314 CURVE SMOOTH",
"142 190 OFFCURVE",
"66 79 OFFCURVE",
"26 60 CURVE",
"45 0 LINE",
"200 5 OFFCURVE",
"402 0 OFFCURVE",
"546 0 CURVE",
"560 162 LINE",
"501 172 LINE",
"472 100 LINE",
"404 91 OFFCURVE",
"306 81 OFFCURVE",
"239 81 CURVE",
"269 145 OFFCURVE",
"317 245 OFFCURVE",
"390 378 CURVE SMOOTH",
"456 498 OFFCURVE",
"521 623 OFFCURVE",
"554 640 CURVE",
"536 700 LINE"
);
}
);
width = 609;
}
);
leftKerningGroup = X;
rightKerningGroup = X;
unicode = 005A;
},
{
glyphname = Z.001;
lastChange = "2015-12-01 10:14:33 +0000";
layers = (
{
anchors = (
{
name = bottom;
position = "{261, 0}";
},
{
name = top;
position = "{297, 656}";
}
);
background = {
components = (
{
name = T;
transform = "{1, 0, 0, 1, 4, 0}";
}
);
};
layerId = "71FD7A9F-05F5-4D76-8D4F-547475A05E4C";
name = "Bold Italic";
paths = (
{
closed = 1;
nodes = (
"385 695 OFFCURVE",
"257 700 OFFCURVE",
"90 700 CURVE",
"56 528 LINE",
"121 516 LINE",
"135 558 OFFCURVE",
"154 600 OFFCURVE",
"242 608 CURVE SMOOTH",
"285 612 OFFCURVE",
"333 614 OFFCURVE",
"377 616 CURVE",
"347 558 OFFCURVE",
"265 416 OFFCURVE",
"189 283 CURVE SMOOTH",
"117 158 OFFCURVE",
"58 69 OFFCURVE",
"17 50 CURVE",
"30 0 LINE",
"185 5 OFFCURVE",
"367 0 OFFCURVE",
"511 0 CURVE",
"536 162 LINE",
"474 173 LINE",
"439 98 LINE",
"371 89 OFFCURVE",
"283 81 OFFCURVE",
"216 81 CURVE",
"251 145 OFFCURVE",
"304 242 OFFCURVE",
"380 378 CURVE SMOOTH",
"447 498 OFFCURVE",
"522 636 OFFCURVE",
"556 653 CURVE",
"540 700 LINE"
);
}
);
width = 571;
},
{
layerId = "11343128-4963-4E5D-BE9C-B74F53B36FA5";
name = Bold;
width = 600;
}
);
leftKerningGroup = X;
rightKerningGroup = X;
},
{
glyphname = Z.ss01;
lastChange = "2015-12-01 10:14:16 +0000";
layers = (
{
background = {
paths = (
{
closed = 1;
nodes = (
"507 0 LINE",
"536 155 LINE",
"487 166 LINE",
"469 94 OFFCURVE",
"433 82 OFFCURVE",
"319 82 CURVE",
"311 121 OFFCURVE",
"319 220 OFFCURVE",
"323 273 CURVE SMOOTH",
"331 381 OFFCURVE",
"363 597 OFFCURVE",
"360 612 CURVE",
"358 623 OFFCURVE",
"336 636 OFFCURVE",
"301 650 CURVE",
"419 650 LINE",
"423 700 LINE",
"130 700 LINE",
"127 653 LINE",
"183 645 LINE",
"216 589 OFFCURVE",
"202 404 OFFCURVE",
"189 257 CURVE SMOOTH",
"181 174 OFFCURVE",
"175 105 OFFCURVE",
"148 83 CURVE",
"107 83 OFFCURVE",
"64 87 OFFCURVE",
"23 94 CURVE",
"-7 163 LINE",
"-54 153 LINE",
"-34 0 LINE"
);
}
);
};
layerId = "71FD7A9F-05F5-4D76-8D4F-547475A05E4C";
name = "Bold Italic";
paths = (
{
closed = 1;
nodes = (
"385 695 OFFCURVE",
"257 700 OFFCURVE",
"90 700 CURVE",
"55 522 LINE",
"120 511 LINE",
"134 556 OFFCURVE",
"153 572 OFFCURVE",
"251 579 CURVE SMOOTH",
"294 582 OFFCURVE",
"331 584 OFFCURVE",
"375 586 CURVE",
"349 528 OFFCURVE",
"327 487 OFFCURVE",
"253 353 CURVE",
"146 175 OFFCURVE",
"95 112 OFFCURVE",
"58 80 CURVE SMOOTH",
"41 65 OFFCURVE",
"28 55 OFFCURVE",
"17 50 CURVE",
"30 0 LINE",
"185 7 OFFCURVE",
"362 0 OFFCURVE",
"506 0 CURVE",
"540 181 LINE",
"478 189 LINE",
"444 121 LINE",
"376 115 OFFCURVE",
"273 111 OFFCURVE",
"206 111 CURVE",
"243 175 OFFCURVE",
"265 213 OFFCURVE",
"347 351 CURVE SMOOTH",
"429 489 OFFCURVE",
"491 593 OFFCURVE",
"514 619 CURVE SMOOTH",
"525 632 OFFCURVE",
"546 648 OFFCURVE",
"556 653 CURVE",
"540 700 LINE"
);
}
);
width = 571;
},
{
layerId = "11343128-4963-4E5D-BE9C-B74F53B36FA5";
name = Bold;
width = 600;
}
);
leftKerningGroup = X;
rightKerningGroup = X;
},
{
glyphname = a;
lastChange = "2016-02-17 19:21:38 +0000";
layers = (
{
anchors = (
{
name = bottom;
position = "{235, 0}";
},
{
name = ogonek;
position = "{437, 10}";
},
{
name = top;
position = "{277, 479}";
}
);
background = {
components = (
{
name = b;
transform = "{-1, 0, 0, -1, 488, 478}";
}
);
};
guideLines = (
{
angle = -20;
position = "{407, 503}";
}
);
layerId = "71FD7A9F-05F5-4D76-8D4F-547475A05E4C";
name = "Bold Italic";
paths = (
{
closed = 1;
nodes = (
"269 77 OFFCURVE",
"303 138 OFFCURVE",
"311 144 CURVE",
"311 144 OFFCURVE",
"355 282 OFFCURVE",
"336 289 CURVE",
"320 254 OFFCURVE",
"255 160 OFFCURVE",
"203 113 CURVE",
"196 113 OFFCURVE",
"183 118 OFFCURVE",
"173 141 CURVE SMOOTH",
"134 236 OFFCURVE",
"148 371 OFFCURVE",
"218 414 CURVE",
"268 414 OFFCURVE",
"327 340 OFFCURVE",
"338 307 CURVE",
"338 307 OFFCURVE",
"390 357 OFFCURVE",
"390 413 CURVE",
"348 462 OFFCURVE",
"273 483 OFFCURVE",
"205 483 CURVE",
"31 433 OFFCURVE",
"-24 171 OFFCURVE",
"77 41 CURVE SMOOTH",
"108 1 OFFCURVE",
"141 -3 OFFCURVE",
"179 -3 CURVE"
);
},
{
closed = 1;
nodes = (
"438 5 OFFCURVE",
"464 17 OFFCURVE",
"480 28 CURVE",
"476 74 LINE",
"463 69 OFFCURVE",
"437 62 OFFCURVE",
"422 62 CURVE",
"399 86 OFFCURVE",
"424 273 OFFCURVE",
"459 459 CURVE",
"450 467 OFFCURVE",
"408 476 OFFCURVE",
"399 477 CURVE",
"333 371 LINE",
"328 364 OFFCURVE",
"327 362 OFFCURVE",
"325 347 CURVE SMOOTH",
"311 244 OFFCURVE",
"276 68 OFFCURVE",
"292 42 CURVE SMOOTH",
"302 26 OFFCURVE",
"359 -2 OFFCURVE",
"409 -1 CURVE"
);
}
);
width = 507;
},
{
background = {
components = (
{
name = n;
}
);
};
guideLines = (
{
angle = 90;
position = "{42, 179}";
},
{
position = "{146, 21}";
},
{
position = "{164, 71}";
}
);
layerId = "11343128-4963-4E5D-BE9C-B74F53B36FA5";
name = Bold;
paths = (
{
closed = 1;
nodes = (
"65 306 LINE",
"83 307 OFFCURVE",
"110 311 OFFCURVE",
"130 318 CURVE",
"137 368 LINE",
"148 375 OFFCURVE",
"216 402 OFFCURVE",
"241 402 CURVE",
"321 380 OFFCURVE",
"239 57 OFFCURVE",
"303 0 CURVE",
"376 -11 OFFCURVE",
"440 11 OFFCURVE",
"460 21 CURVE",
"452 71 LINE",
"399 71 LINE",
"376 131 OFFCURVE",
"389 286 OFFCURVE",
"390 358 CURVE SMOOTH",
"391 434 OFFCURVE",
"332 488 OFFCURVE",
"242 489 CURVE SMOOTH",
"146 490 OFFCURVE",
"83 464 OFFCURVE",
"54 446 CURVE"
);
},
{
closed = 1;
nodes = (
"276 127 OFFCURVE",
"201 86 OFFCURVE",
"162 85 CURVE",
"135 101 OFFCURVE",
"135 158 OFFCURVE",
"145 182 CURVE",
"169 194 OFFCURVE",
"259 216 OFFCURVE",
"302 215 CURVE",
"303 298 LINE",
"208 272 OFFCURVE",
"98 245 OFFCURVE",
"56 216 CURVE",
"31 192 OFFCURVE",
"17 128 OFFCURVE",
"27 80 CURVE SMOOTH",
"35 42 OFFCURVE",
"60 3 OFFCURVE",
"124 -6 CURVE",
"172 1 OFFCURVE",
"296 73 OFFCURVE",
"321 95 CURVE",
"305 144 LINE"
);
}
);
width = 470;
}
);
leftKerningGroup = o;
leftMetricsKey = o;
rightKerningGroup = i;
unicode = 0061;
},
{
glyphname = a.001;
lastChange = "2016-02-17 19:32:51 +0000";
layers = (
{
anchors = (
{
name = bottom;
position = "{235, 0}";
},
{
name = ogonek;
position = "{437, 10}";
},
{
name = top;
position = "{277, 479}";
}
);
background = {
paths = (
{
closed = 1;
nodes = (
"106 4 OFFCURVE",
"145 -5 OFFCURVE",
"180 -2 CURVE",
"227 39 OFFCURVE",
"252 70 OFFCURVE",
"296 131 CURVE",
"293 113 OFFCURVE",
"286 39 OFFCURVE",
"294 31 CURVE SMOOTH",
"306 19 OFFCURVE",
"438 -6 OFFCURVE",
"449 -1 CURVE",
"460 43 LINE",
"445 50 OFFCURVE",
"419 73 OFFCURVE",
"420 124 CURVE SMOOTH",
"421 182 OFFCURVE",
"434 333 OFFCURVE",
"447 423 CURVE SMOOTH",
"465 545 OFFCURVE",
"491 673 OFFCURVE",
"484 681 CURVE SMOOTH",
"472 691 OFFCURVE",
"336 740 OFFCURVE",
"323 730 CURVE",
"311 679 LINE",
"329 670 OFFCURVE",
"350 612 OFFCURVE",
"351 564 CURVE SMOOTH",
"352 523 OFFCURVE",
"350 499 OFFCURVE",
"346 450 CURVE",
"301 474 OFFCURVE",
"253 484 OFFCURVE",
"203 482 CURVE",
"31 432 OFFCURVE",
"-28 174 OFFCURVE",
"80 37 CURVE SMOOTH"
);
},
{
closed = 1;
nodes = (
"258 411 OFFCURVE",
"303 379 OFFCURVE",
"330 340 CURVE",
"314 251 LINE",
"287 194 OFFCURVE",
"209 114 OFFCURVE",
"204 109 CURVE",
"193 114 OFFCURVE",
"182 124 OFFCURVE",
"173 146 CURVE SMOOTH",
"140 228 OFFCURVE",
"144 365 OFFCURVE",
"222 415 CURVE"
);
}
);
};
guideLines = (
{
angle = -20;
position = "{407, 503}";
}
);
layerId = "71FD7A9F-05F5-4D76-8D4F-547475A05E4C";
name = "Bold Italic";
paths = (
{
closed = 1;
nodes = (
"269 77 OFFCURVE",
"303 147 OFFCURVE",
"311 153 CURVE",
"311 153 OFFCURVE",
"355 282 OFFCURVE",
"336 289 CURVE",
"320 254 OFFCURVE",
"256 157 OFFCURVE",
"204 110 CURVE",
"197 110 OFFCURVE",
"184 121 OFFCURVE",
"174 144 CURVE SMOOTH",
"135 239 OFFCURVE",
"151 371 OFFCURVE",
"221 414 CURVE",
"271 414 OFFCURVE",
"332 349 OFFCURVE",
"343 316 CURVE",
"343 316 OFFCURVE",
"390 357 OFFCURVE",
"390 413 CURVE",
"348 462 OFFCURVE",
"273 483 OFFCURVE",
"205 483 CURVE",
"31 433 OFFCURVE",
"-24 171 OFFCURVE",
"77 41 CURVE SMOOTH",
"108 1 OFFCURVE",
"141 -3 OFFCURVE",
"179 -3 CURVE"
);
},
{
closed = 1;
nodes = (
"438 5 OFFCURVE",
"464 17 OFFCURVE",
"480 28 CURVE",
"476 74 LINE",
"463 69 OFFCURVE",
"437 62 OFFCURVE",
"422 62 CURVE",
"394 91 OFFCURVE",
"438 322 OFFCURVE",
"446 352 CURVE SMOOTH",
"454 383 OFFCURVE",
"463 424 OFFCURVE",
"474 456 CURVE",
"462 467 OFFCURVE",
"441 475 OFFCURVE",
"428 479 CURVE SMOOTH",
"410 484 OFFCURVE",
"338 399 OFFCURVE",
"333 371 CURVE",
"328 364 OFFCURVE",
"327 362 OFFCURVE",
"325 347 CURVE SMOOTH",
"311 244 OFFCURVE",
"276 68 OFFCURVE",
"292 42 CURVE SMOOTH",
"302 26 OFFCURVE",
"359 -2 OFFCURVE",
"409 -1 CURVE"
);
}
);
width = 507;
},
{
layerId = "11343128-4963-4E5D-BE9C-B74F53B36FA5";
name = Bold;
width = 12;
}
);
leftKerningGroup = o;
leftMetricsKey = o;
rightKerningGroup = i;
rightMetricsKey = i;
},
{
glyphname = a.002;
layers = (
{
anchors = (
{
name = bottom;
position = "{235, 0}";
},
{
name = ogonek;
position = "{437, 10}";
},
{
name = top;
position = "{277, 479}";
}
);
background = {
paths = (
{
closed = 1;
nodes = (
"106 4 OFFCURVE",
"145 -5 OFFCURVE",
"180 -2 CURVE",
"227 39 OFFCURVE",
"252 70 OFFCURVE",
"296 131 CURVE",
"293 113 OFFCURVE",
"286 39 OFFCURVE",
"294 31 CURVE SMOOTH",
"306 19 OFFCURVE",
"438 -6 OFFCURVE",
"449 -1 CURVE",
"460 43 LINE",
"445 50 OFFCURVE",
"419 73 OFFCURVE",
"420 124 CURVE SMOOTH",
"421 182 OFFCURVE",
"434 333 OFFCURVE",
"447 423 CURVE SMOOTH",
"465 545 OFFCURVE",
"491 673 OFFCURVE",
"484 681 CURVE SMOOTH",
"472 691 OFFCURVE",
"336 740 OFFCURVE",
"323 730 CURVE",
"311 679 LINE",
"329 670 OFFCURVE",
"350 612 OFFCURVE",
"351 564 CURVE SMOOTH",
"352 523 OFFCURVE",
"350 499 OFFCURVE",
"346 450 CURVE",
"301 474 OFFCURVE",
"253 484 OFFCURVE",
"203 482 CURVE",
"31 432 OFFCURVE",
"-28 174 OFFCURVE",
"80 37 CURVE SMOOTH"
);
},
{
closed = 1;
nodes = (
"258 411 OFFCURVE",
"303 379 OFFCURVE",
"330 340 CURVE",
"314 251 LINE",
"287 194 OFFCURVE",
"209 114 OFFCURVE",
"204 109 CURVE",
"193 114 OFFCURVE",
"182 124 OFFCURVE",
"173 146 CURVE SMOOTH",
"140 228 OFFCURVE",
"144 365 OFFCURVE",
"222 415 CURVE"
);
}
);
};
guideLines = (
{
angle = -20;
position = "{407, 503}";
}
);
layerId = "71FD7A9F-05F5-4D76-8D4F-547475A05E4C";
name = "Bold Italic";
paths = (
{
closed = 1;
nodes = (
"269 77 OFFCURVE",
"303 147 OFFCURVE",
"311 153 CURVE",
"311 153 OFFCURVE",
"355 282 OFFCURVE",
"336 289 CURVE",
"320 254 OFFCURVE",
"256 157 OFFCURVE",
"204 110 CURVE",
"197 110 OFFCURVE",
"184 121 OFFCURVE",
"174 144 CURVE SMOOTH",
"135 239 OFFCURVE",
"151 371 OFFCURVE",
"221 414 CURVE",
"271 414 OFFCURVE",
"332 349 OFFCURVE",
"343 316 CURVE",
"343 316 OFFCURVE",
"390 357 OFFCURVE",
"390 413 CURVE",
"348 462 OFFCURVE",
"273 483 OFFCURVE",
"205 483 CURVE",
"31 433 OFFCURVE",
"-24 171 OFFCURVE",
"77 41 CURVE SMOOTH",
"108 1 OFFCURVE",
"141 -3 OFFCURVE",
"179 -3 CURVE"
);
},
{
closed = 1;
nodes = (
"438 5 OFFCURVE",
"464 17 OFFCURVE",
"480 28 CURVE",
"476 74 LINE",
"463 69 OFFCURVE",
"437 62 OFFCURVE",
"422 62 CURVE",
"394 91 OFFCURVE",
"438 322 OFFCURVE",
"446 352 CURVE SMOOTH",
"454 383 OFFCURVE",
"463 424 OFFCURVE",
"474 456 CURVE",
"462 467 OFFCURVE",
"441 475 OFFCURVE",
"428 479 CURVE SMOOTH",
"410 484 OFFCURVE",
"338 399 OFFCURVE",
"333 371 CURVE",
"328 364 OFFCURVE",
"327 362 OFFCURVE",
"325 347 CURVE SMOOTH",
"311 244 OFFCURVE",
"276 68 OFFCURVE",
"292 42 CURVE SMOOTH",
"302 26 OFFCURVE",
"359 -2 OFFCURVE",
"409 -1 CURVE"
);
}
);
width = 507;
},
{
background = {
components = (
{
name = n;
}
);
};
guideLines = (
{
angle = 90;
position = "{33, 179}";
}
);
layerId = "11343128-4963-4E5D-BE9C-B74F53B36FA5";
name = Bold;
paths = (
{
closed = 1;
nodes = (
"35 367 OFFCURVE",
"31 327 OFFCURVE",
"36 307 CURVE",
"54 304 OFFCURVE",
"122 320 OFFCURVE",
"153 332 CURVE",
"152 349 OFFCURVE",
"156 378 OFFCURVE",
"160 393 CURVE",
"178 400 OFFCURVE",
"207 404 OFFCURVE",
"233 402 CURVE",
"307 381 OFFCURVE",
"231 57 OFFCURVE",
"295 0 CURVE",
"368 -11 OFFCURVE",
"436 12 OFFCURVE",
"452 24 CURVE",
"443 74 LINE",
"431 69 OFFCURVE",
"408 62 OFFCURVE",
"394 62 CURVE",
"366 114 OFFCURVE",
"379 279 OFFCURVE",
"382 355 CURVE SMOOTH",
"385 424 OFFCURVE",
"329 478 OFFCURVE",
"249 484 CURVE",
"167 473 OFFCURVE",
"89 440 OFFCURVE",
"47 398 CURVE"
);
},
{
closed = 1;
nodes = (
"267 108 OFFCURVE",
"192 82 OFFCURVE",
"153 81 CURVE",
"126 97 OFFCURVE",
"126 158 OFFCURVE",
"136 182 CURVE",
"160 194 OFFCURVE",
"250 210 OFFCURVE",
"293 209 CURVE",
"294 296 LINE",
"179 261 OFFCURVE",
"89 232 OFFCURVE",
"47 203 CURVE",
"21 176 OFFCURVE",
"9 135 OFFCURVE",
"18 80 CURVE SMOOTH",
"24 44 OFFCURVE",
"53 2 OFFCURVE",
"115 -6 CURVE",
"163 1 OFFCURVE",
"287 53 OFFCURVE",
"312 75 CURVE",
"296 125 LINE"
);
}
);
width = 464;
}
);
leftKerningGroup = o;
rightKerningGroup = i;
},
{
glyphname = a.003;
lastChange = "2016-02-17 19:32:51 +0000";
layers = (
{
anchors = (
{
name = bottom;
position = "{235, 0}";
},
{
name = ogonek;
position = "{437, 10}";
},
{
name = top;
position = "{277, 479}";
}
);
background = {
components = (
{
name = b;
transform = "{-1, 0, 0, -1, 488, 478}";
}
);
};
guideLines = (
{
angle = -20;
position = "{407, 503}";
}
);
layerId = "71FD7A9F-05F5-4D76-8D4F-547475A05E4C";
name = "Bold Italic";
paths = (
{
closed = 1;
nodes = (
"269 77 OFFCURVE",
"303 138 OFFCURVE",
"311 144 CURVE",
"311 144 OFFCURVE",
"355 282 OFFCURVE",
"336 289 CURVE",
"320 254 OFFCURVE",
"256 163 OFFCURVE",
"204 116 CURVE",
"197 116 OFFCURVE",
"184 121 OFFCURVE",
"174 144 CURVE SMOOTH",
"135 239 OFFCURVE",
"148 371 OFFCURVE",
"218 414 CURVE",
"268 414 OFFCURVE",
"327 340 OFFCURVE",
"338 307 CURVE",
"338 307 OFFCURVE",
"390 357 OFFCURVE",
"390 413 CURVE",
"348 462 OFFCURVE",
"273 483 OFFCURVE",
"205 483 CURVE",
"31 433 OFFCURVE",
"-24 171 OFFCURVE",
"77 41 CURVE SMOOTH",
"108 1 OFFCURVE",
"141 -3 OFFCURVE",
"179 -3 CURVE"
);
},
{
closed = 1;
nodes = (
"438 5 OFFCURVE",
"464 17 OFFCURVE",
"480 28 CURVE",
"476 74 LINE",
"463 69 OFFCURVE",
"437 62 OFFCURVE",
"422 62 CURVE",
"399 86 OFFCURVE",
"424 273 OFFCURVE",
"459 459 CURVE",
"450 467 OFFCURVE",
"408 476 OFFCURVE",
"399 477 CURVE",
"333 371 LINE",
"328 364 OFFCURVE",
"327 362 OFFCURVE",
"325 347 CURVE SMOOTH",
"311 244 OFFCURVE",
"276 68 OFFCURVE",
"292 42 CURVE SMOOTH",
"302 26 OFFCURVE",
"359 -2 OFFCURVE",
"409 -1 CURVE"
);
}
);
width = 507;
},
{
background = {
components = (
{
name = n;
}
);
};
guideLines = (
{
angle = 90;
position = "{42, 179}";
},
{
position = "{146, 21}";
},
{
position = "{164, 71}";
}
);
layerId = "11343128-4963-4E5D-BE9C-B74F53B36FA5";
name = Bold;
paths = (
{
closed = 1;
nodes = (
"65 306 LINE",
"83 307 OFFCURVE",
"110 311 OFFCURVE",
"130 318 CURVE",
"137 368 LINE",
"148 375 OFFCURVE",
"216 402 OFFCURVE",
"241 402 CURVE",
"321 380 OFFCURVE",
"239 57 OFFCURVE",
"303 0 CURVE",
"376 -11 OFFCURVE",
"440 11 OFFCURVE",
"460 21 CURVE",
"452 71 LINE",
"399 71 LINE",
"376 131 OFFCURVE",
"389 286 OFFCURVE",
"390 358 CURVE SMOOTH",
"391 434 OFFCURVE",
"326 491 OFFCURVE",
"246 490 CURVE SMOOTH",
"150 489 OFFCURVE",
"83 464 OFFCURVE",
"54 446 CURVE"
);
},
{
closed = 1;
nodes = (
"276 128 OFFCURVE",
"201 82 OFFCURVE",
"162 81 CURVE",
"135 97 OFFCURVE",
"135 158 OFFCURVE",
"145 182 CURVE",
"169 194 OFFCURVE",
"259 210 OFFCURVE",
"302 209 CURVE",
"303 289 LINE",
"188 267 OFFCURVE",
"98 243 OFFCURVE",
"56 223 CURVE",
"30 196 OFFCURVE",
"18 135 OFFCURVE",
"27 80 CURVE SMOOTH",
"33 44 OFFCURVE",
"62 2 OFFCURVE",
"124 -6 CURVE",
"172 1 OFFCURVE",
"296 73 OFFCURVE",
"321 95 CURVE",
"305 145 LINE"
);
}
);
width = 470;
}
);
leftKerningGroup = o;
leftMetricsKey = o;
rightKerningGroup = i;
},
{
glyphname = ae;
lastChange = "2016-02-17 19:32:51 +0000";
layers = (
{
anchors = (
{
name = bottom;
position = "{462, 0}";
},
{
name = ogonek;
position = "{627, 10}";
},
{
name = top;
position = "{512, 480}";
}
);
layerId = "71FD7A9F-05F5-4D76-8D4F-547475A05E4C";
name = "Bold Italic";
paths = (
{
closed = 1;
nodes = (
"478 83 OFFCURVE",
"443 125 OFFCURVE",
"434 173 CURVE",
"597 156 OFFCURVE",
"711 260 OFFCURVE",
"677 393 CURVE SMOOTH",
"665 441 OFFCURVE",
"627 486 OFFCURVE",
"517 486 CURVE",
"460 475 OFFCURVE",
"416 451 OFFCURVE",
"384 418 CURVE",
"342 463 OFFCURVE",
"271 483 OFFCURVE",
"205 483 CURVE",
"31 433 OFFCURVE",
"-24 171 OFFCURVE",
"77 41 CURVE SMOOTH",
"108 1 OFFCURVE",
"141 -3 OFFCURVE",
"179 -3 CURVE",
"269 77 OFFCURVE",
"303 140 OFFCURVE",
"311 146 CURVE",
"314 157 LINE",
"333 15 OFFCURVE",
"436 -33 OFFCURVE",
"569 8 CURVE SMOOTH",
"615 22 OFFCURVE",
"637 43 OFFCURVE",
"646 53 CURVE",
"639 100 LINE",
"624 87 OFFCURVE",
"565 68 OFFCURVE",
"523 75 CURVE SMOOTH"
);
},
{
closed = 1;
nodes = (
"549 394 OFFCURVE",
"567 347 OFFCURVE",
"574 304 CURVE",
"571 287 OFFCURVE",
"505 221 OFFCURVE",
"427 229 CURVE",
"430 275 OFFCURVE",
"432 296 OFFCURVE",
"440 324 CURVE SMOOTH",
"451 363 OFFCURVE",
"473 395 OFFCURVE",
"505 416 CURVE"
);
},
{
closed = 1;
nodes = (
"197 110 OFFCURVE",
"184 121 OFFCURVE",
"174 144 CURVE SMOOTH",
"135 239 OFFCURVE",
"151 371 OFFCURVE",
"221 414 CURVE",
"260 414 OFFCURVE",
"304 373 OFFCURVE",
"327 340 CURVE",
"327 339 OFFCURVE",
"313 243 OFFCURVE",
"313 243 CURVE",
"285 193 OFFCURVE",
"242 138 OFFCURVE",
"204 110 CURVE"
);
}
);
width = 701;
},
{
layerId = "11343128-4963-4E5D-BE9C-B74F53B36FA5";
name = Bold;
width = 24;
}
);
leftKerningGroup = o;
leftMetricsKey = a;
rightKerningGroup = o;
rightMetricsKey = e;
unicode = 00E6;
},
{
glyphname = b;
lastChange = "2016-02-17 20:45:38 +0000";
layers = (
{
anchors = (
{
name = bottom;
position = "{210, 0}";
},
{
name = top;
position = "{260, 480}";
}
);
background = {
paths = (
{
closed = 1;
nodes = (
"352 483 LINE",
"272 437 OFFCURVE",
"201 307 OFFCURVE",
"180 276 CURVE",
"203 457 OFFCURVE",
"246 689 OFFCURVE",
"225 708 CURVE SMOOTH",
"213 719 OFFCURVE",
"83 747 OFFCURVE",
"63 740 CURVE",
"53 698 LINE",
"95 668 LINE",
"98 619 OFFCURVE",
"91 479 OFFCURVE",
"76 353 CURVE SMOOTH",
"60 217 OFFCURVE",
"35 43 OFFCURVE",
"33 32 CURVE",
"33 20 OFFCURVE",
"110 -5 OFFCURVE",
"158 -5 CURVE SMOOTH",
"173 -5 OFFCURVE",
"175 41 OFFCURVE",
"168 132 CURVE",
"210 236 OFFCURVE",
"290 334 OFFCURVE",
"318 360 CURVE",
"290 255 OFFCURVE",
"270 75 OFFCURVE",
"289 44 CURVE SMOOTH",
"299 28 OFFCURVE",
"351 -2 OFFCURVE",
"405 -2 CURVE",
"437 7 OFFCURVE",
"456 17 OFFCURVE",
"468 25 CURVE",
"464 70 LINE",
"450 65 OFFCURVE",
"429 59 OFFCURVE",
"414 59 CURVE",
"394 124 OFFCURVE",
"435 371 OFFCURVE",
"455 444 CURVE"
);
}
);
};
guideLines = (
{
angle = -12;
position = "{181, 724}";
},
{
angle = -20;
position = "{19, -2}";
}
);
layerId = "71FD7A9F-05F5-4D76-8D4F-547475A05E4C";
name = "Bold Italic";
paths = (
{
closed = 1;
nodes = (
"367 482 OFFCURVE",
"343 484 OFFCURVE",
"304 482 CURVE",
"271 457 OFFCURVE",
"214 390 OFFCURVE",
"190 356 CURVE",
"219 552 OFFCURVE",
"239 685 OFFCURVE",
"226 706 CURVE SMOOTH",
"218 719 OFFCURVE",
"76 747 OFFCURVE",
"63 740 CURVE",
"53 698 LINE",
"60 694 OFFCURVE",
"82 679 OFFCURVE",
"96 667 CURVE",
"98 648 OFFCURVE",
"97 606 OFFCURVE",
"95 569 CURVE SMOOTH",
"83 376 OFFCURVE",
"63 172 OFFCURVE",
"43 56 CURVE",
"84 5 OFFCURVE",
"192 -19 OFFCURVE",
"282 -4 CURVE",
"458 45 OFFCURVE",
"507 314 OFFCURVE",
"399 444 CURVE SMOOTH"
);
},
{
closed = 1;
nodes = (
"225 73 OFFCURVE",
"182 100 OFFCURVE",
"162 127 CURVE",
"164 150 OFFCURVE",
"166 197 OFFCURVE",
"173 232 CURVE",
"206 290 OFFCURVE",
"263 347 OFFCURVE",
"281 364 CURVE",
"288 364 OFFCURVE",
"304 354 OFFCURVE",
"313 329 CURVE SMOOTH",
"343 247 OFFCURVE",
"341 106 OFFCURVE",
"262 63 CURVE"
);
}
);
width = 483;
},
{
background = {
components = (
{
name = h;
}
);
};
layerId = "11343128-4963-4E5D-BE9C-B74F53B36FA5";
name = Bold;
paths = (
{
closed = 1;
nodes = (
"192 81 OFFCURVE",
"196 182 OFFCURVE",
"196 329 CURVE SMOOTH",
"196 491 OFFCURVE",
"203 709 OFFCURVE",
"193 740 CURVE",
"174 745 OFFCURVE",
"98 749 OFFCURVE",
"8 716 CURVE",
"17 665 LINE",
"62 665 LINE",
"101 584 OFFCURVE",
"72 59 OFFCURVE",
"71 37 CURVE",
"75 30 OFFCURVE",
"131 29 OFFCURVE",
"152 27 CURVE",
"157 40 OFFCURVE",
"160 51 OFFCURVE",
"178 84 CURVE",
"188 89 OFFCURVE",
"189 62 OFFCURVE",
"202 40 CURVE"
);
},
{
closed = 1;
nodes = (
"407 454 OFFCURVE",
"365 483 OFFCURVE",
"306 483 CURVE",
"271 474 OFFCURVE",
"189 438 OFFCURVE",
"156 413 CURVE",
"114 293 OFFCURVE",
"80 82 OFFCURVE",
"71 37 CURVE",
"112 2 OFFCURVE",
"235 -15 OFFCURVE",
"300 -2 CURVE SMOOTH",
"508 39 OFFCURVE",
"532 334 OFFCURVE",
"427 435 CURVE SMOOTH"
);
},
{
closed = 1;
nodes = (
"252 73 OFFCURVE",
"200 85 OFFCURVE",
"178 134 CURVE SMOOTH",
"154 188 OFFCURVE",
"160 303 OFFCURVE",
"176 357 CURVE",
"187 364 OFFCURVE",
"244 388 OFFCURVE",
"295 388 CURVE",
"310 383 OFFCURVE",
"325 372 OFFCURVE",
"340 342 CURVE SMOOTH",
"382 258 OFFCURVE",
"370 119 OFFCURVE",
"295 73 CURVE"
);
}
);
width = 512;
}
);
leftKerningGroup = l;
rightKerningGroup = o;
rightMetricsKey = o;
unicode = 0062;
},
{
glyphname = b.001;
lastChange = "2016-02-17 19:32:51 +0000";
layers = (
{
anchors = (
{
name = bottom;
position = "{215, 0}";
},
{
name = top;
position = "{265, 480}";
}
);
background = {
paths = (
{
closed = 1;
nodes = (
"357 483 LINE",
"277 437 OFFCURVE",
"206 307 OFFCURVE",
"185 276 CURVE",
"208 457 OFFCURVE",
"251 689 OFFCURVE",
"230 708 CURVE SMOOTH",
"218 719 OFFCURVE",
"88 747 OFFCURVE",
"68 740 CURVE",
"58 698 LINE",
"100 668 LINE",
"103 619 OFFCURVE",
"96 479 OFFCURVE",
"81 353 CURVE SMOOTH",
"65 217 OFFCURVE",
"40 43 OFFCURVE",
"38 32 CURVE",
"38 20 OFFCURVE",
"115 -5 OFFCURVE",
"163 -5 CURVE SMOOTH",
"178 -5 OFFCURVE",
"180 41 OFFCURVE",
"173 132 CURVE",
"215 236 OFFCURVE",
"295 334 OFFCURVE",
"323 360 CURVE",
"295 255 OFFCURVE",
"275 75 OFFCURVE",
"294 44 CURVE SMOOTH",
"304 28 OFFCURVE",
"356 -2 OFFCURVE",
"410 -2 CURVE",
"442 7 OFFCURVE",
"461 17 OFFCURVE",
"473 25 CURVE",
"469 70 LINE",
"455 65 OFFCURVE",
"434 59 OFFCURVE",
"419 59 CURVE",
"399 124 OFFCURVE",
"440 371 OFFCURVE",
"460 444 CURVE"
);
}
);
};
guideLines = (
{
angle = -12;
position = "{186, 724}";
},
{
angle = -20;
position = "{24, -2}";
}
);
layerId = "71FD7A9F-05F5-4D76-8D4F-547475A05E4C";
name = "Bold Italic";
paths = (
{
closed = 1;
nodes = (
"372 480 OFFCURVE",
"348 482 OFFCURVE",
"309 480 CURVE",
"276 455 OFFCURVE",
"218 381 OFFCURVE",
"194 347 CURVE",
"223 543 OFFCURVE",
"244 685 OFFCURVE",
"231 706 CURVE SMOOTH",
"223 719 OFFCURVE",
"81 747 OFFCURVE",
"68 740 CURVE",
"58 698 LINE",
"65 694 OFFCURVE",
"87 679 OFFCURVE",
"101 667 CURVE",
"103 648 OFFCURVE",
"102 606 OFFCURVE",
"100 569 CURVE SMOOTH",
"91 420 OFFCURVE",
"59 157 OFFCURVE",
"35 18 CURVE",
"42 11 OFFCURVE",
"62 4 OFFCURVE",
"83 -1 CURVE SMOOTH",
"95 -4 OFFCURVE",
"102 6 OFFCURVE",
"119 42 CURVE",
"154 17 OFFCURVE",
"223 -11 OFFCURVE",
"287 -4 CURVE",
"463 45 OFFCURVE",
"512 312 OFFCURVE",
"404 442 CURVE SMOOTH"
);
},
{
closed = 1;
nodes = (
"267 63 LINE SMOOTH",
"267 63 OFFCURVE",
"214 68 OFFCURVE",
"161 137 CURVE",
"178 232 LINE",
"211 290 OFFCURVE",
"268 351 OFFCURVE",
"286 368 CURVE",
"293 368 OFFCURVE",
"309 354 OFFCURVE",
"318 329 CURVE SMOOTH",
"348 247 OFFCURVE",
"346 106 OFFCURVE",
"267 63 CURVE"
);
}
);
width = 488;
},
{
layerId = "11343128-4963-4E5D-BE9C-B74F53B36FA5";
name = Bold;
width = 24;
}
);
leftKerningGroup = l;
leftMetricsKey = l;
rightKerningGroup = o;
rightMetricsKey = o;
},
{
glyphname = c;
lastChange = "2016-02-17 19:28:23 +0000";
layers = (
{
anchors = (
{
name = bottom;
position = "{200, 0}";
},
{
name = top;
position = "{230, 480}";
}
);
background = {
paths = (
{
closed = 1;
nodes = (
"380 459 OFFCURVE",
"331 503 OFFCURVE",
"222 481 CURVE SMOOTH",
"36 443 OFFCURVE",
"-28 183 OFFCURVE",
"74 58 CURVE SMOOTH",
"121 0 OFFCURVE",
"194 -22 OFFCURVE",
"278 6 CURVE SMOOTH",
"466 69 OFFCURVE",
"494 316 OFFCURVE",
"410 421 CURVE SMOOTH"
);
},
{
closed = 1;
nodes = (
"210 74 OFFCURVE",
"183 91 OFFCURVE",
"162 142 CURVE SMOOTH",
"125 233 OFFCURVE",
"154 365 OFFCURVE",
"230 407 CURVE",
"266 407 OFFCURVE",
"295 396 OFFCURVE",
"317 345 CURVE SMOOTH",
"354 260 OFFCURVE",
"335 125 OFFCURVE",
"251 74 CURVE"
);
}
);
};
layerId = "71FD7A9F-05F5-4D76-8D4F-547475A05E4C";
name = "Bold Italic";
paths = (
{
closed = 1;
nodes = (
"300 357 OFFCURVE",
"243 384 OFFCURVE",
"215 396 CURVE",
"144 343 OFFCURVE",
"138 217 OFFCURVE",
"170 147 CURVE SMOOTH",
"186 112 OFFCURVE",
"216 81 OFFCURVE",
"253 78 CURVE SMOOTH",
"309 74 OFFCURVE",
"347 91 OFFCURVE",
"365 100 CURVE",
"371 50 LINE",
"343 30 OFFCURVE",
"308 5 OFFCURVE",
"229 -2 CURVE",
"163 -6 OFFCURVE",
"117 13 OFFCURVE",
"77 57 CURVE",
"-25 169 OFFCURVE",
"31 459 OFFCURVE",
"229 483 CURVE",
"297 488 OFFCURVE",
"367 471 OFFCURVE",
"401 430 CURVE",
"390 394 OFFCURVE",
"363 344 OFFCURVE",
"344 321 CURVE"
);
}
);
width = 401;
},
{
background = {
components = (
{
name = e;
}
);
};
guideLines = (
{
position = "{146, 38}";
},
{
position = "{164, 88}";
}
);
layerId = "11343128-4963-4E5D-BE9C-B74F53B36FA5";
name = Bold;
paths = (
{
closed = 1;
nodes = (
"233 400 OFFCURVE",
"282 390 OFFCURVE",
"309 369 CURVE",
"312 354 OFFCURVE",
"317 312 OFFCURVE",
"320 306 CURVE",
"334 305 OFFCURVE",
"358 310 OFFCURVE",
"389 321 CURVE",
"390 342 OFFCURVE",
"393 416 OFFCURVE",
"393 447 CURVE",
"364 470 OFFCURVE",
"273 504 OFFCURVE",
"183 473 CURVE SMOOTH",
"-1 410 OFFCURVE",
"-19 133 OFFCURVE",
"96 35 CURVE SMOOTH",
"150 -11 OFFCURVE",
"280 -36 OFFCURVE",
"402 38 CURVE",
"385 88 LINE",
"276 54 OFFCURVE",
"199 76 OFFCURVE",
"167 146 CURVE SMOOTH",
"127 234 OFFCURVE",
"148 362 OFFCURVE",
"215 400 CURVE"
);
}
);
width = 412;
}
);
leftKerningGroup = o;
leftMetricsKey = o;
rightKerningGroup = z;
unicode = 0063;
},
{
glyphname = d;
lastChange = "2016-02-17 19:26:39 +0000";
layers = (
{
anchors = (
{
name = bottom;
position = "{235, 0}";
},
{
name = center;
position = "{112, 260}";
},
{
name = top;
position = "{285, 480}";
},
{
name = topright;
position = "{516, 480}";
}
);
background = {
components = (
{
name = h;
transform = "{1, 0, 0, 1, 251, 0}";
}
);
};
guideLines = (
{
position = "{319, 410}";
},
{
angle = -18;
position = "{518, 111}";
},
{
position = "{1186, 374}";
}
);
layerId = "71FD7A9F-05F5-4D76-8D4F-547475A05E4C";
name = "Bold Italic";
paths = (
{
closed = 1;
nodes = (
"142 0 OFFCURVE",
"112 2 OFFCURVE",
"80 41 CURVE SMOOTH",
"-26 171 OFFCURVE",
"30 434 OFFCURVE",
"204 484 CURVE",
"281 488 OFFCURVE",
"362 456 OFFCURVE",
"393 415 CURVE",
"393 359 OFFCURVE",
"338 328 OFFCURVE",
"338 328 CURVE",
"323 364 OFFCURVE",
"271 410 OFFCURVE",
"224 417 CURVE",
"149 374 OFFCURVE",
"142 240 OFFCURVE",
"169 160 CURVE SMOOTH",
"179 130 OFFCURVE",
"198 111 OFFCURVE",
"205 111 CURVE",
"224 128 OFFCURVE",
"301 216 OFFCURVE",
"319 261 CURVE",
"338 254 OFFCURVE",
"320 167 OFFCURVE",
"320 167 CURVE",
"313 159 OFFCURVE",
"257 63 OFFCURVE",
"180 0 CURVE"
);
},
{
closed = 1;
nodes = (
"361 -2 OFFCURVE",
"310 34 OFFCURVE",
"302 40 CURVE SMOOTH",
"279 58 OFFCURVE",
"315 235 OFFCURVE",
"328 326 CURVE SMOOTH",
"344 442 OFFCURVE",
"358 606 OFFCURVE",
"355 667 CURVE",
"339 679 OFFCURVE",
"329 687 OFFCURVE",
"313 697 CURVE",
"323 740 LINE",
"338 748 OFFCURVE",
"472 717 OFFCURVE",
"479 707 CURVE SMOOTH",
"494 684 OFFCURVE",
"466 521 OFFCURVE",
"453 432 CURVE SMOOTH",
"429 265 OFFCURVE",
"401 88 OFFCURVE",
"424 62 CURVE",
"435 62 OFFCURVE",
"460 69 OFFCURVE",
"475 74 CURVE",
"479 28 LINE",
"461 15 OFFCURVE",
"441 5 OFFCURVE",
"416 -2 CURVE"
);
}
);
width = 506;
},
{
background = {
components = (
{
name = a;
}
);
};
guideLines = (
{
position = "{145, 21}";
},
{
position = "{163, 71}";
},
{
position = "{145, 407}";
},
{
position = "{163, 457}";
}
);
layerId = "11343128-4963-4E5D-BE9C-B74F53B36FA5";
name = Bold;
paths = (
{
closed = 1;
nodes = (
"104 25 OFFCURVE",
"146 -4 OFFCURVE",
"205 -4 CURVE",
"240 5 OFFCURVE",
"316 44 OFFCURVE",
"349 69 CURVE",
"391 189 OFFCURVE",
"349 400 OFFCURVE",
"358 445 CURVE",
"332 471 OFFCURVE",
"276 493 OFFCURVE",
"211 481 CURVE SMOOTH",
"3 442 OFFCURVE",
"-21 145 OFFCURVE",
"84 44 CURVE SMOOTH"
);
},
{
closed = 1;
nodes = (
"259 406 OFFCURVE",
"313 385 OFFCURVE",
"328 336 CURVE SMOOTH",
"345 282 OFFCURVE",
"351 185 OFFCURVE",
"335 131 CURVE",
"324 124 OFFCURVE",
"267 91 OFFCURVE",
"216 91 CURVE",
"201 96 OFFCURVE",
"186 107 OFFCURVE",
"171 137 CURVE SMOOTH",
"129 221 OFFCURVE",
"141 360 OFFCURVE",
"216 406 CURVE"
);
},
{
closed = 1;
nodes = (
"448 71 LINE",
"431 108 OFFCURVE",
"425 180 OFFCURVE",
"429 374 CURVE SMOOTH",
"432 531 OFFCURVE",
"442 711 OFFCURVE",
"433 740 CURVE",
"414 745 OFFCURVE",
"334 749 OFFCURVE",
"244 716 CURVE",
"254 665 LINE",
"302 665 LINE",
"321 637 OFFCURVE",
"320 436 OFFCURVE",
"320 242 CURVE SMOOTH",
"320 58 OFFCURVE",
"333 18 OFFCURVE",
"349 0 CURVE",
"419 -10 OFFCURVE",
"488 8 OFFCURVE",
"507 21 CURVE",
"499 71 LINE"
);
}
);
width = 513;
}
);
leftKerningGroup = o;
leftMetricsKey = o;
rightKerningGroup = i;
unicode = 0064;
},
{
glyphname = d.001;
lastChange = "2016-02-17 19:32:51 +0000";
layers = (
{
anchors = (
{
name = bottom;
position = "{235, 0}";
},
{
name = center;
position = "{112, 260}";
},
{
name = top;
position = "{285, 480}";
},
{
name = topright;
position = "{516, 480}";
}
);
background = {
paths = (
{
closed = 1;
nodes = (
"605 483 LINE",
"525 437 OFFCURVE",
"454 307 OFFCURVE",
"433 276 CURVE",
"456 457 OFFCURVE",
"499 689 OFFCURVE",
"478 708 CURVE SMOOTH",
"466 719 OFFCURVE",
"341 747 OFFCURVE",
"321 740 CURVE",
"311 698 LINE",
"353 668 LINE",
"356 619 OFFCURVE",
"346 479 OFFCURVE",
"331 353 CURVE SMOOTH",
"315 217 OFFCURVE",
"288 45 OFFCURVE",
"286 34 CURVE",
"286 22 OFFCURVE",
"362 -3 OFFCURVE",
"410 -3 CURVE SMOOTH",
"425 -3 OFFCURVE",
"427 43 OFFCURVE",
"420 132 CURVE",
"462 236 OFFCURVE",
"543 334 OFFCURVE",
"571 360 CURVE",
"543 255 OFFCURVE",
"523 75 OFFCURVE",
"542 44 CURVE SMOOTH",
"552 28 OFFCURVE",
"604 -2 OFFCURVE",
"658 -2 CURVE",
"690 7 OFFCURVE",
"709 17 OFFCURVE",
"721 25 CURVE",
"717 70 LINE",
"703 65 OFFCURVE",
"682 59 OFFCURVE",
"667 59 CURVE",
"647 124 OFFCURVE",
"688 371 OFFCURVE",
"708 444 CURVE"
);
}
);
};
guideLines = (
{
position = "{319, 410}";
},
{
angle = -18;
position = "{518, 111}";
},
{
position = "{1186, 374}";
}
);
layerId = "71FD7A9F-05F5-4D76-8D4F-547475A05E4C";
name = "Bold Italic";
paths = (
{
closed = 1;
nodes = (
"142 0 OFFCURVE",
"112 2 OFFCURVE",
"80 41 CURVE SMOOTH",
"-26 171 OFFCURVE",
"30 434 OFFCURVE",
"204 484 CURVE",
"281 488 OFFCURVE",
"362 456 OFFCURVE",
"393 415 CURVE",
"393 359 OFFCURVE",
"338 328 OFFCURVE",
"338 328 CURVE",
"323 364 OFFCURVE",
"271 410 OFFCURVE",
"224 417 CURVE",
"149 374 OFFCURVE",
"142 240 OFFCURVE",
"169 160 CURVE SMOOTH",
"179 130 OFFCURVE",
"198 111 OFFCURVE",
"205 111 CURVE",
"224 128 OFFCURVE",
"301 216 OFFCURVE",
"319 261 CURVE",
"338 254 OFFCURVE",
"320 167 OFFCURVE",
"320 167 CURVE",
"313 159 OFFCURVE",
"257 63 OFFCURVE",
"180 0 CURVE"
);
},
{
closed = 1;
nodes = (
"361 -2 OFFCURVE",
"310 34 OFFCURVE",
"302 40 CURVE SMOOTH",
"279 58 OFFCURVE",
"315 235 OFFCURVE",
"328 326 CURVE SMOOTH",
"344 442 OFFCURVE",
"358 607 OFFCURVE",
"355 668 CURVE",
"339 680 OFFCURVE",
"329 688 OFFCURVE",
"313 698 CURVE",
"323 740 LINE",
"338 748 OFFCURVE",
"472 717 OFFCURVE",
"479 707 CURVE SMOOTH",
"494 684 OFFCURVE",
"466 521 OFFCURVE",
"453 432 CURVE SMOOTH",
"429 265 OFFCURVE",
"401 88 OFFCURVE",
"424 62 CURVE",
"435 62 OFFCURVE",
"460 69 OFFCURVE",
"475 74 CURVE",
"479 28 LINE",
"461 15 OFFCURVE",
"441 5 OFFCURVE",
"416 -2 CURVE"
);
}
);
width = 506;
},
{
layerId = "11343128-4963-4E5D-BE9C-B74F53B36FA5";
name = Bold;
width = 12;
}
);
leftKerningGroup = o;
leftMetricsKey = o;
rightKerningGroup = i;
rightMetricsKey = i;
},
{
glyphname = eth;
lastChange = "2016-02-17 19:32:51 +0000";
layers = (
{
components = (
{
name = d;
},
{
name = d;
}
);
layerId = "71FD7A9F-05F5-4D76-8D4F-547475A05E4C";
name = "Bold Italic";
paths = (
{
closed = 1;
nodes = (
"263 538 LINE",
"357 540 OFFCURVE",
"452 540 OFFCURVE",
"546 538 CURVE",
"550 598 LINE",
"455 596 OFFCURVE",
"364 596 OFFCURVE",
"269 598 CURVE"
);
}
);
width = 520;
},
{
layerId = "11343128-4963-4E5D-BE9C-B74F53B36FA5";
name = Bold;
width = 6;
}
);
leftKerningGroup = o;
leftMetricsKey = o;
rightKerningGroup = i;
rightMetricsKey = d;
unicode = 00F0;
},
{
glyphname = e;
lastChange = "2016-02-17 19:29:48 +0000";
layers = (
{
anchors = (
{
name = bottom;
position = "{189, 0}";
},
{
name = ogonek;
position = "{336, 10}";
},
{
name = top;
position = "{239, 480}";
}
);
background = {
paths = (
{
closed = 1;
nodes = (
"300 357 OFFCURVE",
"261 381 OFFCURVE",
"233 393 CURVE",
"152 346 OFFCURVE",
"137 216 OFFCURVE",
"169 146 CURVE SMOOTH",
"185 111 OFFCURVE",
"215 79 OFFCURVE",
"252 76 CURVE SMOOTH",
"308 72 OFFCURVE",
"347 91 OFFCURVE",
"365 100 CURVE",
"371 50 LINE",
"343 30 OFFCURVE",
"308 5 OFFCURVE",
"229 -2 CURVE",
"163 -6 OFFCURVE",
"117 13 OFFCURVE",
"77 57 CURVE",
"-25 169 OFFCURVE",
"31 459 OFFCURVE",
"229 483 CURVE",
"297 488 OFFCURVE",
"367 471 OFFCURVE",
"401 430 CURVE",
"390 394 OFFCURVE",
"363 344 OFFCURVE",
"344 321 CURVE"
);
}
);
};
layerId = "71FD7A9F-05F5-4D76-8D4F-547475A05E4C";
name = "Bold Italic";
paths = (
{
closed = 1;
nodes = (
"291 287 OFFCURVE",
"230 219 OFFCURVE",
"151 229 CURVE",
"104 206 OFFCURVE",
"88 206 OFFCURVE",
"148 174 CURVE",
"318 151 OFFCURVE",
"437 255 OFFCURVE",
"402 391 CURVE SMOOTH",
"390 439 OFFCURVE",
"354 484 OFFCURVE",
"244 484 CURVE",
"20 443 OFFCURVE",
"-25 167 OFFCURVE",
"83 51 CURVE SMOOTH",
"144 -15 OFFCURVE",
"238 -10 OFFCURVE",
"296 8 CURVE SMOOTH",
"342 22 OFFCURVE",
"364 43 OFFCURVE",
"373 53 CURVE",
"366 101 LINE",
"351 88 OFFCURVE",
"292 68 OFFCURVE",
"250 75 CURVE SMOOTH",
"215 81 OFFCURVE",
"187 105 OFFCURVE",
"170 144 CURVE SMOOTH",
"139 216 OFFCURVE",
"152 360 OFFCURVE",
"236 414 CURVE",
"280 393 OFFCURVE",
"294 334 OFFCURVE",
"294 304 CURVE"
);
}
);
width = 426;
},
{
background = {
components = (
{
name = o;
}
);
};
layerId = "11343128-4963-4E5D-BE9C-B74F53B36FA5";
name = Bold;
paths = (
{
closed = 1;
nodes = (
"126 232 OFFCURVE",
"152 371 OFFCURVE",
"216 405 CURVE",
"281 403 OFFCURVE",
"315 311 OFFCURVE",
"303 289 CURVE",
"277 278 OFFCURVE",
"167 260 OFFCURVE",
"123 266 CURVE",
"125 195 LINE",
"206 196 OFFCURVE",
"345 216 OFFCURVE",
"412 248 CURVE",
"453 399 OFFCURVE",
"330 525 OFFCURVE",
"175 472 CURVE SMOOTH",
"-9 409 OFFCURVE",
"-18 129 OFFCURVE",
"100 33 CURVE SMOOTH",
"156 -12 OFFCURVE",
"300 -37 OFFCURVE",
"421 43 CURVE",
"404 97 LINE",
"291 47 OFFCURVE",
"201 77 OFFCURVE",
"168 145 CURVE SMOOTH"
);
}
);
width = 445;
}
);
leftKerningGroup = o;
leftMetricsKey = o;
rightKerningGroup = o;
rightMetricsKey = "=o";
unicode = 0065;
},
{
glyphname = e.001;
lastChange = "2016-02-17 19:32:51 +0000";
layers = (
{
anchors = (
{
name = bottom;
position = "{189, 0}";
},
{
name = ogonek;
position = "{336, 10}";
},
{
name = top;
position = "{239, 480}";
}
);
background = {
paths = (
{
closed = 1;
nodes = (
"300 357 OFFCURVE",
"261 381 OFFCURVE",
"233 393 CURVE",
"152 346 OFFCURVE",
"137 216 OFFCURVE",
"169 146 CURVE SMOOTH",
"185 111 OFFCURVE",
"215 79 OFFCURVE",
"252 76 CURVE SMOOTH",
"308 72 OFFCURVE",
"347 91 OFFCURVE",
"365 100 CURVE",
"371 50 LINE",
"343 30 OFFCURVE",
"308 5 OFFCURVE",
"229 -2 CURVE",
"163 -6 OFFCURVE",
"117 13 OFFCURVE",
"77 57 CURVE",
"-25 169 OFFCURVE",
"31 459 OFFCURVE",
"229 483 CURVE",
"297 488 OFFCURVE",
"367 471 OFFCURVE",
"401 430 CURVE",
"390 394 OFFCURVE",
"363 344 OFFCURVE",
"344 321 CURVE"
);
}
);
};
layerId = "71FD7A9F-05F5-4D76-8D4F-547475A05E4C";
name = "Bold Italic";
paths = (
{
closed = 1;
nodes = (
"298 287 OFFCURVE",
"230 219 OFFCURVE",
"151 229 CURVE",
"104 206 OFFCURVE",
"88 206 OFFCURVE",
"148 174 CURVE",
"318 151 OFFCURVE",
"439 257 OFFCURVE",
"404 393 CURVE SMOOTH",
"392 441 OFFCURVE",
"354 486 OFFCURVE",
"244 486 CURVE",
"20 445 OFFCURVE",
"-25 167 OFFCURVE",
"83 51 CURVE SMOOTH",
"144 -15 OFFCURVE",
"238 -10 OFFCURVE",
"296 8 CURVE SMOOTH",
"342 22 OFFCURVE",
"364 43 OFFCURVE",
"373 53 CURVE",
"366 100 LINE",
"351 87 OFFCURVE",
"292 68 OFFCURVE",
"250 75 CURVE SMOOTH",
"215 81 OFFCURVE",
"187 105 OFFCURVE",
"170 144 CURVE SMOOTH",
"139 216 OFFCURVE",
"148 362 OFFCURVE",
"232 416 CURVE",
"276 394 OFFCURVE",
"294 347 OFFCURVE",
"301 304 CURVE"
);
}
);
width = 428;
},
{
layerId = "11343128-4963-4E5D-BE9C-B74F53B36FA5";
name = Bold;
width = 24;
}
);
leftKerningGroup = o;
leftMetricsKey = o;
rightKerningGroup = o;
rightMetricsKey = o;
},
{
glyphname = f;
lastChange = "2015-12-08 20:12:35 +0000";
layers = (
{
anchors = (
{
name = bottom;
position = "{116, 0}";
},
{
name = top;
position = "{166, 480}";
}
);
background = {
paths = (
{
closed = 1;
nodes = (
"109 -217 OFFCURVE",
"137 -133 OFFCURVE",
"153 13 CURVE SMOOTH",
"161 87 OFFCURVE",
"189 343 OFFCURVE",
"193 390 CURVE",
"224 594 OFFCURVE",
"247 638 OFFCURVE",
"278 679 CURVE",
"290 679 OFFCURVE",
"318 671 OFFCURVE",
"342 657 CURVE",
"359 701 LINE",
"335 721 OFFCURVE",
"297 737 OFFCURVE",
"263 743 CURVE",
"156 717 OFFCURVE",
"107 654 OFFCURVE",
"93 494 CURVE SMOOTH",
"57 90 LINE",
"31 -114 OFFCURVE",
"11 -165 OFFCURVE",
"-4 -185 CURVE",
"-18 -183 OFFCURVE",
"-69 -136 OFFCURVE",
"-106 -106 CURVE",
"-128 -136 OFFCURVE",
"-142 -173 OFFCURVE",
"-150 -202 CURVE",
"-118 -232 OFFCURVE",
"-61 -248 OFFCURVE",
"0 -247 CURVE"
);
}
);
};
layerId = "71FD7A9F-05F5-4D76-8D4F-547475A05E4C";
name = "Bold Italic";
paths = (
{
closed = 1;
nodes = (
"172 400 LINE",
"220 399 OFFCURVE",
"273 398 OFFCURVE",
"295 398 CURVE SMOOTH",
"306 398 OFFCURVE",
"307 414 OFFCURVE",
"315 478 CURVE",
"266 475 OFFCURVE",
"223 474 OFFCURVE",
"206 473 CURVE",
"109 572 LINE",
"91 491 LINE",
"88 470 OFFCURVE",
"79 468 OFFCURVE",
"49 466 CURVE SMOOTH",
"34 465 LINE",
"27 401 LINE",
"31 401 OFFCURVE",
"75 401 OFFCURVE",
"90 401 CURVE"
);
},
{
closed = 1;
nodes = (
"142 710 OFFCURVE",
"106 626 OFFCURVE",
"90 480 CURVE SMOOTH",
"82 406 OFFCURVE",
"66 261 OFFCURVE",
"51 103 CURVE",
"32 -65 OFFCURVE",
"20 -142 OFFCURVE",
"-11 -183 CURVE",
"-39 -169 OFFCURVE",
"-85 -127 OFFCURVE",
"-111 -103 CURVE",
"-129 -135 OFFCURVE",
"-145 -164 OFFCURVE",
"-156 -202 CURVE",
"-136 -232 OFFCURVE",
"-59 -252 OFFCURVE",
"-12 -250 CURVE",
"82 -228 OFFCURVE",
"141 -161 OFFCURVE",
"157 -1 CURVE SMOOTH",
"198 403 LINE",
"222 601 OFFCURVE",
"234 642 OFFCURVE",
"254 672 CURVE",
"268 670 OFFCURVE",
"319 623 OFFCURVE",
"356 593 CURVE",
"374 624 OFFCURVE",
"390 661 OFFCURVE",
"400 695 CURVE",
"368 725 OFFCURVE",
"312 741 OFFCURVE",
"251 740 CURVE"
);
}
);
width = 282;
},
{
background = {
components = (
{
name = s;
}
);
};
layerId = "11343128-4963-4E5D-BE9C-B74F53B36FA5";
name = Bold;
paths = (
{
closed = 1;
nodes = (
"166 401 LINE",
"214 400 OFFCURVE",
"267 399 OFFCURVE",
"289 399 CURVE SMOOTH",
"300 399 OFFCURVE",
"299 415 OFFCURVE",
"301 478 CURVE",
"252 475 OFFCURVE",
"209 474 OFFCURVE",
"192 473 CURVE",
"85 572 LINE",
"75 491 LINE",
"74 470 OFFCURVE",
"66 468 OFFCURVE",
"36 466 CURVE SMOOTH",
"19 465 LINE",
"19 402 LINE",
"23 402 OFFCURVE",
"69 402 OFFCURVE",
"84 402 CURVE"
);
},
{
closed = 1;
nodes = (
"18 55 LINE",
"15 0 LINE",
"271 0 LINE",
"275 56 LINE",
"194 66 LINE",
"144 66 LINE"
);
},
{
closed = 1;
nodes = (
"188 80 OFFCURVE",
"191 205 OFFCURVE",
"191 408 CURVE",
"75 408 LINE",
"80 371 OFFCURVE",
"73 124 OFFCURVE",
"71 101 CURVE SMOOTH",
"68 73 OFFCURVE",
"111 59 OFFCURVE",
"132 57 CURVE SMOOTH",
"159 54 OFFCURVE",
"172 40 OFFCURVE",
"207 40 CURVE"
);
},
{
closed = 1;
nodes = (
"190 363 LINE",
"194 553 OFFCURVE",
"193 633 OFFCURVE",
"209 663 CURVE",
"231 660 OFFCURVE",
"280 648 OFFCURVE",
"319 610 CURVE",
"334 641 OFFCURVE",
"358 676 OFFCURVE",
"365 710 CURVE",
"343 729 OFFCURVE",
"254 756 OFFCURVE",
"198 740 CURVE SMOOTH",
"102 712 OFFCURVE",
"73 617 OFFCURVE",
"75 458 CURVE"
);
},
{
closed = 1;
nodes = (
"290 623 OFFCURVE",
"293 602 OFFCURVE",
"296 576 CURVE",
"304 576 OFFCURVE",
"345 582 OFFCURVE",
"357 588 CURVE",
"365 710 LINE",
"283 644 LINE"
);
}
);
width = 325;
}
);
leftKerningGroup = f;
rightKerningGroup = f;
unicode = 0066;
},
{
glyphname = f.001;
lastChange = "2015-12-01 10:14:33 +0000";
layers = (
{
anchors = (
{
name = bottom;
position = "{116, 0}";
},
{
name = top;
position = "{166, 480}";
}
);
background = {
paths = (
{
closed = 1;
nodes = (
"109 -217 OFFCURVE",
"137 -133 OFFCURVE",
"153 13 CURVE SMOOTH",
"161 87 OFFCURVE",
"189 343 OFFCURVE",
"193 390 CURVE",
"224 594 OFFCURVE",
"247 638 OFFCURVE",
"278 679 CURVE",
"290 679 OFFCURVE",
"318 671 OFFCURVE",
"342 657 CURVE",
"359 701 LINE",
"335 721 OFFCURVE",
"297 737 OFFCURVE",
"263 743 CURVE",
"156 717 OFFCURVE",
"107 654 OFFCURVE",
"93 494 CURVE SMOOTH",
"57 90 LINE",
"31 -114 OFFCURVE",
"11 -165 OFFCURVE",
"-4 -185 CURVE",
"-18 -183 OFFCURVE",
"-69 -136 OFFCURVE",
"-106 -106 CURVE",
"-128 -136 OFFCURVE",
"-142 -173 OFFCURVE",
"-150 -202 CURVE",
"-118 -232 OFFCURVE",
"-61 -248 OFFCURVE",
"0 -247 CURVE"
);
}
);
};
layerId = "71FD7A9F-05F5-4D76-8D4F-547475A05E4C";
name = "Bold Italic";
paths = (
{
closed = 1;
nodes = (
"172 400 LINE",
"220 399 OFFCURVE",
"273 398 OFFCURVE",
"295 398 CURVE SMOOTH",
"306 398 OFFCURVE",
"307 414 OFFCURVE",
"315 478 CURVE",
"266 475 OFFCURVE",
"223 474 OFFCURVE",
"206 473 CURVE",
"109 572 LINE",
"91 491 LINE",
"88 470 OFFCURVE",
"79 468 OFFCURVE",
"49 466 CURVE SMOOTH",
"34 465 LINE",
"27 401 LINE",
"31 401 OFFCURVE",
"75 401 OFFCURVE",
"90 401 CURVE"
);
},
{
closed = 1;
nodes = (
"142 710 OFFCURVE",
"106 626 OFFCURVE",
"90 480 CURVE SMOOTH",
"82 406 OFFCURVE",
"66 261 OFFCURVE",
"51 103 CURVE",
"32 -65 OFFCURVE",
"20 -142 OFFCURVE",
"-11 -183 CURVE",
"-39 -169 OFFCURVE",
"-85 -127 OFFCURVE",
"-111 -103 CURVE",
"-129 -135 OFFCURVE",
"-145 -164 OFFCURVE",
"-156 -202 CURVE",
"-136 -232 OFFCURVE",
"-59 -252 OFFCURVE",
"-12 -250 CURVE",
"82 -228 OFFCURVE",
"141 -161 OFFCURVE",
"157 -1 CURVE SMOOTH",
"198 403 LINE",
"222 601 OFFCURVE",
"234 642 OFFCURVE",
"254 672 CURVE",
"268 670 OFFCURVE",
"319 623 OFFCURVE",
"356 593 CURVE",
"374 624 OFFCURVE",
"390 661 OFFCURVE",
"400 695 CURVE",
"368 725 OFFCURVE",
"312 741 OFFCURVE",
"251 740 CURVE"
);
}
);
width = 282;
},
{
layerId = "11343128-4963-4E5D-BE9C-B74F53B36FA5";
name = Bold;
width = 600;
}
);
leftKerningGroup = f;
rightKerningGroup = f;
},
{
glyphname = g;
lastChange = "2015-12-16 18:01:02 +0000";
layers = (
{
anchors = (
{
name = bottom;
position = "{209, 0}";
},
{
name = top;
position = "{259, 480}";
}
);
background = {
paths = (
{
closed = 1;
nodes = (
"265 77 OFFCURVE",
"299 147 OFFCURVE",
"307 153 CURVE",
"307 153 OFFCURVE",
"351 282 OFFCURVE",
"332 289 CURVE",
"316 254 OFFCURVE",
"252 157 OFFCURVE",
"200 110 CURVE",
"193 110 OFFCURVE",
"180 121 OFFCURVE",
"170 144 CURVE SMOOTH",
"131 239 OFFCURVE",
"147 371 OFFCURVE",
"217 414 CURVE",
"267 414 OFFCURVE",
"328 349 OFFCURVE",
"339 316 CURVE",
"339 316 OFFCURVE",
"386 357 OFFCURVE",
"386 413 CURVE",
"344 462 OFFCURVE",
"269 483 OFFCURVE",
"201 483 CURVE",
"27 433 OFFCURVE",
"-28 171 OFFCURVE",
"73 41 CURVE SMOOTH",
"104 1 OFFCURVE",
"137 -3 OFFCURVE",
"175 -3 CURVE"
);
},
{
closed = 1;
nodes = (
"429 5 OFFCURVE",
"455 17 OFFCURVE",
"471 28 CURVE",
"467 74 LINE",
"454 69 OFFCURVE",
"428 62 OFFCURVE",
"413 62 CURVE",
"385 91 OFFCURVE",
"429 322 OFFCURVE",
"437 352 CURVE SMOOTH",
"445 383 OFFCURVE",
"454 424 OFFCURVE",
"465 456 CURVE",
"453 467 OFFCURVE",
"432 475 OFFCURVE",
"419 479 CURVE SMOOTH",
"401 484 OFFCURVE",
"334 399 OFFCURVE",
"329 371 CURVE",
"324 364 OFFCURVE",
"322 362 OFFCURVE",
"321 347 CURVE SMOOTH",
"314 243 OFFCURVE",
"273 68 OFFCURVE",
"289 42 CURVE SMOOTH",
"299 26 OFFCURVE",
"350 -2 OFFCURVE",
"400 -1 CURVE"
);
},
{
closed = 1;
nodes = (
"380 710 OFFCURVE",
"344 626 OFFCURVE",
"328 480 CURVE SMOOTH",
"320 406 OFFCURVE",
"304 261 OFFCURVE",
"289 103 CURVE",
"270 -65 OFFCURVE",
"258 -142 OFFCURVE",
"227 -183 CURVE",
"199 -169 OFFCURVE",
"153 -127 OFFCURVE",
"127 -103 CURVE",
"109 -135 OFFCURVE",
"93 -164 OFFCURVE",
"82 -202 CURVE",
"102 -232 OFFCURVE",
"179 -252 OFFCURVE",
"226 -250 CURVE",
"320 -228 OFFCURVE",
"374 -161 OFFCURVE",
"390 -1 CURVE SMOOTH",
"431 403 LINE",
"455 601 OFFCURVE",
"472 642 OFFCURVE",
"492 672 CURVE",
"506 670 OFFCURVE",
"557 623 OFFCURVE",
"594 593 CURVE",
"612 624 OFFCURVE",
"628 661 OFFCURVE",
"638 695 CURVE",
"606 725 OFFCURVE",
"550 741 OFFCURVE",
"489 740 CURVE"
);
}
);
};
layerId = "71FD7A9F-05F5-4D76-8D4F-547475A05E4C";
name = "Bold Italic";
paths = (
{
closed = 1;
nodes = (
"366 433 LINE",
"323 468 OFFCURVE",
"260 483 OFFCURVE",
"202 483 CURVE",
"28 433 OFFCURVE",
"-31 170 OFFCURVE",
"70 40 CURVE SMOOTH",
"82 24 OFFCURVE",
"105 13 OFFCURVE",
"118 13 CURVE",
"102 -1 OFFCURVE",
"66 -34 OFFCURVE",
"42 -54 CURVE SMOOTH",
"21 -71 OFFCURVE",
"-20 -95 OFFCURVE",
"-41 -108 CURVE",
"-39 -156 LINE",
"-31 -166 OFFCURVE",
"-21 -175 OFFCURVE",
"-15 -180 CURVE SMOOTH",
"9 -200 OFFCURVE",
"87 -253 OFFCURVE",
"230 -253 CURVE",
"339 -222 OFFCURVE",
"390 -137 OFFCURVE",
"397 70 CURVE SMOOTH",
"399 134 OFFCURVE",
"411 240 OFFCURVE",
"436 352 CURVE SMOOTH",
"443 383 OFFCURVE",
"451 424 OFFCURVE",
"461 456 CURVE",
"416 479 LINE"
);
},
{
closed = 1;
nodes = (
"128 238 OFFCURVE",
"148 371 OFFCURVE",
"218 414 CURVE",
"254 414 OFFCURVE",
"296 380 OFFCURVE",
"320 349 CURVE",
"320 347 LINE",
"319 324 OFFCURVE",
"314 282 OFFCURVE",
"310 238 CURVE",
"292 210 OFFCURVE",
"220 122 OFFCURVE",
"202 106 CURVE",
"193 106 OFFCURVE",
"177 120 OFFCURVE",
"167 143 CURVE SMOOTH"
);
},
{
closed = 1;
nodes = (
"134 -54 OFFCURVE",
"186 -11 OFFCURVE",
"292 108 CURVE",
"275 -120 OFFCURVE",
"247 -163 OFFCURVE",
"231 -186 CURVE",
"205 -177 OFFCURVE",
"121 -131 OFFCURVE",
"98 -96 CURVE"
);
}
);
width = 469;
},
{
background = {
paths = (
{
closed = 1;
nodes = (
"353 433 LINE",
"307 468 OFFCURVE",
"242 483 OFFCURVE",
"184 483 CURVE",
"15 433 OFFCURVE",
"-16 170 OFFCURVE",
"99 40 CURVE SMOOTH",
"112 24 OFFCURVE",
"136 13 OFFCURVE",
"149 13 CURVE",
"135 -1 OFFCURVE",
"102 -34 OFFCURVE",
"80 -54 CURVE SMOOTH",
"61 -71 OFFCURVE",
"23 -95 OFFCURVE",
"3 -108 CURVE",
"10 -156 LINE",
"19 -166 OFFCURVE",
"30 -175 OFFCURVE",
"37 -180 CURVE SMOOTH",
"63 -200 OFFCURVE",
"146 -253 OFFCURVE",
"289 -253 CURVE",
"395 -222 OFFCURVE",
"437 -137 OFFCURVE",
"422 70 CURVE SMOOTH",
"418 134 OFFCURVE",
"419 240 OFFCURVE",
"432 352 CURVE SMOOTH",
"436 383 OFFCURVE",
"439 424 OFFCURVE",
"446 456 CURVE",
"398 479 LINE"
);
},
{
closed = 1;
nodes = (
"136 238 OFFCURVE",
"142 371 OFFCURVE",
"207 414 CURVE",
"243 414 OFFCURVE",
"289 380 OFFCURVE",
"316 349 CURVE",
"316 347 LINE",
"318 324 OFFCURVE",
"317 282 OFFCURVE",
"318 238 CURVE",
"303 210 OFFCURVE",
"240 122 OFFCURVE",
"224 106 CURVE",
"215 106 OFFCURVE",
"197 120 OFFCURVE",
"185 143 CURVE SMOOTH"
);
},
{
closed = 1;
nodes = (
"160 -58 OFFCURVE",
"221 -10 OFFCURVE",
"313 116 CURVE",
"320 -112 OFFCURVE",
"297 -163 OFFCURVE",
"283 -186 CURVE",
"256 -177 OFFCURVE",
"165 -137 OFFCURVE",
"129 -102 CURVE"
);
}
);
};
guideLines = (
{
angle = 90;
position = "{33, 121}";
}
);
layerId = "11343128-4963-4E5D-BE9C-B74F53B36FA5";
name = Bold;
paths = (
{
closed = 1;
nodes = (
"341 472 OFFCURVE",
"282 498 OFFCURVE",
"197 485 CURVE SMOOTH",
"-9 452 OFFCURVE",
"-23 237 OFFCURVE",
"84 168 CURVE SMOOTH",
"122 144 OFFCURVE",
"188 133 OFFCURVE",
"248 142 CURVE SMOOTH",
"444 171 OFFCURVE",
"467 380 OFFCURVE",
"368 452 CURVE SMOOTH"
);
},
{
closed = 1;
nodes = (
"210 204 OFFCURVE",
"175 210 OFFCURVE",
"155 245 CURVE SMOOTH",
"116 310 OFFCURVE",
"137 389 OFFCURVE",
"200 416 CURVE",
"234 416 OFFCURVE",
"266 410 OFFCURVE",
"286 380 CURVE SMOOTH",
"325 320 OFFCURVE",
"317 237 OFFCURVE",
"246 204 CURVE"
);
},
{
closed = 1;
nodes = (
"126 153 OFFCURVE",
"74 105 OFFCURVE",
"29 78 CURVE",
"38 34 LINE",
"96 -11 OFFCURVE",
"356 -21 OFFCURVE",
"365 -62 CURVE",
"364 -189 OFFCURVE",
"125 -161 OFFCURVE",
"95 -97 CURVE",
"101 -46 OFFCURVE",
"135 15 OFFCURVE",
"149 38 CURVE",
"112 56 LINE",
"-14 -97 LINE",
"-24 -164 OFFCURVE",
"30 -255 OFFCURVE",
"167 -255 CURVE SMOOTH",
"369 -255 OFFCURVE",
"466 -126 OFFCURVE",
"471 -28 CURVE SMOOTH",
"472 14 OFFCURVE",
"450 69 OFFCURVE",
"301 84 CURVE SMOOTH",
"247 89 OFFCURVE",
"170 90 OFFCURVE",
"163 108 CURVE SMOOTH",
"156 126 OFFCURVE",
"194 159 OFFCURVE",
"214 184 CURVE",
"177 211 LINE"
);
},
{
closed = 1;
nodes = (
"449 476 OFFCURVE",
"353 468 OFFCURVE",
"329 463 CURVE",
"352 410 LINE",
"397 407 OFFCURVE",
"433 403 OFFCURVE",
"482 397 CURVE",
"479 421 OFFCURVE",
"473 464 OFFCURVE",
"469 476 CURVE"
);
}
);
width = 482;
}
);
leftKerningGroup = o;
rightKerningGroup = g;
unicode = 0067;
},
